<mxfile host="Electron" agent="Mozilla/5.0 (Windows NT 10.0; Win64; x64) AppleWebKit/537.36 (KHTML, like Gecko) draw.io/26.2.2 Chrome/134.0.6998.178 Electron/35.1.2 Safari/537.36" version="26.2.2" pages="11">
  <diagram name="🧩Общ: sanctum" id="thbt84SAuCWrtGQ53hXQ">
    <mxGraphModel dx="985" dy="580" grid="0" gridSize="10" guides="1" tooltips="1" connect="1" arrows="1" fold="1" page="1" pageScale="1" pageWidth="827" pageHeight="1169" math="0" shadow="0">
      <root>
        <mxCell id="qztkcTzE_WuQUr65Bi1w-0" />
        <mxCell id="qztkcTzE_WuQUr65Bi1w-1" parent="qztkcTzE_WuQUr65Bi1w-0" />
        <mxCell id="qztkcTzE_WuQUr65Bi1w-2" value="Токен есть" style="shape=umlFrame;whiteSpace=wrap;html=1;labelBackgroundColor=none;strokeColor=#2D7600;fontFamily=Helvetica;fontSize=11;fillColor=#60a917;fontColor=#ffffff;width=80;height=27;movable=1;resizable=1;rotatable=1;deletable=1;editable=1;locked=0;connectable=1;" parent="qztkcTzE_WuQUr65Bi1w-1" vertex="1">
          <mxGeometry x="20" y="213" width="660" height="227" as="geometry" />
        </mxCell>
        <mxCell id="qztkcTzE_WuQUr65Bi1w-3" value="Найден по токену" style="shape=umlFrame;whiteSpace=wrap;html=1;labelBackgroundColor=none;strokeColor=#2D7600;fontFamily=Helvetica;fontSize=11;fillColor=#60a917;fontColor=#ffffff;width=80;height=27;" parent="qztkcTzE_WuQUr65Bi1w-1" vertex="1">
          <mxGeometry x="30" y="250" width="640" height="90" as="geometry" />
        </mxCell>
        <mxCell id="qztkcTzE_WuQUr65Bi1w-5" value="Пользователь" style="shape=umlLifeline;perimeter=lifelinePerimeter;whiteSpace=wrap;html=1;container=1;collapsible=0;recursiveResize=0;outlineConnect=0;labelBackgroundColor=none;strokeColor=#d6b656;fontFamily=Helvetica;fontSize=11;fillColor=#fff2cc;" parent="qztkcTzE_WuQUr65Bi1w-1" vertex="1">
          <mxGeometry x="80" y="40" width="120" height="490" as="geometry" />
        </mxCell>
        <mxCell id="qztkcTzE_WuQUr65Bi1w-6" value="" style="html=1;points=[];perimeter=orthogonalPerimeter;labelBackgroundColor=none;strokeColor=#000000;fontFamily=Helvetica;fontSize=11;fontColor=default;fillColor=default;" parent="qztkcTzE_WuQUr65Bi1w-5" vertex="1">
          <mxGeometry x="55" y="80" width="10" height="220" as="geometry" />
        </mxCell>
        <mxCell id="qztkcTzE_WuQUr65Bi1w-8" value="" style="html=1;points=[];perimeter=orthogonalPerimeter;labelBackgroundColor=none;strokeColor=#000000;fontFamily=Helvetica;fontSize=11;fontColor=default;fillColor=default;" parent="qztkcTzE_WuQUr65Bi1w-1" vertex="1">
          <mxGeometry x="135" y="440" width="10" height="40" as="geometry" />
        </mxCell>
        <mxCell id="qztkcTzE_WuQUr65Bi1w-9" value="Не найден по токену" style="shape=umlFrame;whiteSpace=wrap;html=1;labelBackgroundColor=none;strokeColor=#6F0000;fontFamily=Helvetica;fontSize=11;fillColor=#a20025;fontColor=#ffffff;width=80;height=27;" parent="qztkcTzE_WuQUr65Bi1w-1" vertex="1">
          <mxGeometry x="30" y="340" width="640" height="90" as="geometry" />
        </mxCell>
        <mxCell id="qztkcTzE_WuQUr65Bi1w-10" value="Токена нет" style="shape=umlFrame;whiteSpace=wrap;html=1;labelBackgroundColor=none;strokeColor=#6F0000;fontFamily=Helvetica;fontSize=11;fillColor=#a20025;fontColor=#ffffff;width=80;height=30;movable=1;resizable=1;rotatable=1;deletable=1;editable=1;locked=0;connectable=1;" parent="qztkcTzE_WuQUr65Bi1w-1" vertex="1">
          <mxGeometry x="20" y="440" width="660" height="90" as="geometry" />
        </mxCell>
        <mxCell id="qztkcTzE_WuQUr65Bi1w-11" value="Система" style="shape=umlLifeline;perimeter=lifelinePerimeter;whiteSpace=wrap;html=1;container=1;collapsible=0;recursiveResize=0;outlineConnect=0;labelBackgroundColor=none;strokeColor=#9673a6;fontFamily=Helvetica;fontSize=11;fillColor=#e1d5e7;" parent="qztkcTzE_WuQUr65Bi1w-1" vertex="1">
          <mxGeometry x="240" y="40" width="120" height="490" as="geometry" />
        </mxCell>
        <mxCell id="qztkcTzE_WuQUr65Bi1w-12" value="Проверка наличие &lt;br&gt;Bearer токена" style="html=1;verticalAlign=bottom;endArrow=block;rounded=0;labelBackgroundColor=default;strokeColor=default;fontFamily=Helvetica;fontSize=11;fontColor=default;shape=connector;curved=0;" parent="qztkcTzE_WuQUr65Bi1w-11" source="qztkcTzE_WuQUr65Bi1w-13" target="qztkcTzE_WuQUr65Bi1w-14" edge="1">
          <mxGeometry x="0.0968" width="80" relative="1" as="geometry">
            <mxPoint x="64" y="110" as="sourcePoint" />
            <mxPoint x="130" y="150" as="targetPoint" />
            <Array as="points">
              <mxPoint x="130" y="100" />
              <mxPoint x="130" y="130" />
              <mxPoint x="100" y="130" />
            </Array>
            <mxPoint as="offset" />
          </mxGeometry>
        </mxCell>
        <mxCell id="qztkcTzE_WuQUr65Bi1w-13" value="" style="html=1;points=[];perimeter=orthogonalPerimeter;labelBackgroundColor=none;strokeColor=#000000;fontFamily=Helvetica;fontSize=11;fontColor=default;fillColor=default;" parent="qztkcTzE_WuQUr65Bi1w-11" vertex="1">
          <mxGeometry x="55" y="90" width="10" height="160" as="geometry" />
        </mxCell>
        <mxCell id="qztkcTzE_WuQUr65Bi1w-14" value="" style="html=1;points=[];perimeter=orthogonalPerimeter;labelBackgroundColor=none;strokeColor=#000000;fontFamily=Helvetica;fontSize=11;fontColor=default;fillColor=default;" parent="qztkcTzE_WuQUr65Bi1w-11" vertex="1">
          <mxGeometry x="60" y="130" width="10" height="20" as="geometry" />
        </mxCell>
        <mxCell id="qztkcTzE_WuQUr65Bi1w-24" value="Продолжение запроса&lt;div&gt;со вложенным юзером&lt;/div&gt;" style="html=1;verticalAlign=bottom;endArrow=open;dashed=1;endSize=8;rounded=0;labelBackgroundColor=default;strokeColor=default;fontFamily=Helvetica;fontSize=11;fontColor=default;shape=connector;curved=0;" parent="qztkcTzE_WuQUr65Bi1w-11" target="qztkcTzE_WuQUr65Bi1w-13" edge="1">
          <mxGeometry x="0.0023" relative="1" as="geometry">
            <mxPoint x="215" y="240" as="sourcePoint" />
            <mxPoint x="70" y="240" as="targetPoint" />
            <Array as="points" />
            <mxPoint as="offset" />
          </mxGeometry>
        </mxCell>
        <mxCell id="qztkcTzE_WuQUr65Bi1w-7" value="" style="ellipse;html=1;shape=endState;labelBackgroundColor=none;fontFamily=Helvetica;fontSize=11;fillColor=#f0a30a;fontColor=#000000;strokeColor=#BD7000;" parent="qztkcTzE_WuQUr65Bi1w-11" vertex="1">
          <mxGeometry x="45" y="260" width="30" height="30" as="geometry" />
        </mxCell>
        <mxCell id="qztkcTzE_WuQUr65Bi1w-15" value="" style="html=1;points=[];perimeter=orthogonalPerimeter;labelBackgroundColor=none;strokeColor=#000000;fontFamily=Helvetica;fontSize=11;fontColor=default;fillColor=default;" parent="qztkcTzE_WuQUr65Bi1w-1" vertex="1">
          <mxGeometry x="295" y="440" width="10" height="40" as="geometry" />
        </mxCell>
        <mxCell id="qztkcTzE_WuQUr65Bi1w-16" value="Запрос к защищённой &lt;br&gt;авторизацией функции" style="html=1;verticalAlign=bottom;endArrow=block;rounded=0;labelBackgroundColor=default;strokeColor=default;fontFamily=Helvetica;fontSize=11;fontColor=default;shape=connector;curved=0;" parent="qztkcTzE_WuQUr65Bi1w-1" source="qztkcTzE_WuQUr65Bi1w-6" target="qztkcTzE_WuQUr65Bi1w-13" edge="1">
          <mxGeometry x="0.0032" width="80" relative="1" as="geometry">
            <mxPoint x="140" y="140" as="sourcePoint" />
            <mxPoint x="220" y="140" as="targetPoint" />
            <Array as="points">
              <mxPoint x="220" y="130" />
            </Array>
            <mxPoint as="offset" />
          </mxGeometry>
        </mxCell>
        <mxCell id="qztkcTzE_WuQUr65Bi1w-17" value="Компонент аутентификации" style="shape=umlLifeline;perimeter=lifelinePerimeter;whiteSpace=wrap;html=1;container=1;collapsible=0;recursiveResize=0;outlineConnect=0;labelBackgroundColor=none;strokeColor=#BD7000;fontFamily=Helvetica;fontSize=11;fillColor=#f0a30a;fontColor=#000000;" parent="qztkcTzE_WuQUr65Bi1w-1" vertex="1">
          <mxGeometry x="400" y="40" width="120" height="490" as="geometry" />
        </mxCell>
        <mxCell id="qztkcTzE_WuQUr65Bi1w-18" value="" style="html=1;points=[];perimeter=orthogonalPerimeter;labelBackgroundColor=none;strokeColor=#000000;fontFamily=Helvetica;fontSize=11;fontColor=default;fillColor=default;" parent="qztkcTzE_WuQUr65Bi1w-17" vertex="1">
          <mxGeometry x="55" y="190.75" width="10" height="59.25" as="geometry" />
        </mxCell>
        <mxCell id="qztkcTzE_WuQUr65Bi1w-19" value="Отправка данных" style="html=1;verticalAlign=bottom;endArrow=block;rounded=0;labelBackgroundColor=default;strokeColor=default;fontFamily=Helvetica;fontSize=11;fontColor=default;shape=connector;curved=0;" parent="qztkcTzE_WuQUr65Bi1w-17" edge="1">
          <mxGeometry x="0.0032" width="80" relative="1" as="geometry">
            <mxPoint x="-95" y="190" as="sourcePoint" />
            <mxPoint x="55" y="190" as="targetPoint" />
            <Array as="points">
              <mxPoint x="-20" y="190" />
            </Array>
            <mxPoint as="offset" />
          </mxGeometry>
        </mxCell>
        <mxCell id="qztkcTzE_WuQUr65Bi1w-20" value="База данных" style="shape=umlLifeline;perimeter=lifelinePerimeter;whiteSpace=wrap;html=1;container=1;collapsible=0;recursiveResize=0;outlineConnect=0;labelBackgroundColor=none;strokeColor=#82b366;fontFamily=Helvetica;fontSize=11;fillColor=#d5e8d4;" parent="qztkcTzE_WuQUr65Bi1w-1" vertex="1">
          <mxGeometry x="560" y="40" width="120" height="490" as="geometry" />
        </mxCell>
        <mxCell id="qztkcTzE_WuQUr65Bi1w-21" value="" style="html=1;points=[];perimeter=orthogonalPerimeter;labelBackgroundColor=none;strokeColor=#000000;fontFamily=Helvetica;fontSize=11;fontColor=default;fillColor=default;" parent="qztkcTzE_WuQUr65Bi1w-20" vertex="1">
          <mxGeometry x="55" y="200" width="10" height="40" as="geometry" />
        </mxCell>
        <mxCell id="qztkcTzE_WuQUr65Bi1w-22" value="Поиск по токену" style="html=1;verticalAlign=bottom;endArrow=block;rounded=0;labelBackgroundColor=default;strokeColor=default;fontFamily=Helvetica;fontSize=11;fontColor=default;shape=connector;curved=0;" parent="qztkcTzE_WuQUr65Bi1w-1" edge="1">
          <mxGeometry x="0.0032" width="80" relative="1" as="geometry">
            <mxPoint x="465" y="240" as="sourcePoint" />
            <mxPoint x="615" y="240" as="targetPoint" />
            <Array as="points" />
            <mxPoint as="offset" />
          </mxGeometry>
        </mxCell>
        <mxCell id="qztkcTzE_WuQUr65Bi1w-23" value="Ответ 401" style="html=1;verticalAlign=bottom;endArrow=open;dashed=1;endSize=8;rounded=0;labelBackgroundColor=default;strokeColor=default;fontFamily=Helvetica;fontSize=11;fontColor=default;shape=connector;curved=0;" parent="qztkcTzE_WuQUr65Bi1w-1" source="qztkcTzE_WuQUr65Bi1w-15" target="qztkcTzE_WuQUr65Bi1w-8" edge="1">
          <mxGeometry relative="1" as="geometry">
            <mxPoint x="250" y="490" as="sourcePoint" />
            <mxPoint x="150" y="490" as="targetPoint" />
            <Array as="points">
              <mxPoint x="220" y="470" />
            </Array>
            <mxPoint as="offset" />
          </mxGeometry>
        </mxCell>
        <mxCell id="qztkcTzE_WuQUr65Bi1w-25" value="" style="html=1;verticalAlign=bottom;endArrow=open;dashed=1;endSize=8;rounded=0;labelBackgroundColor=default;strokeColor=default;fontFamily=Helvetica;fontSize=11;fontColor=default;shape=connector;curved=0;" parent="qztkcTzE_WuQUr65Bi1w-1" edge="1">
          <mxGeometry x="0.0023" relative="1" as="geometry">
            <mxPoint x="613" y="270" as="sourcePoint" />
            <mxPoint x="465" y="270" as="targetPoint" />
            <Array as="points">
              <mxPoint x="518" y="270" />
              <mxPoint x="498" y="270" />
            </Array>
            <mxPoint as="offset" />
          </mxGeometry>
        </mxCell>
        <mxCell id="qztkcTzE_WuQUr65Bi1w-26" value="Возвращение пользователя" style="edgeLabel;html=1;align=center;verticalAlign=middle;resizable=0;points=[];fontFamily=Helvetica;fontSize=11;fontColor=default;labelBackgroundColor=default;" parent="qztkcTzE_WuQUr65Bi1w-25" vertex="1" connectable="0">
          <mxGeometry x="-0.0946" relative="1" as="geometry">
            <mxPoint x="-6" y="-10" as="offset" />
          </mxGeometry>
        </mxCell>
        <mxCell id="qztkcTzE_WuQUr65Bi1w-34" value="" style="ellipse;html=1;shape=endState;fillColor=#000000;strokeColor=#ff0000;labelBackgroundColor=none;fontFamily=Helvetica;fontSize=11;fontColor=default;direction=south;" parent="qztkcTzE_WuQUr65Bi1w-1" vertex="1">
          <mxGeometry x="125" y="390" width="30" height="30" as="geometry" />
        </mxCell>
        <mxCell id="qztkcTzE_WuQUr65Bi1w-35" value="" style="html=1;points=[];perimeter=orthogonalPerimeter;labelBackgroundColor=none;strokeColor=#000000;fontFamily=Helvetica;fontSize=11;fontColor=default;fillColor=default;" parent="qztkcTzE_WuQUr65Bi1w-1" vertex="1">
          <mxGeometry x="615" y="340" width="10" height="30" as="geometry" />
        </mxCell>
        <mxCell id="qztkcTzE_WuQUr65Bi1w-36" value="" style="html=1;verticalAlign=bottom;endArrow=open;dashed=1;endSize=8;rounded=0;labelBackgroundColor=default;strokeColor=default;fontFamily=Helvetica;fontSize=11;fontColor=default;shape=connector;curved=0;" parent="qztkcTzE_WuQUr65Bi1w-1" edge="1">
          <mxGeometry x="0.0023" relative="1" as="geometry">
            <mxPoint x="615" y="358" as="sourcePoint" />
            <mxPoint x="467" y="358" as="targetPoint" />
            <Array as="points">
              <mxPoint x="520" y="358" />
              <mxPoint x="500" y="358" />
            </Array>
            <mxPoint as="offset" />
          </mxGeometry>
        </mxCell>
        <mxCell id="qztkcTzE_WuQUr65Bi1w-37" value="null" style="edgeLabel;html=1;align=center;verticalAlign=middle;resizable=0;points=[];fontFamily=Helvetica;fontSize=11;fontColor=default;labelBackgroundColor=default;" parent="qztkcTzE_WuQUr65Bi1w-36" vertex="1" connectable="0">
          <mxGeometry x="-0.0946" relative="1" as="geometry">
            <mxPoint x="-6" y="-10" as="offset" />
          </mxGeometry>
        </mxCell>
        <mxCell id="qztkcTzE_WuQUr65Bi1w-38" value="" style="html=1;points=[];perimeter=orthogonalPerimeter;labelBackgroundColor=none;strokeColor=#000000;fontFamily=Helvetica;fontSize=11;fontColor=default;fillColor=default;" parent="qztkcTzE_WuQUr65Bi1w-1" vertex="1">
          <mxGeometry x="455" y="340" width="10" height="40" as="geometry" />
        </mxCell>
        <mxCell id="qztkcTzE_WuQUr65Bi1w-39" value="Ответ 401&amp;nbsp;" style="html=1;verticalAlign=bottom;endArrow=open;dashed=1;endSize=8;rounded=0;labelBackgroundColor=default;strokeColor=default;fontFamily=Helvetica;fontSize=11;fontColor=default;shape=connector;curved=0;" parent="qztkcTzE_WuQUr65Bi1w-1" edge="1">
          <mxGeometry x="0.0023" relative="1" as="geometry">
            <mxPoint x="455" y="369.31000000000006" as="sourcePoint" />
            <mxPoint x="145" y="369.31000000000006" as="targetPoint" />
            <Array as="points">
              <mxPoint x="340" y="369.31000000000006" />
            </Array>
            <mxPoint as="offset" />
          </mxGeometry>
        </mxCell>
        <mxCell id="qztkcTzE_WuQUr65Bi1w-40" value="" style="html=1;points=[];perimeter=orthogonalPerimeter;labelBackgroundColor=none;strokeColor=#000000;fontFamily=Helvetica;fontSize=11;fontColor=default;fillColor=default;" parent="qztkcTzE_WuQUr65Bi1w-1" vertex="1">
          <mxGeometry x="135" y="340" width="10" height="40" as="geometry" />
        </mxCell>
        <mxCell id="qztkcTzE_WuQUr65Bi1w-41" value="" style="endArrow=none;dashed=1;html=1;rounded=0;labelBackgroundColor=default;strokeColor=#d6b656;fontFamily=Helvetica;fontSize=11;fontColor=default;shape=connector;curved=0;fillColor=#fff2cc;" parent="qztkcTzE_WuQUr65Bi1w-1" target="qztkcTzE_WuQUr65Bi1w-42" edge="1">
          <mxGeometry width="50" height="50" relative="1" as="geometry">
            <mxPoint x="140" y="500" as="sourcePoint" />
            <mxPoint x="139.66" y="440" as="targetPoint" />
            <Array as="points" />
          </mxGeometry>
        </mxCell>
        <mxCell id="qztkcTzE_WuQUr65Bi1w-42" value="" style="ellipse;html=1;shape=endState;fillColor=#000000;strokeColor=#ff0000;labelBackgroundColor=none;fontFamily=Helvetica;fontSize=11;fontColor=default;" parent="qztkcTzE_WuQUr65Bi1w-1" vertex="1">
          <mxGeometry x="125" y="490" width="30" height="30" as="geometry" />
        </mxCell>
      </root>
    </mxGraphModel>
  </diagram>
  <diagram id="5hUY4a6rSRuAbn3xXfLv" name="🧩Общ: валид">
    <mxGraphModel dx="935" dy="842" grid="1" gridSize="10" guides="1" tooltips="1" connect="1" arrows="1" fold="1" page="1" pageScale="1" pageWidth="827" pageHeight="1169" math="0" shadow="0">
      <root>
        <mxCell id="0" />
        <mxCell id="1" parent="0" />
        <mxCell id="riDGh7yEwTsQt_LezZqx-1" value="Пользователь" style="shape=umlLifeline;perimeter=lifelinePerimeter;whiteSpace=wrap;html=1;container=0;collapsible=0;recursiveResize=0;outlineConnect=0;labelBackgroundColor=none;strokeColor=#d6b656;fontFamily=Helvetica;fontSize=11;fillColor=#fff2cc;" parent="1" vertex="1">
          <mxGeometry x="80" y="40" width="120" height="340" as="geometry" />
        </mxCell>
        <mxCell id="riDGh7yEwTsQt_LezZqx-2" value="Валидные" style="shape=umlFrame;whiteSpace=wrap;html=1;labelBackgroundColor=none;strokeColor=#2D7600;fontFamily=Helvetica;fontSize=11;fillColor=#60a917;fontColor=#ffffff;width=80;height=30;" parent="1" vertex="1">
          <mxGeometry x="40" y="200" width="400" height="120" as="geometry" />
        </mxCell>
        <mxCell id="riDGh7yEwTsQt_LezZqx-6" value="Система" style="shape=umlLifeline;perimeter=lifelinePerimeter;whiteSpace=wrap;html=1;container=1;collapsible=0;recursiveResize=0;outlineConnect=0;labelBackgroundColor=none;strokeColor=#9673a6;fontFamily=Helvetica;fontSize=11;fillColor=#e1d5e7;" parent="1" vertex="1">
          <mxGeometry x="240" y="40" width="120" height="360" as="geometry" />
        </mxCell>
        <mxCell id="riDGh7yEwTsQt_LezZqx-7" value="" style="html=1;points=[];perimeter=orthogonalPerimeter;labelBackgroundColor=none;strokeColor=#000000;fontFamily=Helvetica;fontSize=11;fontColor=default;fillColor=default;" parent="riDGh7yEwTsQt_LezZqx-6" vertex="1">
          <mxGeometry x="55" y="90" width="10" height="140" as="geometry" />
        </mxCell>
        <mxCell id="riDGh7yEwTsQt_LezZqx-10" value="" style="html=1;points=[];perimeter=orthogonalPerimeter;labelBackgroundColor=none;fontFamily=Helvetica;fontSize=11;" parent="riDGh7yEwTsQt_LezZqx-6" vertex="1">
          <mxGeometry x="60" y="130" width="10" height="20" as="geometry" />
        </mxCell>
        <mxCell id="riDGh7yEwTsQt_LezZqx-26" value="" style="ellipse;html=1;shape=endState;labelBackgroundColor=none;fontFamily=Helvetica;fontSize=11;fillColor=#0050ef;fontColor=#ffffff;strokeColor=#001DBC;" parent="riDGh7yEwTsQt_LezZqx-6" vertex="1">
          <mxGeometry x="45" y="240" width="30" height="30" as="geometry" />
        </mxCell>
        <mxCell id="riDGh7yEwTsQt_LezZqx-15" value="" style="html=1;points=[];perimeter=orthogonalPerimeter;labelBackgroundColor=none;strokeColor=#000000;fontFamily=Helvetica;fontSize=11;fontColor=default;fillColor=default;" parent="riDGh7yEwTsQt_LezZqx-6" vertex="1">
          <mxGeometry x="60" y="200" width="10" height="20" as="geometry" />
        </mxCell>
        <mxCell id="YlrTu9n_gzaqMkhi5yol-4" value="Валидация данных" style="html=1;verticalAlign=bottom;endArrow=block;rounded=0;labelBackgroundColor=default;strokeColor=default;fontFamily=Helvetica;fontSize=11;fontColor=default;shape=connector;curved=0;" parent="riDGh7yEwTsQt_LezZqx-6" edge="1">
          <mxGeometry x="0.0968" width="80" relative="1" as="geometry">
            <mxPoint x="65" y="100" as="sourcePoint" />
            <mxPoint x="70" y="130" as="targetPoint" />
            <Array as="points">
              <mxPoint x="130" y="100" />
              <mxPoint x="130" y="130" />
              <mxPoint x="100" y="130" />
            </Array>
            <mxPoint as="offset" />
          </mxGeometry>
        </mxCell>
        <mxCell id="riDGh7yEwTsQt_LezZqx-11" value="Запрос с данными" style="html=1;verticalAlign=bottom;endArrow=block;rounded=0;labelBackgroundColor=default;strokeColor=default;fontFamily=Helvetica;fontSize=11;fontColor=default;shape=connector;curved=0;" parent="1" source="riDGh7yEwTsQt_LezZqx-12" target="riDGh7yEwTsQt_LezZqx-7" edge="1">
          <mxGeometry x="0.0032" width="80" relative="1" as="geometry">
            <mxPoint x="140" y="140" as="sourcePoint" />
            <mxPoint x="220" y="140" as="targetPoint" />
            <Array as="points">
              <mxPoint x="220" y="130" />
            </Array>
            <mxPoint as="offset" />
          </mxGeometry>
        </mxCell>
        <mxCell id="riDGh7yEwTsQt_LezZqx-12" value="" style="html=1;points=[];perimeter=orthogonalPerimeter;labelBackgroundColor=none;strokeColor=#000000;fontFamily=Helvetica;fontSize=11;fontColor=default;fillColor=default;" parent="1" vertex="1">
          <mxGeometry x="135" y="120" width="10" height="180" as="geometry" />
        </mxCell>
        <mxCell id="riDGh7yEwTsQt_LezZqx-21" value="" style="html=1;points=[];perimeter=orthogonalPerimeter;labelBackgroundColor=none;strokeColor=#000000;fontFamily=Helvetica;fontSize=11;fontColor=default;fillColor=default;" parent="1" vertex="1">
          <mxGeometry x="135" y="320" width="10" height="40" as="geometry" />
        </mxCell>
        <mxCell id="riDGh7yEwTsQt_LezZqx-22" value="" style="html=1;points=[];perimeter=orthogonalPerimeter;labelBackgroundColor=none;strokeColor=#000000;fontFamily=Helvetica;fontSize=11;fontColor=default;fillColor=default;" parent="1" vertex="1">
          <mxGeometry x="295" y="320" width="10" height="40" as="geometry" />
        </mxCell>
        <mxCell id="riDGh7yEwTsQt_LezZqx-23" value="Невалидные" style="shape=umlFrame;whiteSpace=wrap;html=1;labelBackgroundColor=none;strokeColor=#6F0000;fontFamily=Helvetica;fontSize=11;fillColor=#a20025;fontColor=#ffffff;width=80;height=30;" parent="1" vertex="1">
          <mxGeometry x="40" y="320" width="400" height="90" as="geometry" />
        </mxCell>
        <mxCell id="riDGh7yEwTsQt_LezZqx-24" value="" style="ellipse;html=1;shape=endState;fillColor=#000000;strokeColor=#ff0000;labelBackgroundColor=none;fontFamily=Helvetica;fontSize=11;fontColor=default;" parent="1" vertex="1">
          <mxGeometry x="125" y="370" width="30" height="30" as="geometry" />
        </mxCell>
        <mxCell id="riDGh7yEwTsQt_LezZqx-25" value="Ответ 422 с названиями&lt;br&gt;ошибок по полям&amp;nbsp;" style="html=1;verticalAlign=bottom;endArrow=open;dashed=1;endSize=8;rounded=0;labelBackgroundColor=default;strokeColor=default;fontFamily=Helvetica;fontSize=11;fontColor=default;shape=connector;curved=0;" parent="1" source="riDGh7yEwTsQt_LezZqx-22" target="riDGh7yEwTsQt_LezZqx-21" edge="1">
          <mxGeometry x="0.0023" relative="1" as="geometry">
            <mxPoint x="250" y="370" as="sourcePoint" />
            <mxPoint x="150" y="370" as="targetPoint" />
            <Array as="points">
              <mxPoint x="220" y="350" />
            </Array>
            <mxPoint as="offset" />
          </mxGeometry>
        </mxCell>
        <mxCell id="tt8SCKoS6anXERz75l3N-2" value="Продолжение кода" style="html=1;verticalAlign=bottom;endArrow=block;rounded=0;labelBackgroundColor=default;strokeColor=default;fontFamily=Helvetica;fontSize=11;fontColor=default;shape=connector;curved=0;" parent="1" edge="1">
          <mxGeometry x="0.0968" width="80" relative="1" as="geometry">
            <mxPoint x="305" y="210" as="sourcePoint" />
            <mxPoint x="310" y="240" as="targetPoint" />
            <Array as="points">
              <mxPoint x="370" y="210" />
              <mxPoint x="370" y="240" />
              <mxPoint x="340" y="240" />
            </Array>
            <mxPoint as="offset" />
          </mxGeometry>
        </mxCell>
      </root>
    </mxGraphModel>
  </diagram>
  <diagram name="🧩Общ: сущ" id="tLc1tsVoXPclcNPNPsWl">
    <mxGraphModel dx="1428" dy="841" grid="1" gridSize="10" guides="1" tooltips="1" connect="1" arrows="1" fold="1" page="1" pageScale="1" pageWidth="827" pageHeight="1169" math="0" shadow="0">
      <root>
        <mxCell id="isLCfOotdVjY7NT_yNnD-0" />
        <mxCell id="isLCfOotdVjY7NT_yNnD-1" parent="isLCfOotdVjY7NT_yNnD-0" />
        <mxCell id="isLCfOotdVjY7NT_yNnD-2" value="Пользователь" style="shape=umlLifeline;perimeter=lifelinePerimeter;whiteSpace=wrap;html=1;container=0;collapsible=0;recursiveResize=0;outlineConnect=0;labelBackgroundColor=none;strokeColor=#d6b656;fontFamily=Helvetica;fontSize=11;fillColor=#fff2cc;" parent="isLCfOotdVjY7NT_yNnD-1" vertex="1">
          <mxGeometry x="80" y="40" width="120" height="340" as="geometry" />
        </mxCell>
        <mxCell id="isLCfOotdVjY7NT_yNnD-3" value="Найден" style="shape=umlFrame;whiteSpace=wrap;html=1;labelBackgroundColor=none;strokeColor=#2D7600;fontFamily=Helvetica;fontSize=11;fillColor=#60a917;fontColor=#ffffff;width=80;height=30;" parent="isLCfOotdVjY7NT_yNnD-1" vertex="1">
          <mxGeometry x="40" y="170" width="480" height="150" as="geometry" />
        </mxCell>
        <mxCell id="isLCfOotdVjY7NT_yNnD-6" value="Система" style="shape=umlLifeline;perimeter=lifelinePerimeter;whiteSpace=wrap;html=1;container=1;collapsible=0;recursiveResize=0;outlineConnect=0;labelBackgroundColor=none;strokeColor=#9673a6;fontFamily=Helvetica;fontSize=11;fillColor=#e1d5e7;" parent="isLCfOotdVjY7NT_yNnD-1" vertex="1">
          <mxGeometry x="240" y="40" width="120" height="370" as="geometry" />
        </mxCell>
        <mxCell id="isLCfOotdVjY7NT_yNnD-7" value="" style="html=1;points=[];perimeter=orthogonalPerimeter;labelBackgroundColor=none;strokeColor=#000000;fontFamily=Helvetica;fontSize=11;fontColor=default;fillColor=default;" parent="isLCfOotdVjY7NT_yNnD-6" vertex="1">
          <mxGeometry x="55" y="90" width="10" height="140" as="geometry" />
        </mxCell>
        <mxCell id="isLCfOotdVjY7NT_yNnD-9" value="" style="ellipse;html=1;shape=endState;labelBackgroundColor=none;fontFamily=Helvetica;fontSize=11;fillColor=#76608a;fontColor=#ffffff;strokeColor=#432D57;" parent="isLCfOotdVjY7NT_yNnD-6" vertex="1">
          <mxGeometry x="45" y="240" width="30" height="30" as="geometry" />
        </mxCell>
        <mxCell id="isLCfOotdVjY7NT_yNnD-10" value="" style="html=1;points=[];perimeter=orthogonalPerimeter;labelBackgroundColor=none;strokeColor=#000000;fontFamily=Helvetica;fontSize=11;fontColor=default;fillColor=default;" parent="isLCfOotdVjY7NT_yNnD-6" vertex="1">
          <mxGeometry x="60" y="200" width="10" height="20" as="geometry" />
        </mxCell>
        <mxCell id="isLCfOotdVjY7NT_yNnD-11" value="Роут с ИД" style="html=1;verticalAlign=bottom;endArrow=block;rounded=0;labelBackgroundColor=default;strokeColor=default;fontFamily=Helvetica;fontSize=11;fontColor=default;shape=connector;curved=0;" parent="isLCfOotdVjY7NT_yNnD-1" source="isLCfOotdVjY7NT_yNnD-12" target="isLCfOotdVjY7NT_yNnD-7" edge="1">
          <mxGeometry x="0.0032" width="80" relative="1" as="geometry">
            <mxPoint x="140" y="140" as="sourcePoint" />
            <mxPoint x="220" y="140" as="targetPoint" />
            <Array as="points">
              <mxPoint x="220" y="130" />
            </Array>
            <mxPoint as="offset" />
          </mxGeometry>
        </mxCell>
        <mxCell id="isLCfOotdVjY7NT_yNnD-12" value="" style="html=1;points=[];perimeter=orthogonalPerimeter;labelBackgroundColor=none;strokeColor=#000000;fontFamily=Helvetica;fontSize=11;fontColor=default;fillColor=default;" parent="isLCfOotdVjY7NT_yNnD-1" vertex="1">
          <mxGeometry x="135" y="120" width="10" height="180" as="geometry" />
        </mxCell>
        <mxCell id="isLCfOotdVjY7NT_yNnD-13" value="" style="html=1;points=[];perimeter=orthogonalPerimeter;labelBackgroundColor=none;strokeColor=#000000;fontFamily=Helvetica;fontSize=11;fontColor=default;fillColor=default;" parent="isLCfOotdVjY7NT_yNnD-1" vertex="1">
          <mxGeometry x="135" y="320" width="10" height="40" as="geometry" />
        </mxCell>
        <mxCell id="isLCfOotdVjY7NT_yNnD-14" value="" style="html=1;points=[];perimeter=orthogonalPerimeter;labelBackgroundColor=none;strokeColor=#000000;fontFamily=Helvetica;fontSize=11;fontColor=default;fillColor=default;" parent="isLCfOotdVjY7NT_yNnD-1" vertex="1">
          <mxGeometry x="295" y="320" width="10" height="40" as="geometry" />
        </mxCell>
        <mxCell id="isLCfOotdVjY7NT_yNnD-16" value="" style="ellipse;html=1;shape=endState;fillColor=#000000;strokeColor=#ff0000;labelBackgroundColor=none;fontFamily=Helvetica;fontSize=11;fontColor=default;" parent="isLCfOotdVjY7NT_yNnD-1" vertex="1">
          <mxGeometry x="125" y="370" width="30" height="30" as="geometry" />
        </mxCell>
        <mxCell id="isLCfOotdVjY7NT_yNnD-17" value="Ответ 404" style="html=1;verticalAlign=bottom;endArrow=open;dashed=1;endSize=8;rounded=0;labelBackgroundColor=default;strokeColor=default;fontFamily=Helvetica;fontSize=11;fontColor=default;shape=connector;curved=0;" parent="isLCfOotdVjY7NT_yNnD-1" source="isLCfOotdVjY7NT_yNnD-14" target="isLCfOotdVjY7NT_yNnD-13" edge="1">
          <mxGeometry x="0.0023" relative="1" as="geometry">
            <mxPoint x="250" y="370" as="sourcePoint" />
            <mxPoint x="150" y="370" as="targetPoint" />
            <Array as="points">
              <mxPoint x="220" y="350" />
            </Array>
            <mxPoint as="offset" />
          </mxGeometry>
        </mxCell>
        <mxCell id="isLCfOotdVjY7NT_yNnD-18" value="Продолжение запроса &lt;br&gt;со вложенной моделью" style="html=1;verticalAlign=bottom;endArrow=block;rounded=0;labelBackgroundColor=default;strokeColor=default;fontFamily=Helvetica;fontSize=11;fontColor=default;shape=connector;curved=0;" parent="isLCfOotdVjY7NT_yNnD-1" edge="1">
          <mxGeometry x="0.0968" width="80" relative="1" as="geometry">
            <mxPoint x="305" y="210" as="sourcePoint" />
            <mxPoint x="310" y="240" as="targetPoint" />
            <Array as="points">
              <mxPoint x="370" y="210" />
              <mxPoint x="370" y="240" />
              <mxPoint x="340" y="240" />
            </Array>
            <mxPoint as="offset" />
          </mxGeometry>
        </mxCell>
        <mxCell id="6_Ub_GMlniO-7ux3bKTk-0" value="База данных" style="shape=umlLifeline;perimeter=lifelinePerimeter;whiteSpace=wrap;html=1;container=1;collapsible=0;recursiveResize=0;outlineConnect=0;labelBackgroundColor=none;strokeColor=#82b366;fontFamily=Helvetica;fontSize=11;fillColor=#d5e8d4;" parent="isLCfOotdVjY7NT_yNnD-1" vertex="1">
          <mxGeometry x="400" y="40" width="120" height="370" as="geometry" />
        </mxCell>
        <mxCell id="6_Ub_GMlniO-7ux3bKTk-1" value="" style="html=1;points=[];perimeter=orthogonalPerimeter;labelBackgroundColor=none;strokeColor=#000000;fontFamily=Helvetica;fontSize=11;fontColor=default;fillColor=default;" parent="6_Ub_GMlniO-7ux3bKTk-0" vertex="1">
          <mxGeometry x="55" y="100" width="10" height="60" as="geometry" />
        </mxCell>
        <mxCell id="6_Ub_GMlniO-7ux3bKTk-4" value="" style="html=1;points=[];perimeter=orthogonalPerimeter;labelBackgroundColor=none;strokeColor=#000000;fontFamily=Helvetica;fontSize=11;fontColor=default;fillColor=default;" parent="6_Ub_GMlniO-7ux3bKTk-0" vertex="1">
          <mxGeometry x="55" y="280" width="10" height="30" as="geometry" />
        </mxCell>
        <mxCell id="6_Ub_GMlniO-7ux3bKTk-2" value="Поиск по ИД" style="html=1;verticalAlign=bottom;endArrow=block;rounded=0;labelBackgroundColor=default;strokeColor=default;fontFamily=Helvetica;fontSize=11;fontColor=default;shape=connector;curved=0;" parent="isLCfOotdVjY7NT_yNnD-1" source="isLCfOotdVjY7NT_yNnD-7" target="6_Ub_GMlniO-7ux3bKTk-1" edge="1">
          <mxGeometry x="0.0032" width="80" relative="1" as="geometry">
            <mxPoint x="310" y="140" as="sourcePoint" />
            <mxPoint x="305" y="140" as="targetPoint" />
            <Array as="points">
              <mxPoint x="380" y="140" />
            </Array>
            <mxPoint as="offset" />
          </mxGeometry>
        </mxCell>
        <mxCell id="6_Ub_GMlniO-7ux3bKTk-3" value="return" style="html=1;verticalAlign=bottom;endArrow=open;dashed=1;endSize=8;rounded=0;labelBackgroundColor=default;strokeColor=default;fontFamily=Helvetica;fontSize=11;fontColor=default;shape=connector;curved=0;" parent="isLCfOotdVjY7NT_yNnD-1" edge="1">
          <mxGeometry x="0.0023" relative="1" as="geometry">
            <mxPoint x="455" y="190" as="sourcePoint" />
            <mxPoint x="305" y="190" as="targetPoint" />
            <Array as="points">
              <mxPoint x="380" y="190" />
            </Array>
            <mxPoint as="offset" />
          </mxGeometry>
        </mxCell>
        <mxCell id="6_Ub_GMlniO-7ux3bKTk-5" value="null" style="html=1;verticalAlign=bottom;endArrow=open;dashed=1;endSize=8;rounded=0;labelBackgroundColor=default;strokeColor=default;fontFamily=Helvetica;fontSize=11;fontColor=default;shape=connector;curved=0;" parent="isLCfOotdVjY7NT_yNnD-1" source="6_Ub_GMlniO-7ux3bKTk-4" target="isLCfOotdVjY7NT_yNnD-14" edge="1">
          <mxGeometry x="0.0023" relative="1" as="geometry">
            <mxPoint x="465" y="200" as="sourcePoint" />
            <mxPoint x="315" y="200" as="targetPoint" />
            <Array as="points">
              <mxPoint x="380" y="340" />
            </Array>
            <mxPoint as="offset" />
          </mxGeometry>
        </mxCell>
        <mxCell id="isLCfOotdVjY7NT_yNnD-15" value="Не найден" style="shape=umlFrame;whiteSpace=wrap;html=1;labelBackgroundColor=none;strokeColor=#6F0000;fontFamily=Helvetica;fontSize=11;fillColor=#a20025;fontColor=#ffffff;width=80;height=30;" parent="isLCfOotdVjY7NT_yNnD-1" vertex="1">
          <mxGeometry x="40" y="320" width="480" height="90" as="geometry" />
        </mxCell>
      </root>
    </mxGraphModel>
  </diagram>
  <diagram name="🙍Auth: регист" id="QpnwPIb1PToDXOjvijH9">
    <mxGraphModel dx="816" dy="481" grid="0" gridSize="10" guides="1" tooltips="1" connect="1" arrows="1" fold="1" page="1" pageScale="1" pageWidth="827" pageHeight="1169" math="0" shadow="0">
      <root>
        <mxCell id="0" />
        <mxCell id="1" parent="0" />
        <mxCell id="ZyQa1MiQALtBTNMkS7W8-4" value="Система" style="shape=umlLifeline;perimeter=lifelinePerimeter;whiteSpace=wrap;html=1;container=1;collapsible=0;recursiveResize=0;outlineConnect=0;labelBackgroundColor=none;strokeColor=#9673a6;fontFamily=Helvetica;fontSize=11;fillColor=#e1d5e7;" parent="1" vertex="1">
          <mxGeometry x="200" y="40" width="120" height="370" as="geometry" />
        </mxCell>
        <mxCell id="ZyQa1MiQALtBTNMkS7W8-10" value="Валидация данных&lt;br&gt;(Общее: валид)" style="html=1;verticalAlign=bottom;endArrow=block;rounded=0;labelBackgroundColor=default;strokeColor=default;fontFamily=Helvetica;fontSize=11;fontColor=default;shape=connector;curved=0;" parent="ZyQa1MiQALtBTNMkS7W8-4" source="ZyQa1MiQALtBTNMkS7W8-5" target="ZyQa1MiQALtBTNMkS7W8-28" edge="1">
          <mxGeometry x="0.0945" width="80" relative="1" as="geometry">
            <mxPoint x="64" y="110" as="sourcePoint" />
            <mxPoint x="130" y="150" as="targetPoint" />
            <Array as="points">
              <mxPoint x="130" y="100" />
              <mxPoint x="130" y="130" />
              <mxPoint x="100" y="130" />
            </Array>
            <mxPoint as="offset" />
          </mxGeometry>
        </mxCell>
        <mxCell id="ZyQa1MiQALtBTNMkS7W8-5" value="" style="html=1;points=[];perimeter=orthogonalPerimeter;labelBackgroundColor=none;strokeColor=#000000;fontFamily=Helvetica;fontSize=11;fontColor=default;fillColor=default;" parent="ZyQa1MiQALtBTNMkS7W8-4" vertex="1">
          <mxGeometry x="55" y="90" width="10" height="110" as="geometry" />
        </mxCell>
        <mxCell id="ZyQa1MiQALtBTNMkS7W8-28" value="" style="html=1;points=[];perimeter=orthogonalPerimeter;labelBackgroundColor=none;strokeColor=#001DBC;fontFamily=Helvetica;fontSize=11;fontColor=#ffffff;fillColor=#0050ef;" parent="ZyQa1MiQALtBTNMkS7W8-4" vertex="1">
          <mxGeometry x="60" y="130" width="10" height="20" as="geometry" />
        </mxCell>
        <mxCell id="ZyQa1MiQALtBTNMkS7W8-2" value="Пользователь" style="shape=umlLifeline;perimeter=lifelinePerimeter;whiteSpace=wrap;html=1;container=1;collapsible=0;recursiveResize=0;outlineConnect=0;labelBackgroundColor=none;strokeColor=#d6b656;fontFamily=Helvetica;fontSize=11;fillColor=#fff2cc;" parent="1" vertex="1">
          <mxGeometry x="40" y="40" width="120" height="360" as="geometry" />
        </mxCell>
        <mxCell id="ZyQa1MiQALtBTNMkS7W8-3" value="" style="html=1;points=[];perimeter=orthogonalPerimeter;labelBackgroundColor=none;strokeColor=#000000;fontFamily=Helvetica;fontSize=11;fontColor=default;fillColor=default;" parent="ZyQa1MiQALtBTNMkS7W8-2" vertex="1">
          <mxGeometry x="55" y="80" width="10" height="260" as="geometry" />
        </mxCell>
        <mxCell id="ZyQa1MiQALtBTNMkS7W8-7" value="Запрос регистрации" style="html=1;verticalAlign=bottom;endArrow=block;rounded=0;labelBackgroundColor=default;strokeColor=default;fontFamily=Helvetica;fontSize=11;fontColor=default;shape=connector;curved=0;" parent="1" source="ZyQa1MiQALtBTNMkS7W8-3" target="ZyQa1MiQALtBTNMkS7W8-5" edge="1">
          <mxGeometry x="0.0032" width="80" relative="1" as="geometry">
            <mxPoint x="100" y="140" as="sourcePoint" />
            <mxPoint x="180" y="140" as="targetPoint" />
            <Array as="points">
              <mxPoint x="180" y="130" />
            </Array>
            <mxPoint as="offset" />
          </mxGeometry>
        </mxCell>
        <mxCell id="ZyQa1MiQALtBTNMkS7W8-8" value="Компонент аутентификации" style="shape=umlLifeline;perimeter=lifelinePerimeter;whiteSpace=wrap;html=1;container=1;collapsible=0;recursiveResize=0;outlineConnect=0;labelBackgroundColor=none;strokeColor=#BD7000;fontFamily=Helvetica;fontSize=11;fillColor=#f0a30a;fontColor=#000000;" parent="1" vertex="1">
          <mxGeometry x="360" y="40" width="120" height="370" as="geometry" />
        </mxCell>
        <mxCell id="ZyQa1MiQALtBTNMkS7W8-9" value="" style="html=1;points=[];perimeter=orthogonalPerimeter;labelBackgroundColor=none;strokeColor=#000000;fontFamily=Helvetica;fontSize=11;fontColor=default;fillColor=default;" parent="ZyQa1MiQALtBTNMkS7W8-8" vertex="1">
          <mxGeometry x="55" y="190.75" width="10" height="149.25" as="geometry" />
        </mxCell>
        <mxCell id="ZyQa1MiQALtBTNMkS7W8-29" value="" style="html=1;points=[];perimeter=orthogonalPerimeter;labelBackgroundColor=none;strokeColor=#000000;fontFamily=Helvetica;fontSize=11;fontColor=default;fillColor=default;" parent="ZyQa1MiQALtBTNMkS7W8-8" vertex="1">
          <mxGeometry x="60" y="270" width="10" height="20" as="geometry" />
        </mxCell>
        <mxCell id="ZyQa1MiQALtBTNMkS7W8-30" value="Генерация токена" style="html=1;verticalAlign=bottom;endArrow=block;rounded=0;labelBackgroundColor=default;strokeColor=default;fontFamily=Helvetica;fontSize=11;fontColor=default;shape=connector;curved=0;" parent="ZyQa1MiQALtBTNMkS7W8-8" target="ZyQa1MiQALtBTNMkS7W8-29" edge="1">
          <mxGeometry x="0.0968" width="80" relative="1" as="geometry">
            <mxPoint x="64.99999999999977" y="239.9999999999999" as="sourcePoint" />
            <mxPoint x="135" y="290" as="targetPoint" />
            <Array as="points">
              <mxPoint x="135" y="240" />
              <mxPoint x="135" y="270" />
              <mxPoint x="105" y="270" />
            </Array>
            <mxPoint as="offset" />
          </mxGeometry>
        </mxCell>
        <mxCell id="ZyQa1MiQALtBTNMkS7W8-32" value="Отправка данных" style="html=1;verticalAlign=bottom;endArrow=block;rounded=0;labelBackgroundColor=default;strokeColor=default;fontFamily=Helvetica;fontSize=11;fontColor=default;shape=connector;curved=0;" parent="ZyQa1MiQALtBTNMkS7W8-8" edge="1">
          <mxGeometry x="0.0032" width="80" relative="1" as="geometry">
            <mxPoint x="-95" y="190" as="sourcePoint" />
            <mxPoint x="55" y="190" as="targetPoint" />
            <Array as="points">
              <mxPoint x="-20" y="190" />
            </Array>
            <mxPoint as="offset" />
          </mxGeometry>
        </mxCell>
        <mxCell id="ZyQa1MiQALtBTNMkS7W8-11" value="База данных" style="shape=umlLifeline;perimeter=lifelinePerimeter;whiteSpace=wrap;html=1;container=1;collapsible=0;recursiveResize=0;outlineConnect=0;labelBackgroundColor=none;strokeColor=#82b366;fontFamily=Helvetica;fontSize=11;fillColor=#d5e8d4;" parent="1" vertex="1">
          <mxGeometry x="520" y="40" width="120" height="370" as="geometry" />
        </mxCell>
        <mxCell id="ZyQa1MiQALtBTNMkS7W8-12" value="" style="html=1;points=[];perimeter=orthogonalPerimeter;labelBackgroundColor=none;strokeColor=#000000;fontFamily=Helvetica;fontSize=11;fontColor=default;fillColor=default;" parent="ZyQa1MiQALtBTNMkS7W8-11" vertex="1">
          <mxGeometry x="55" y="200" width="10" height="30" as="geometry" />
        </mxCell>
        <mxCell id="ZyQa1MiQALtBTNMkS7W8-35" value="" style="html=1;points=[];perimeter=orthogonalPerimeter;labelBackgroundColor=none;strokeColor=#000000;fontFamily=Helvetica;fontSize=11;fontColor=default;fillColor=default;" parent="ZyQa1MiQALtBTNMkS7W8-11" vertex="1">
          <mxGeometry x="55" y="300" width="10" height="30" as="geometry" />
        </mxCell>
        <mxCell id="ZyQa1MiQALtBTNMkS7W8-36" value="Запись токена" style="html=1;verticalAlign=bottom;endArrow=block;rounded=0;labelBackgroundColor=default;strokeColor=default;fontFamily=Helvetica;fontSize=11;fontColor=default;shape=connector;curved=0;" parent="ZyQa1MiQALtBTNMkS7W8-11" edge="1">
          <mxGeometry x="0.0032" width="80" relative="1" as="geometry">
            <mxPoint x="-95" y="300" as="sourcePoint" />
            <mxPoint x="55" y="300" as="targetPoint" />
            <Array as="points">
              <mxPoint x="-20" y="300" />
            </Array>
            <mxPoint as="offset" />
          </mxGeometry>
        </mxCell>
        <mxCell id="ZyQa1MiQALtBTNMkS7W8-6" value="" style="ellipse;html=1;shape=endState;fillColor=#000000;strokeColor=#ff0000;labelBackgroundColor=none;fontFamily=Helvetica;fontSize=11;fontColor=default;" parent="1" vertex="1">
          <mxGeometry x="85" y="390" width="30" height="30" as="geometry" />
        </mxCell>
        <mxCell id="ZyQa1MiQALtBTNMkS7W8-33" value="Запись пользователя" style="html=1;verticalAlign=bottom;endArrow=block;rounded=0;labelBackgroundColor=default;strokeColor=default;fontFamily=Helvetica;fontSize=11;fontColor=default;shape=connector;curved=0;" parent="1" edge="1">
          <mxGeometry x="0.0032" width="80" relative="1" as="geometry">
            <mxPoint x="425" y="240" as="sourcePoint" />
            <mxPoint x="575" y="240" as="targetPoint" />
            <Array as="points" />
            <mxPoint as="offset" />
          </mxGeometry>
        </mxCell>
        <mxCell id="ZyQa1MiQALtBTNMkS7W8-34" value="ID пользователя" style="html=1;verticalAlign=bottom;endArrow=open;dashed=1;endSize=8;rounded=0;labelBackgroundColor=default;strokeColor=default;fontFamily=Helvetica;fontSize=11;fontColor=default;shape=connector;curved=0;" parent="1" edge="1">
          <mxGeometry x="0.0023" relative="1" as="geometry">
            <mxPoint x="573" y="260" as="sourcePoint" />
            <mxPoint x="425" y="260" as="targetPoint" />
            <Array as="points">
              <mxPoint x="478" y="260" />
              <mxPoint x="458" y="260" />
            </Array>
            <mxPoint as="offset" />
          </mxGeometry>
        </mxCell>
        <mxCell id="ZyQa1MiQALtBTNMkS7W8-37" value="return" style="html=1;verticalAlign=bottom;endArrow=open;dashed=1;endSize=8;rounded=0;labelBackgroundColor=default;strokeColor=default;fontFamily=Helvetica;fontSize=11;fontColor=default;shape=connector;curved=0;" parent="1" source="ZyQa1MiQALtBTNMkS7W8-35" target="ZyQa1MiQALtBTNMkS7W8-9" edge="1">
          <mxGeometry x="0.0023" relative="1" as="geometry">
            <mxPoint x="580" y="360" as="sourcePoint" />
            <mxPoint x="427" y="354.65999999999997" as="targetPoint" />
            <Array as="points">
              <mxPoint x="460" y="360" />
            </Array>
            <mxPoint as="offset" />
          </mxGeometry>
        </mxCell>
        <mxCell id="ZyQa1MiQALtBTNMkS7W8-38" value="Ответ 201 с токеном &lt;br&gt;и данными пользователя&amp;nbsp;" style="html=1;verticalAlign=bottom;endArrow=open;dashed=1;endSize=8;rounded=0;labelBackgroundColor=default;strokeColor=default;fontFamily=Helvetica;fontSize=11;fontColor=default;shape=connector;curved=0;" parent="1" source="ZyQa1MiQALtBTNMkS7W8-9" target="ZyQa1MiQALtBTNMkS7W8-3" edge="1">
          <mxGeometry x="0.0023" relative="1" as="geometry">
            <mxPoint x="420" y="370" as="sourcePoint" />
            <mxPoint x="265" y="370" as="targetPoint" />
            <Array as="points">
              <mxPoint x="300" y="370" />
            </Array>
            <mxPoint as="offset" />
          </mxGeometry>
        </mxCell>
      </root>
    </mxGraphModel>
  </diagram>
  <diagram name="🙍Auth: вход" id="6tWZORZpQ4TablFQ58kX">
    <mxGraphModel dx="1190" dy="701" grid="0" gridSize="10" guides="1" tooltips="1" connect="1" arrows="1" fold="1" page="1" pageScale="1" pageWidth="827" pageHeight="1169" math="0" shadow="0">
      <root>
        <mxCell id="xr28nWPG8yyI2F2qxfWe-0" />
        <mxCell id="xr28nWPG8yyI2F2qxfWe-1" parent="xr28nWPG8yyI2F2qxfWe-0" />
        <mxCell id="xr28nWPG8yyI2F2qxfWe-3" value="Найден по логину" style="shape=umlFrame;whiteSpace=wrap;html=1;labelBackgroundColor=none;strokeColor=#2D7600;fontFamily=Helvetica;fontSize=11;fillColor=#60a917;fontColor=#ffffff;width=80;height=27;" parent="xr28nWPG8yyI2F2qxfWe-1" vertex="1">
          <mxGeometry x="30" y="250" width="640" height="360" as="geometry" />
        </mxCell>
        <mxCell id="xr28nWPG8yyI2F2qxfWe-4" value="Пароль совпадает" style="shape=umlFrame;whiteSpace=wrap;html=1;labelBackgroundColor=none;strokeColor=#2D7600;fontFamily=Helvetica;fontSize=11;fillColor=#60a917;fontColor=#ffffff;width=80;height=27;" parent="xr28nWPG8yyI2F2qxfWe-1" vertex="1">
          <mxGeometry x="40" y="350" width="620" height="170" as="geometry" />
        </mxCell>
        <mxCell id="xr28nWPG8yyI2F2qxfWe-5" value="Пользователь" style="shape=umlLifeline;perimeter=lifelinePerimeter;whiteSpace=wrap;html=1;container=1;collapsible=0;recursiveResize=0;outlineConnect=0;labelBackgroundColor=none;strokeColor=#d6b656;fontFamily=Helvetica;fontSize=11;fillColor=#fff2cc;" parent="xr28nWPG8yyI2F2qxfWe-1" vertex="1">
          <mxGeometry x="80" y="40" width="120" height="660" as="geometry" />
        </mxCell>
        <mxCell id="xr28nWPG8yyI2F2qxfWe-6" value="" style="html=1;points=[];perimeter=orthogonalPerimeter;labelBackgroundColor=none;strokeColor=#000000;fontFamily=Helvetica;fontSize=11;fontColor=default;fillColor=default;" parent="xr28nWPG8yyI2F2qxfWe-5" vertex="1">
          <mxGeometry x="55" y="80" width="10" height="350" as="geometry" />
        </mxCell>
        <mxCell id="xr28nWPG8yyI2F2qxfWe-7" value="" style="ellipse;html=1;shape=endState;fillColor=#000000;strokeColor=#ff0000;labelBackgroundColor=none;fontFamily=Helvetica;fontSize=11;fontColor=default;" parent="xr28nWPG8yyI2F2qxfWe-5" vertex="1">
          <mxGeometry x="45" y="440" width="30" height="30" as="geometry" />
        </mxCell>
        <mxCell id="xr28nWPG8yyI2F2qxfWe-9" value="Не найден по логину" style="shape=umlFrame;whiteSpace=wrap;html=1;labelBackgroundColor=none;strokeColor=#6F0000;fontFamily=Helvetica;fontSize=11;fillColor=#a20025;fontColor=#ffffff;width=80;height=27;" parent="xr28nWPG8yyI2F2qxfWe-1" vertex="1">
          <mxGeometry x="30" y="610" width="640" height="90" as="geometry" />
        </mxCell>
        <mxCell id="xr28nWPG8yyI2F2qxfWe-11" value="Система" style="shape=umlLifeline;perimeter=lifelinePerimeter;whiteSpace=wrap;html=1;container=1;collapsible=0;recursiveResize=0;outlineConnect=0;labelBackgroundColor=none;strokeColor=#9673a6;fontFamily=Helvetica;fontSize=11;fillColor=#e1d5e7;" parent="xr28nWPG8yyI2F2qxfWe-1" vertex="1">
          <mxGeometry x="240" y="40" width="120" height="660" as="geometry" />
        </mxCell>
        <mxCell id="xr28nWPG8yyI2F2qxfWe-12" value="Валидация данных&lt;br&gt;(Общее: валид)" style="html=1;verticalAlign=bottom;endArrow=block;rounded=0;labelBackgroundColor=default;strokeColor=default;fontFamily=Helvetica;fontSize=11;fontColor=default;shape=connector;curved=0;" parent="xr28nWPG8yyI2F2qxfWe-11" source="xr28nWPG8yyI2F2qxfWe-13" target="xr28nWPG8yyI2F2qxfWe-14" edge="1">
          <mxGeometry x="0.0968" width="80" relative="1" as="geometry">
            <mxPoint x="64" y="110" as="sourcePoint" />
            <mxPoint x="130" y="150" as="targetPoint" />
            <Array as="points">
              <mxPoint x="130" y="100" />
              <mxPoint x="130" y="130" />
              <mxPoint x="100" y="130" />
            </Array>
            <mxPoint as="offset" />
          </mxGeometry>
        </mxCell>
        <mxCell id="xr28nWPG8yyI2F2qxfWe-13" value="" style="html=1;points=[];perimeter=orthogonalPerimeter;labelBackgroundColor=none;strokeColor=#000000;fontFamily=Helvetica;fontSize=11;fontColor=default;fillColor=default;" parent="xr28nWPG8yyI2F2qxfWe-11" vertex="1">
          <mxGeometry x="55" y="90" width="10" height="110" as="geometry" />
        </mxCell>
        <mxCell id="xr28nWPG8yyI2F2qxfWe-14" value="" style="html=1;points=[];perimeter=orthogonalPerimeter;labelBackgroundColor=none;strokeColor=#001DBC;fontFamily=Helvetica;fontSize=11;fontColor=#ffffff;fillColor=#0050ef;" parent="xr28nWPG8yyI2F2qxfWe-11" vertex="1">
          <mxGeometry x="60" y="130" width="10" height="20" as="geometry" />
        </mxCell>
        <mxCell id="xr28nWPG8yyI2F2qxfWe-16" value="Запрос авторизации" style="html=1;verticalAlign=bottom;endArrow=block;rounded=0;labelBackgroundColor=default;strokeColor=default;fontFamily=Helvetica;fontSize=11;fontColor=default;shape=connector;curved=0;" parent="xr28nWPG8yyI2F2qxfWe-1" source="xr28nWPG8yyI2F2qxfWe-6" target="xr28nWPG8yyI2F2qxfWe-13" edge="1">
          <mxGeometry x="0.0032" width="80" relative="1" as="geometry">
            <mxPoint x="140" y="140" as="sourcePoint" />
            <mxPoint x="220" y="140" as="targetPoint" />
            <Array as="points">
              <mxPoint x="220" y="130" />
            </Array>
            <mxPoint as="offset" />
          </mxGeometry>
        </mxCell>
        <mxCell id="xr28nWPG8yyI2F2qxfWe-17" value="Компонент аутентификации" style="shape=umlLifeline;perimeter=lifelinePerimeter;whiteSpace=wrap;html=1;container=1;collapsible=0;recursiveResize=0;outlineConnect=0;labelBackgroundColor=none;strokeColor=#BD7000;fontFamily=Helvetica;fontSize=11;fillColor=#f0a30a;fontColor=#000000;" parent="xr28nWPG8yyI2F2qxfWe-1" vertex="1">
          <mxGeometry x="400" y="40" width="120" height="660" as="geometry" />
        </mxCell>
        <mxCell id="xr28nWPG8yyI2F2qxfWe-18" value="" style="html=1;points=[];perimeter=orthogonalPerimeter;labelBackgroundColor=none;strokeColor=#000000;fontFamily=Helvetica;fontSize=11;fontColor=default;fillColor=default;" parent="xr28nWPG8yyI2F2qxfWe-17" vertex="1">
          <mxGeometry x="55" y="190.75" width="10" height="239.25" as="geometry" />
        </mxCell>
        <mxCell id="xr28nWPG8yyI2F2qxfWe-19" value="Отправка данных" style="html=1;verticalAlign=bottom;endArrow=block;rounded=0;labelBackgroundColor=default;strokeColor=default;fontFamily=Helvetica;fontSize=11;fontColor=default;shape=connector;curved=0;" parent="xr28nWPG8yyI2F2qxfWe-17" edge="1">
          <mxGeometry x="0.0032" width="80" relative="1" as="geometry">
            <mxPoint x="-95" y="190" as="sourcePoint" />
            <mxPoint x="55" y="190" as="targetPoint" />
            <Array as="points">
              <mxPoint x="-20" y="190" />
            </Array>
            <mxPoint as="offset" />
          </mxGeometry>
        </mxCell>
        <mxCell id="xr28nWPG8yyI2F2qxfWe-20" value="База данных" style="shape=umlLifeline;perimeter=lifelinePerimeter;whiteSpace=wrap;html=1;container=1;collapsible=0;recursiveResize=0;outlineConnect=0;labelBackgroundColor=none;strokeColor=#82b366;fontFamily=Helvetica;fontSize=11;fillColor=#d5e8d4;" parent="xr28nWPG8yyI2F2qxfWe-1" vertex="1">
          <mxGeometry x="560" y="40" width="120" height="660" as="geometry" />
        </mxCell>
        <mxCell id="xr28nWPG8yyI2F2qxfWe-21" value="" style="html=1;points=[];perimeter=orthogonalPerimeter;labelBackgroundColor=none;strokeColor=#000000;fontFamily=Helvetica;fontSize=11;fontColor=default;fillColor=default;" parent="xr28nWPG8yyI2F2qxfWe-20" vertex="1">
          <mxGeometry x="55" y="200" width="10" height="70" as="geometry" />
        </mxCell>
        <mxCell id="xr28nWPG8yyI2F2qxfWe-22" value="Поиск по логину" style="html=1;verticalAlign=bottom;endArrow=block;rounded=0;labelBackgroundColor=default;strokeColor=default;fontFamily=Helvetica;fontSize=11;fontColor=default;shape=connector;curved=0;" parent="xr28nWPG8yyI2F2qxfWe-1" edge="1">
          <mxGeometry x="0.0032" width="80" relative="1" as="geometry">
            <mxPoint x="465" y="240" as="sourcePoint" />
            <mxPoint x="615" y="240" as="targetPoint" />
            <Array as="points" />
            <mxPoint as="offset" />
          </mxGeometry>
        </mxCell>
        <mxCell id="xr28nWPG8yyI2F2qxfWe-24" value="Ответ 200 с токеном &lt;br&gt;и данными пользователя (с ролью)&amp;nbsp;" style="html=1;verticalAlign=bottom;endArrow=open;dashed=1;endSize=8;rounded=0;labelBackgroundColor=default;strokeColor=default;fontFamily=Helvetica;fontSize=11;fontColor=default;shape=connector;curved=0;" parent="xr28nWPG8yyI2F2qxfWe-1" edge="1">
          <mxGeometry x="0.0023" relative="1" as="geometry">
            <mxPoint x="455" y="460" as="sourcePoint" />
            <mxPoint x="145" y="460" as="targetPoint" />
            <Array as="points">
              <mxPoint x="340" y="460" />
            </Array>
            <mxPoint as="offset" />
          </mxGeometry>
        </mxCell>
        <mxCell id="xr28nWPG8yyI2F2qxfWe-25" value="" style="html=1;verticalAlign=bottom;endArrow=open;dashed=1;endSize=8;rounded=0;labelBackgroundColor=default;strokeColor=default;fontFamily=Helvetica;fontSize=11;fontColor=default;shape=connector;curved=0;" parent="xr28nWPG8yyI2F2qxfWe-1" edge="1">
          <mxGeometry x="0.0023" relative="1" as="geometry">
            <mxPoint x="613" y="270" as="sourcePoint" />
            <mxPoint x="465" y="270" as="targetPoint" />
            <Array as="points">
              <mxPoint x="518" y="270" />
              <mxPoint x="498" y="270" />
            </Array>
            <mxPoint as="offset" />
          </mxGeometry>
        </mxCell>
        <mxCell id="xr28nWPG8yyI2F2qxfWe-26" value="Возвращение пользователя" style="edgeLabel;html=1;align=center;verticalAlign=middle;resizable=0;points=[];fontFamily=Helvetica;fontSize=11;fontColor=default;labelBackgroundColor=default;" parent="xr28nWPG8yyI2F2qxfWe-25" vertex="1" connectable="0">
          <mxGeometry x="-0.0946" relative="1" as="geometry">
            <mxPoint x="-6" y="-10" as="offset" />
          </mxGeometry>
        </mxCell>
        <mxCell id="xr28nWPG8yyI2F2qxfWe-27" value="Проверка пароля&lt;br&gt;&amp;nbsp;с хешем в БД" style="html=1;verticalAlign=bottom;endArrow=block;rounded=0;labelBackgroundColor=default;strokeColor=default;fontFamily=Helvetica;fontSize=11;fontColor=default;shape=connector;curved=0;" parent="xr28nWPG8yyI2F2qxfWe-1" target="xr28nWPG8yyI2F2qxfWe-28" edge="1">
          <mxGeometry x="0.0968" width="80" relative="1" as="geometry">
            <mxPoint x="465" y="290" as="sourcePoint" />
            <mxPoint x="530" y="340" as="targetPoint" />
            <Array as="points">
              <mxPoint x="530" y="290" />
              <mxPoint x="530" y="320" />
              <mxPoint x="500" y="320" />
            </Array>
            <mxPoint as="offset" />
          </mxGeometry>
        </mxCell>
        <mxCell id="xr28nWPG8yyI2F2qxfWe-28" value="" style="html=1;points=[];perimeter=orthogonalPerimeter;labelBackgroundColor=none;strokeColor=#000000;fontFamily=Helvetica;fontSize=11;fontColor=default;fillColor=default;" parent="xr28nWPG8yyI2F2qxfWe-1" vertex="1">
          <mxGeometry x="460" y="320" width="10" height="20" as="geometry" />
        </mxCell>
        <mxCell id="xr28nWPG8yyI2F2qxfWe-29" value="Пароль не совпадает" style="shape=umlFrame;whiteSpace=wrap;html=1;labelBackgroundColor=none;strokeColor=#6F0000;fontFamily=Helvetica;fontSize=11;fillColor=#a20025;fontColor=#ffffff;width=80;height=27;" parent="xr28nWPG8yyI2F2qxfWe-1" vertex="1">
          <mxGeometry x="40" y="520" width="620" height="80" as="geometry" />
        </mxCell>
        <mxCell id="xr28nWPG8yyI2F2qxfWe-30" value="" style="html=1;points=[];perimeter=orthogonalPerimeter;labelBackgroundColor=none;strokeColor=#000000;fontFamily=Helvetica;fontSize=11;fontColor=default;fillColor=default;" parent="xr28nWPG8yyI2F2qxfWe-1" vertex="1">
          <mxGeometry x="135" y="520" width="10" height="30" as="geometry" />
        </mxCell>
        <mxCell id="xr28nWPG8yyI2F2qxfWe-31" value="" style="ellipse;html=1;shape=endState;fillColor=#000000;strokeColor=#ff0000;labelBackgroundColor=none;fontFamily=Helvetica;fontSize=11;fontColor=default;" parent="xr28nWPG8yyI2F2qxfWe-1" vertex="1">
          <mxGeometry x="125" y="560" width="30" height="30" as="geometry" />
        </mxCell>
        <mxCell id="xr28nWPG8yyI2F2qxfWe-32" value="Ответ 401&amp;nbsp;" style="html=1;verticalAlign=bottom;endArrow=open;dashed=1;endSize=8;rounded=0;labelBackgroundColor=default;strokeColor=default;fontFamily=Helvetica;fontSize=11;fontColor=default;shape=connector;curved=0;" parent="xr28nWPG8yyI2F2qxfWe-1" edge="1">
          <mxGeometry x="0.0023" relative="1" as="geometry">
            <mxPoint x="455" y="539.6600000000001" as="sourcePoint" />
            <mxPoint x="145" y="539.6600000000001" as="targetPoint" />
            <Array as="points">
              <mxPoint x="340" y="539.6600000000001" />
            </Array>
            <mxPoint as="offset" />
          </mxGeometry>
        </mxCell>
        <mxCell id="xr28nWPG8yyI2F2qxfWe-33" value="" style="html=1;points=[];perimeter=orthogonalPerimeter;labelBackgroundColor=none;strokeColor=#000000;fontFamily=Helvetica;fontSize=11;fontColor=default;fillColor=default;" parent="xr28nWPG8yyI2F2qxfWe-1" vertex="1">
          <mxGeometry x="455" y="520" width="10" height="30" as="geometry" />
        </mxCell>
        <mxCell id="xr28nWPG8yyI2F2qxfWe-34" value="" style="ellipse;html=1;shape=endState;fillColor=#000000;strokeColor=#ff0000;labelBackgroundColor=none;fontFamily=Helvetica;fontSize=11;fontColor=default;direction=south;" parent="xr28nWPG8yyI2F2qxfWe-1" vertex="1">
          <mxGeometry x="125" y="660" width="30" height="30" as="geometry" />
        </mxCell>
        <mxCell id="xr28nWPG8yyI2F2qxfWe-35" value="" style="html=1;points=[];perimeter=orthogonalPerimeter;labelBackgroundColor=none;strokeColor=#000000;fontFamily=Helvetica;fontSize=11;fontColor=default;fillColor=default;" parent="xr28nWPG8yyI2F2qxfWe-1" vertex="1">
          <mxGeometry x="615" y="610" width="10" height="30" as="geometry" />
        </mxCell>
        <mxCell id="xr28nWPG8yyI2F2qxfWe-36" value="" style="html=1;verticalAlign=bottom;endArrow=open;dashed=1;endSize=8;rounded=0;labelBackgroundColor=default;strokeColor=default;fontFamily=Helvetica;fontSize=11;fontColor=default;shape=connector;curved=0;" parent="xr28nWPG8yyI2F2qxfWe-1" edge="1">
          <mxGeometry x="0.0023" relative="1" as="geometry">
            <mxPoint x="615" y="628" as="sourcePoint" />
            <mxPoint x="467" y="628" as="targetPoint" />
            <Array as="points">
              <mxPoint x="520" y="628" />
              <mxPoint x="500" y="628" />
            </Array>
            <mxPoint as="offset" />
          </mxGeometry>
        </mxCell>
        <mxCell id="xr28nWPG8yyI2F2qxfWe-37" value="null" style="edgeLabel;html=1;align=center;verticalAlign=middle;resizable=0;points=[];fontFamily=Helvetica;fontSize=11;fontColor=default;labelBackgroundColor=default;" parent="xr28nWPG8yyI2F2qxfWe-36" vertex="1" connectable="0">
          <mxGeometry x="-0.0946" relative="1" as="geometry">
            <mxPoint x="-6" y="-10" as="offset" />
          </mxGeometry>
        </mxCell>
        <mxCell id="xr28nWPG8yyI2F2qxfWe-38" value="" style="html=1;points=[];perimeter=orthogonalPerimeter;labelBackgroundColor=none;strokeColor=#000000;fontFamily=Helvetica;fontSize=11;fontColor=default;fillColor=default;" parent="xr28nWPG8yyI2F2qxfWe-1" vertex="1">
          <mxGeometry x="455" y="610" width="10" height="40" as="geometry" />
        </mxCell>
        <mxCell id="xr28nWPG8yyI2F2qxfWe-39" value="Ответ 401&amp;nbsp;" style="html=1;verticalAlign=bottom;endArrow=open;dashed=1;endSize=8;rounded=0;labelBackgroundColor=default;strokeColor=default;fontFamily=Helvetica;fontSize=11;fontColor=default;shape=connector;curved=0;" parent="xr28nWPG8yyI2F2qxfWe-1" edge="1">
          <mxGeometry x="0.0023" relative="1" as="geometry">
            <mxPoint x="455" y="639.3100000000001" as="sourcePoint" />
            <mxPoint x="145" y="639.3100000000001" as="targetPoint" />
            <Array as="points">
              <mxPoint x="340" y="639.3100000000001" />
            </Array>
            <mxPoint as="offset" />
          </mxGeometry>
        </mxCell>
        <mxCell id="xr28nWPG8yyI2F2qxfWe-40" value="" style="html=1;points=[];perimeter=orthogonalPerimeter;labelBackgroundColor=none;strokeColor=#000000;fontFamily=Helvetica;fontSize=11;fontColor=default;fillColor=default;" parent="xr28nWPG8yyI2F2qxfWe-1" vertex="1">
          <mxGeometry x="135" y="610" width="10" height="40" as="geometry" />
        </mxCell>
        <mxCell id="xr28nWPG8yyI2F2qxfWe-43" value="" style="html=1;points=[];perimeter=orthogonalPerimeter;labelBackgroundColor=none;strokeColor=#000000;fontFamily=Helvetica;fontSize=11;fontColor=default;fillColor=default;" parent="xr28nWPG8yyI2F2qxfWe-1" vertex="1">
          <mxGeometry x="460" y="400" width="10" height="20" as="geometry" />
        </mxCell>
        <mxCell id="xr28nWPG8yyI2F2qxfWe-44" value="Генерация токена" style="html=1;verticalAlign=bottom;endArrow=block;rounded=0;labelBackgroundColor=default;strokeColor=default;fontFamily=Helvetica;fontSize=11;fontColor=default;shape=connector;curved=0;" parent="xr28nWPG8yyI2F2qxfWe-1" target="xr28nWPG8yyI2F2qxfWe-43" edge="1">
          <mxGeometry x="0.0968" width="80" relative="1" as="geometry">
            <mxPoint x="464.9999999999998" y="369.9999999999999" as="sourcePoint" />
            <mxPoint x="535" y="420" as="targetPoint" />
            <Array as="points">
              <mxPoint x="535" y="370" />
              <mxPoint x="535" y="400" />
              <mxPoint x="505" y="400" />
            </Array>
            <mxPoint as="offset" />
          </mxGeometry>
        </mxCell>
        <mxCell id="xr28nWPG8yyI2F2qxfWe-45" value="" style="html=1;points=[];perimeter=orthogonalPerimeter;labelBackgroundColor=none;strokeColor=#000000;fontFamily=Helvetica;fontSize=11;fontColor=default;fillColor=default;" parent="xr28nWPG8yyI2F2qxfWe-1" vertex="1">
          <mxGeometry x="615" y="430" width="10" height="30" as="geometry" />
        </mxCell>
        <mxCell id="xr28nWPG8yyI2F2qxfWe-46" value="Запись токена" style="html=1;verticalAlign=bottom;endArrow=block;rounded=0;labelBackgroundColor=default;strokeColor=default;fontFamily=Helvetica;fontSize=11;fontColor=default;shape=connector;curved=0;" parent="xr28nWPG8yyI2F2qxfWe-1" edge="1">
          <mxGeometry x="0.0032" width="80" relative="1" as="geometry">
            <mxPoint x="465" y="430" as="sourcePoint" />
            <mxPoint x="615" y="430" as="targetPoint" />
            <Array as="points">
              <mxPoint x="540" y="430" />
            </Array>
            <mxPoint as="offset" />
          </mxGeometry>
        </mxCell>
        <mxCell id="xr28nWPG8yyI2F2qxfWe-47" value="return" style="html=1;verticalAlign=bottom;endArrow=open;dashed=1;endSize=8;rounded=0;labelBackgroundColor=default;strokeColor=default;fontFamily=Helvetica;fontSize=11;fontColor=default;shape=connector;curved=0;" parent="xr28nWPG8yyI2F2qxfWe-1" source="xr28nWPG8yyI2F2qxfWe-45" edge="1">
          <mxGeometry x="0.0023" relative="1" as="geometry">
            <mxPoint x="620" y="450" as="sourcePoint" />
            <mxPoint x="465" y="450" as="targetPoint" />
            <Array as="points">
              <mxPoint x="500" y="450" />
            </Array>
            <mxPoint as="offset" />
          </mxGeometry>
        </mxCell>
      </root>
    </mxGraphModel>
  </diagram>
  <diagram name="🙍Auth: выход" id="W4LVCoi0enCYWqfC7TXH">
    <mxGraphModel dx="816" dy="481" grid="0" gridSize="10" guides="1" tooltips="1" connect="1" arrows="1" fold="1" page="1" pageScale="1" pageWidth="827" pageHeight="1169" math="0" shadow="0">
      <root>
        <mxCell id="cnPG5G-Kmtf53blSiEjX-0" />
        <mxCell id="cnPG5G-Kmtf53blSiEjX-1" parent="cnPG5G-Kmtf53blSiEjX-0" />
        <mxCell id="cnPG5G-Kmtf53blSiEjX-11" value="Пользователь" style="shape=umlLifeline;perimeter=lifelinePerimeter;whiteSpace=wrap;html=1;container=1;collapsible=0;recursiveResize=0;outlineConnect=0;labelBackgroundColor=none;strokeColor=#d6b656;fontFamily=Helvetica;fontSize=11;fillColor=#fff2cc;" parent="cnPG5G-Kmtf53blSiEjX-1" vertex="1">
          <mxGeometry x="40" y="40" width="120" height="250" as="geometry" />
        </mxCell>
        <mxCell id="cnPG5G-Kmtf53blSiEjX-12" value="" style="html=1;points=[];perimeter=orthogonalPerimeter;labelBackgroundColor=none;strokeColor=#000000;fontFamily=Helvetica;fontSize=11;fontColor=default;fillColor=default;" parent="cnPG5G-Kmtf53blSiEjX-11" vertex="1">
          <mxGeometry x="55" y="80" width="10" height="140" as="geometry" />
        </mxCell>
        <mxCell id="91qeVP_ZGDjeIbK5jmyS-4" value="" style="ellipse;html=1;shape=endState;fillColor=#000000;strokeColor=#ff0000;fontFamily=Helvetica;fontSize=11;fontColor=default;labelBackgroundColor=default;" parent="cnPG5G-Kmtf53blSiEjX-11" vertex="1">
          <mxGeometry x="45" y="230" width="30" height="30" as="geometry" />
        </mxCell>
        <mxCell id="cnPG5G-Kmtf53blSiEjX-5" value="Система" style="shape=umlLifeline;perimeter=lifelinePerimeter;whiteSpace=wrap;html=1;container=1;collapsible=0;recursiveResize=0;outlineConnect=0;labelBackgroundColor=none;strokeColor=#9673a6;fontFamily=Helvetica;fontSize=11;fillColor=#e1d5e7;" parent="cnPG5G-Kmtf53blSiEjX-1" vertex="1">
          <mxGeometry x="200" y="40" width="120" height="250" as="geometry" />
        </mxCell>
        <mxCell id="cnPG5G-Kmtf53blSiEjX-6" value="Проверка токена&lt;br&gt;(Общее: sanctum)" style="html=1;verticalAlign=bottom;endArrow=block;rounded=0;labelBackgroundColor=default;strokeColor=default;fontFamily=Helvetica;fontSize=11;fontColor=default;shape=connector;curved=0;" parent="cnPG5G-Kmtf53blSiEjX-5" source="cnPG5G-Kmtf53blSiEjX-7" target="cnPG5G-Kmtf53blSiEjX-8" edge="1">
          <mxGeometry x="0.0968" width="80" relative="1" as="geometry">
            <mxPoint x="64" y="110" as="sourcePoint" />
            <mxPoint x="130" y="150" as="targetPoint" />
            <Array as="points">
              <mxPoint x="130" y="100" />
              <mxPoint x="130" y="130" />
              <mxPoint x="100" y="130" />
            </Array>
            <mxPoint as="offset" />
          </mxGeometry>
        </mxCell>
        <mxCell id="cnPG5G-Kmtf53blSiEjX-7" value="" style="html=1;points=[];perimeter=orthogonalPerimeter;labelBackgroundColor=none;strokeColor=#000000;fontFamily=Helvetica;fontSize=11;fontColor=default;fillColor=default;" parent="cnPG5G-Kmtf53blSiEjX-5" vertex="1">
          <mxGeometry x="55" y="90" width="10" height="90" as="geometry" />
        </mxCell>
        <mxCell id="cnPG5G-Kmtf53blSiEjX-8" value="" style="html=1;points=[];perimeter=orthogonalPerimeter;labelBackgroundColor=none;strokeColor=#BD7000;fontFamily=Helvetica;fontSize=11;fontColor=#000000;fillColor=#f0a30a;" parent="cnPG5G-Kmtf53blSiEjX-5" vertex="1">
          <mxGeometry x="60" y="130" width="10" height="20" as="geometry" />
        </mxCell>
        <mxCell id="cnPG5G-Kmtf53blSiEjX-13" value="Запрос выхода" style="html=1;verticalAlign=bottom;endArrow=block;rounded=0;labelBackgroundColor=default;strokeColor=default;fontFamily=Helvetica;fontSize=11;fontColor=default;shape=connector;curved=0;" parent="cnPG5G-Kmtf53blSiEjX-1" source="cnPG5G-Kmtf53blSiEjX-12" target="cnPG5G-Kmtf53blSiEjX-7" edge="1">
          <mxGeometry x="0.0032" width="80" relative="1" as="geometry">
            <mxPoint x="100" y="140" as="sourcePoint" />
            <mxPoint x="180" y="140" as="targetPoint" />
            <Array as="points">
              <mxPoint x="180" y="130" />
            </Array>
            <mxPoint as="offset" />
          </mxGeometry>
        </mxCell>
        <mxCell id="cnPG5G-Kmtf53blSiEjX-14" value="Компонент аутентификации" style="shape=umlLifeline;perimeter=lifelinePerimeter;whiteSpace=wrap;html=1;container=1;collapsible=0;recursiveResize=0;outlineConnect=0;labelBackgroundColor=none;strokeColor=#BD7000;fontFamily=Helvetica;fontSize=11;fillColor=#f0a30a;fontColor=#000000;" parent="cnPG5G-Kmtf53blSiEjX-1" vertex="1">
          <mxGeometry x="360" y="40" width="120" height="250" as="geometry" />
        </mxCell>
        <mxCell id="49dKNN-08pkhK2aPIz7X-1" value="" style="html=1;points=[];perimeter=orthogonalPerimeter;labelBackgroundColor=none;strokeColor=#000000;fontFamily=Helvetica;fontSize=11;fontColor=default;fillColor=default;" parent="cnPG5G-Kmtf53blSiEjX-14" vertex="1">
          <mxGeometry x="55" y="170" width="10" height="50" as="geometry" />
        </mxCell>
        <mxCell id="cnPG5G-Kmtf53blSiEjX-19" value="База данных" style="shape=umlLifeline;perimeter=lifelinePerimeter;whiteSpace=wrap;html=1;container=1;collapsible=0;recursiveResize=0;outlineConnect=0;labelBackgroundColor=none;strokeColor=#82b366;fontFamily=Helvetica;fontSize=11;fillColor=#d5e8d4;" parent="cnPG5G-Kmtf53blSiEjX-1" vertex="1">
          <mxGeometry x="520" y="40" width="120" height="250" as="geometry" />
        </mxCell>
        <mxCell id="49dKNN-08pkhK2aPIz7X-3" value="" style="html=1;points=[];perimeter=orthogonalPerimeter;labelBackgroundColor=none;strokeColor=#000000;fontFamily=Helvetica;fontSize=11;fontColor=default;fillColor=default;" parent="cnPG5G-Kmtf53blSiEjX-19" vertex="1">
          <mxGeometry x="55" y="180" width="10" height="30" as="geometry" />
        </mxCell>
        <mxCell id="49dKNN-08pkhK2aPIz7X-0" value="Передача данных" style="html=1;verticalAlign=bottom;endArrow=block;rounded=0;labelBackgroundColor=default;strokeColor=default;fontFamily=Helvetica;fontSize=11;fontColor=default;shape=connector;curved=0;" parent="cnPG5G-Kmtf53blSiEjX-1" source="cnPG5G-Kmtf53blSiEjX-7" target="49dKNN-08pkhK2aPIz7X-1" edge="1">
          <mxGeometry x="0.0032" width="80" relative="1" as="geometry">
            <mxPoint x="266" y="210" as="sourcePoint" />
            <mxPoint x="416" y="210" as="targetPoint" />
            <Array as="points">
              <mxPoint x="341" y="210" />
            </Array>
            <mxPoint as="offset" />
          </mxGeometry>
        </mxCell>
        <mxCell id="49dKNN-08pkhK2aPIz7X-2" value="Удаление токена" style="html=1;verticalAlign=bottom;endArrow=block;rounded=0;labelBackgroundColor=default;strokeColor=default;fontFamily=Helvetica;fontSize=11;fontColor=default;shape=connector;curved=0;" parent="cnPG5G-Kmtf53blSiEjX-1" source="49dKNN-08pkhK2aPIz7X-1" target="49dKNN-08pkhK2aPIz7X-3" edge="1">
          <mxGeometry x="0.0032" width="80" relative="1" as="geometry">
            <mxPoint x="425" y="229.8" as="sourcePoint" />
            <mxPoint x="575" y="229.8" as="targetPoint" />
            <Array as="points">
              <mxPoint x="500" y="220" />
            </Array>
            <mxPoint as="offset" />
          </mxGeometry>
        </mxCell>
        <mxCell id="91qeVP_ZGDjeIbK5jmyS-0" value="" style="html=1;verticalAlign=bottom;endArrow=open;dashed=1;endSize=8;rounded=0;labelBackgroundColor=default;strokeColor=default;fontFamily=Helvetica;fontSize=11;fontColor=default;shape=connector;curved=0;" parent="cnPG5G-Kmtf53blSiEjX-1" source="49dKNN-08pkhK2aPIz7X-3" target="49dKNN-08pkhK2aPIz7X-1" edge="1">
          <mxGeometry x="0.0023" relative="1" as="geometry">
            <mxPoint x="573" y="239.8" as="sourcePoint" />
            <mxPoint x="425" y="239.8" as="targetPoint" />
            <Array as="points">
              <mxPoint x="478" y="239.8" />
              <mxPoint x="458" y="239.8" />
            </Array>
            <mxPoint as="offset" />
          </mxGeometry>
        </mxCell>
        <mxCell id="91qeVP_ZGDjeIbK5jmyS-1" value="return" style="edgeLabel;html=1;align=center;verticalAlign=middle;resizable=0;points=[];fontFamily=Helvetica;fontSize=11;fontColor=default;labelBackgroundColor=default;" parent="91qeVP_ZGDjeIbK5jmyS-0" vertex="1" connectable="0">
          <mxGeometry x="-0.0946" relative="1" as="geometry">
            <mxPoint x="-6" y="-10" as="offset" />
          </mxGeometry>
        </mxCell>
        <mxCell id="91qeVP_ZGDjeIbK5jmyS-2" value="" style="html=1;verticalAlign=bottom;endArrow=open;dashed=1;endSize=8;rounded=0;labelBackgroundColor=default;strokeColor=default;fontFamily=Helvetica;fontSize=11;fontColor=default;shape=connector;curved=0;" parent="cnPG5G-Kmtf53blSiEjX-1" source="49dKNN-08pkhK2aPIz7X-1" target="cnPG5G-Kmtf53blSiEjX-12" edge="1">
          <mxGeometry x="0.0023" relative="1" as="geometry">
            <mxPoint x="380" y="250" as="sourcePoint" />
            <mxPoint x="230" y="250" as="targetPoint" />
            <Array as="points">
              <mxPoint x="260" y="250" />
            </Array>
            <mxPoint as="offset" />
          </mxGeometry>
        </mxCell>
        <mxCell id="91qeVP_ZGDjeIbK5jmyS-3" value="Ответ 204" style="edgeLabel;html=1;align=center;verticalAlign=middle;resizable=0;points=[];fontFamily=Helvetica;fontSize=11;fontColor=default;labelBackgroundColor=default;" parent="91qeVP_ZGDjeIbK5jmyS-2" vertex="1" connectable="0">
          <mxGeometry x="-0.0946" relative="1" as="geometry">
            <mxPoint x="-6" y="-10" as="offset" />
          </mxGeometry>
        </mxCell>
      </root>
    </mxGraphModel>
  </diagram>
  <diagram id="oezB-ezk5qAb_Sszq23n" name="Восстановление по KEY">
    <mxGraphModel dx="1190" dy="701" grid="0" gridSize="10" guides="1" tooltips="1" connect="1" arrows="1" fold="1" page="1" pageScale="1" pageWidth="827" pageHeight="1169" math="0" shadow="0">
      <root>
        <mxCell id="0" />
        <mxCell id="1" parent="0" />
        <mxCell id="Mxq7xo6AbqPfLDtbX74b-1" value="Найден по логину" style="shape=umlFrame;whiteSpace=wrap;html=1;labelBackgroundColor=none;strokeColor=#2D7600;fontFamily=Helvetica;fontSize=11;fillColor=#60a917;fontColor=#ffffff;width=80;height=27;" vertex="1" parent="1">
          <mxGeometry x="30" y="250" width="640" height="360" as="geometry" />
        </mxCell>
        <mxCell id="Mxq7xo6AbqPfLDtbX74b-2" value="KEY совпадает" style="shape=umlFrame;whiteSpace=wrap;html=1;labelBackgroundColor=none;strokeColor=#2D7600;fontFamily=Helvetica;fontSize=11;fillColor=#60a917;fontColor=#ffffff;width=80;height=27;" vertex="1" parent="1">
          <mxGeometry x="40" y="350" width="620" height="170" as="geometry" />
        </mxCell>
        <mxCell id="Mxq7xo6AbqPfLDtbX74b-3" value="Пользователь" style="shape=umlLifeline;perimeter=lifelinePerimeter;whiteSpace=wrap;html=1;container=1;collapsible=0;recursiveResize=0;outlineConnect=0;labelBackgroundColor=none;strokeColor=#d6b656;fontFamily=Helvetica;fontSize=11;fillColor=#fff2cc;" vertex="1" parent="1">
          <mxGeometry x="80" y="40" width="120" height="660" as="geometry" />
        </mxCell>
        <mxCell id="Mxq7xo6AbqPfLDtbX74b-4" value="" style="html=1;points=[];perimeter=orthogonalPerimeter;labelBackgroundColor=none;strokeColor=#000000;fontFamily=Helvetica;fontSize=11;fontColor=default;fillColor=default;" vertex="1" parent="Mxq7xo6AbqPfLDtbX74b-3">
          <mxGeometry x="55" y="80" width="10" height="350" as="geometry" />
        </mxCell>
        <mxCell id="Mxq7xo6AbqPfLDtbX74b-5" value="" style="ellipse;html=1;shape=endState;fillColor=#000000;strokeColor=#ff0000;labelBackgroundColor=none;fontFamily=Helvetica;fontSize=11;fontColor=default;" vertex="1" parent="Mxq7xo6AbqPfLDtbX74b-3">
          <mxGeometry x="45" y="440" width="30" height="30" as="geometry" />
        </mxCell>
        <mxCell id="Mxq7xo6AbqPfLDtbX74b-6" value="Не найден по логину" style="shape=umlFrame;whiteSpace=wrap;html=1;labelBackgroundColor=none;strokeColor=#6F0000;fontFamily=Helvetica;fontSize=11;fillColor=#a20025;fontColor=#ffffff;width=80;height=27;" vertex="1" parent="1">
          <mxGeometry x="30" y="610" width="640" height="90" as="geometry" />
        </mxCell>
        <mxCell id="Mxq7xo6AbqPfLDtbX74b-7" value="Система" style="shape=umlLifeline;perimeter=lifelinePerimeter;whiteSpace=wrap;html=1;container=1;collapsible=0;recursiveResize=0;outlineConnect=0;labelBackgroundColor=none;strokeColor=#9673a6;fontFamily=Helvetica;fontSize=11;fillColor=#e1d5e7;" vertex="1" parent="1">
          <mxGeometry x="240" y="40" width="120" height="660" as="geometry" />
        </mxCell>
        <mxCell id="Mxq7xo6AbqPfLDtbX74b-8" value="Валидация данных&lt;br&gt;(Общее: валид)" style="html=1;verticalAlign=bottom;endArrow=block;rounded=0;labelBackgroundColor=default;strokeColor=default;fontFamily=Helvetica;fontSize=11;fontColor=default;shape=connector;curved=0;" edge="1" parent="Mxq7xo6AbqPfLDtbX74b-7" source="Mxq7xo6AbqPfLDtbX74b-9" target="Mxq7xo6AbqPfLDtbX74b-10">
          <mxGeometry x="0.0968" width="80" relative="1" as="geometry">
            <mxPoint x="64" y="110" as="sourcePoint" />
            <mxPoint x="130" y="150" as="targetPoint" />
            <Array as="points">
              <mxPoint x="130" y="100" />
              <mxPoint x="130" y="130" />
              <mxPoint x="100" y="130" />
            </Array>
            <mxPoint as="offset" />
          </mxGeometry>
        </mxCell>
        <mxCell id="Mxq7xo6AbqPfLDtbX74b-9" value="" style="html=1;points=[];perimeter=orthogonalPerimeter;labelBackgroundColor=none;strokeColor=#000000;fontFamily=Helvetica;fontSize=11;fontColor=default;fillColor=default;" vertex="1" parent="Mxq7xo6AbqPfLDtbX74b-7">
          <mxGeometry x="55" y="90" width="10" height="110" as="geometry" />
        </mxCell>
        <mxCell id="Mxq7xo6AbqPfLDtbX74b-10" value="" style="html=1;points=[];perimeter=orthogonalPerimeter;labelBackgroundColor=none;strokeColor=#001DBC;fontFamily=Helvetica;fontSize=11;fontColor=#ffffff;fillColor=#0050ef;" vertex="1" parent="Mxq7xo6AbqPfLDtbX74b-7">
          <mxGeometry x="60" y="130" width="10" height="20" as="geometry" />
        </mxCell>
        <mxCell id="Mxq7xo6AbqPfLDtbX74b-11" value="Запрос восстановления&lt;div&gt;&amp;nbsp;по KEY&lt;/div&gt;" style="html=1;verticalAlign=bottom;endArrow=block;rounded=0;labelBackgroundColor=default;strokeColor=default;fontFamily=Helvetica;fontSize=11;fontColor=default;shape=connector;curved=0;" edge="1" parent="1" source="Mxq7xo6AbqPfLDtbX74b-4" target="Mxq7xo6AbqPfLDtbX74b-9">
          <mxGeometry x="0.0032" width="80" relative="1" as="geometry">
            <mxPoint x="140" y="140" as="sourcePoint" />
            <mxPoint x="220" y="140" as="targetPoint" />
            <Array as="points">
              <mxPoint x="220" y="130" />
            </Array>
            <mxPoint as="offset" />
          </mxGeometry>
        </mxCell>
        <mxCell id="Mxq7xo6AbqPfLDtbX74b-12" value="Компонент аутентификации" style="shape=umlLifeline;perimeter=lifelinePerimeter;whiteSpace=wrap;html=1;container=1;collapsible=0;recursiveResize=0;outlineConnect=0;labelBackgroundColor=none;strokeColor=#BD7000;fontFamily=Helvetica;fontSize=11;fillColor=#f0a30a;fontColor=#000000;" vertex="1" parent="1">
          <mxGeometry x="400" y="40" width="120" height="660" as="geometry" />
        </mxCell>
        <mxCell id="Mxq7xo6AbqPfLDtbX74b-13" value="" style="html=1;points=[];perimeter=orthogonalPerimeter;labelBackgroundColor=none;strokeColor=#000000;fontFamily=Helvetica;fontSize=11;fontColor=default;fillColor=default;" vertex="1" parent="Mxq7xo6AbqPfLDtbX74b-12">
          <mxGeometry x="55" y="190.75" width="10" height="239.25" as="geometry" />
        </mxCell>
        <mxCell id="Mxq7xo6AbqPfLDtbX74b-14" value="Отправка данных" style="html=1;verticalAlign=bottom;endArrow=block;rounded=0;labelBackgroundColor=default;strokeColor=default;fontFamily=Helvetica;fontSize=11;fontColor=default;shape=connector;curved=0;" edge="1" parent="Mxq7xo6AbqPfLDtbX74b-12">
          <mxGeometry x="0.0032" width="80" relative="1" as="geometry">
            <mxPoint x="-95" y="190" as="sourcePoint" />
            <mxPoint x="55" y="190" as="targetPoint" />
            <Array as="points">
              <mxPoint x="-20" y="190" />
            </Array>
            <mxPoint as="offset" />
          </mxGeometry>
        </mxCell>
        <mxCell id="Mxq7xo6AbqPfLDtbX74b-15" value="База данных" style="shape=umlLifeline;perimeter=lifelinePerimeter;whiteSpace=wrap;html=1;container=1;collapsible=0;recursiveResize=0;outlineConnect=0;labelBackgroundColor=none;strokeColor=#82b366;fontFamily=Helvetica;fontSize=11;fillColor=#d5e8d4;" vertex="1" parent="1">
          <mxGeometry x="560" y="40" width="120" height="660" as="geometry" />
        </mxCell>
        <mxCell id="Mxq7xo6AbqPfLDtbX74b-16" value="" style="html=1;points=[];perimeter=orthogonalPerimeter;labelBackgroundColor=none;strokeColor=#000000;fontFamily=Helvetica;fontSize=11;fontColor=default;fillColor=default;" vertex="1" parent="Mxq7xo6AbqPfLDtbX74b-15">
          <mxGeometry x="55" y="200" width="10" height="70" as="geometry" />
        </mxCell>
        <mxCell id="Mxq7xo6AbqPfLDtbX74b-17" value="Поиск по логину" style="html=1;verticalAlign=bottom;endArrow=block;rounded=0;labelBackgroundColor=default;strokeColor=default;fontFamily=Helvetica;fontSize=11;fontColor=default;shape=connector;curved=0;" edge="1" parent="1">
          <mxGeometry x="0.0032" width="80" relative="1" as="geometry">
            <mxPoint x="465" y="240" as="sourcePoint" />
            <mxPoint x="615" y="240" as="targetPoint" />
            <Array as="points" />
            <mxPoint as="offset" />
          </mxGeometry>
        </mxCell>
        <mxCell id="Mxq7xo6AbqPfLDtbX74b-18" value="Ответ 200 с&amp;nbsp;данными пользователя&amp;nbsp;" style="html=1;verticalAlign=bottom;endArrow=open;dashed=1;endSize=8;rounded=0;labelBackgroundColor=default;strokeColor=default;fontFamily=Helvetica;fontSize=11;fontColor=default;shape=connector;curved=0;" edge="1" parent="1">
          <mxGeometry x="0.0023" relative="1" as="geometry">
            <mxPoint x="455" y="460" as="sourcePoint" />
            <mxPoint x="145" y="460" as="targetPoint" />
            <Array as="points">
              <mxPoint x="340" y="460" />
            </Array>
            <mxPoint as="offset" />
          </mxGeometry>
        </mxCell>
        <mxCell id="Mxq7xo6AbqPfLDtbX74b-19" value="" style="html=1;verticalAlign=bottom;endArrow=open;dashed=1;endSize=8;rounded=0;labelBackgroundColor=default;strokeColor=default;fontFamily=Helvetica;fontSize=11;fontColor=default;shape=connector;curved=0;" edge="1" parent="1">
          <mxGeometry x="0.0023" relative="1" as="geometry">
            <mxPoint x="613" y="270" as="sourcePoint" />
            <mxPoint x="465" y="270" as="targetPoint" />
            <Array as="points">
              <mxPoint x="518" y="270" />
              <mxPoint x="498" y="270" />
            </Array>
            <mxPoint as="offset" />
          </mxGeometry>
        </mxCell>
        <mxCell id="Mxq7xo6AbqPfLDtbX74b-20" value="Возвращение пользователя" style="edgeLabel;html=1;align=center;verticalAlign=middle;resizable=0;points=[];fontFamily=Helvetica;fontSize=11;fontColor=default;labelBackgroundColor=default;" vertex="1" connectable="0" parent="Mxq7xo6AbqPfLDtbX74b-19">
          <mxGeometry x="-0.0946" relative="1" as="geometry">
            <mxPoint x="-6" y="-10" as="offset" />
          </mxGeometry>
        </mxCell>
        <mxCell id="Mxq7xo6AbqPfLDtbX74b-21" value="Проверка KEY&lt;br&gt;&amp;nbsp;с хешем в БД" style="html=1;verticalAlign=bottom;endArrow=block;rounded=0;labelBackgroundColor=default;strokeColor=default;fontFamily=Helvetica;fontSize=11;fontColor=default;shape=connector;curved=0;" edge="1" parent="1" target="Mxq7xo6AbqPfLDtbX74b-22">
          <mxGeometry x="0.0968" width="80" relative="1" as="geometry">
            <mxPoint x="465" y="290" as="sourcePoint" />
            <mxPoint x="530" y="340" as="targetPoint" />
            <Array as="points">
              <mxPoint x="530" y="290" />
              <mxPoint x="530" y="320" />
              <mxPoint x="500" y="320" />
            </Array>
            <mxPoint as="offset" />
          </mxGeometry>
        </mxCell>
        <mxCell id="Mxq7xo6AbqPfLDtbX74b-22" value="" style="html=1;points=[];perimeter=orthogonalPerimeter;labelBackgroundColor=none;strokeColor=#000000;fontFamily=Helvetica;fontSize=11;fontColor=default;fillColor=default;" vertex="1" parent="1">
          <mxGeometry x="460" y="320" width="10" height="20" as="geometry" />
        </mxCell>
        <mxCell id="Mxq7xo6AbqPfLDtbX74b-23" value="KEY не совпадает" style="shape=umlFrame;whiteSpace=wrap;html=1;labelBackgroundColor=none;strokeColor=#6F0000;fontFamily=Helvetica;fontSize=11;fillColor=#a20025;fontColor=#ffffff;width=80;height=27;" vertex="1" parent="1">
          <mxGeometry x="40" y="520" width="620" height="80" as="geometry" />
        </mxCell>
        <mxCell id="Mxq7xo6AbqPfLDtbX74b-24" value="" style="html=1;points=[];perimeter=orthogonalPerimeter;labelBackgroundColor=none;strokeColor=#000000;fontFamily=Helvetica;fontSize=11;fontColor=default;fillColor=default;" vertex="1" parent="1">
          <mxGeometry x="135" y="520" width="10" height="30" as="geometry" />
        </mxCell>
        <mxCell id="Mxq7xo6AbqPfLDtbX74b-25" value="" style="ellipse;html=1;shape=endState;fillColor=#000000;strokeColor=#ff0000;labelBackgroundColor=none;fontFamily=Helvetica;fontSize=11;fontColor=default;" vertex="1" parent="1">
          <mxGeometry x="125" y="560" width="30" height="30" as="geometry" />
        </mxCell>
        <mxCell id="Mxq7xo6AbqPfLDtbX74b-26" value="Ответ 401&amp;nbsp;" style="html=1;verticalAlign=bottom;endArrow=open;dashed=1;endSize=8;rounded=0;labelBackgroundColor=default;strokeColor=default;fontFamily=Helvetica;fontSize=11;fontColor=default;shape=connector;curved=0;" edge="1" parent="1">
          <mxGeometry x="0.0023" relative="1" as="geometry">
            <mxPoint x="455" y="539.6600000000001" as="sourcePoint" />
            <mxPoint x="145" y="539.6600000000001" as="targetPoint" />
            <Array as="points">
              <mxPoint x="340" y="539.6600000000001" />
            </Array>
            <mxPoint as="offset" />
          </mxGeometry>
        </mxCell>
        <mxCell id="Mxq7xo6AbqPfLDtbX74b-27" value="" style="html=1;points=[];perimeter=orthogonalPerimeter;labelBackgroundColor=none;strokeColor=#000000;fontFamily=Helvetica;fontSize=11;fontColor=default;fillColor=default;" vertex="1" parent="1">
          <mxGeometry x="455" y="520" width="10" height="30" as="geometry" />
        </mxCell>
        <mxCell id="Mxq7xo6AbqPfLDtbX74b-28" value="" style="ellipse;html=1;shape=endState;fillColor=#000000;strokeColor=#ff0000;labelBackgroundColor=none;fontFamily=Helvetica;fontSize=11;fontColor=default;direction=south;" vertex="1" parent="1">
          <mxGeometry x="125" y="660" width="30" height="30" as="geometry" />
        </mxCell>
        <mxCell id="Mxq7xo6AbqPfLDtbX74b-29" value="" style="html=1;points=[];perimeter=orthogonalPerimeter;labelBackgroundColor=none;strokeColor=#000000;fontFamily=Helvetica;fontSize=11;fontColor=default;fillColor=default;" vertex="1" parent="1">
          <mxGeometry x="615" y="610" width="10" height="30" as="geometry" />
        </mxCell>
        <mxCell id="Mxq7xo6AbqPfLDtbX74b-30" value="" style="html=1;verticalAlign=bottom;endArrow=open;dashed=1;endSize=8;rounded=0;labelBackgroundColor=default;strokeColor=default;fontFamily=Helvetica;fontSize=11;fontColor=default;shape=connector;curved=0;" edge="1" parent="1">
          <mxGeometry x="0.0023" relative="1" as="geometry">
            <mxPoint x="615" y="628" as="sourcePoint" />
            <mxPoint x="467" y="628" as="targetPoint" />
            <Array as="points">
              <mxPoint x="520" y="628" />
              <mxPoint x="500" y="628" />
            </Array>
            <mxPoint as="offset" />
          </mxGeometry>
        </mxCell>
        <mxCell id="Mxq7xo6AbqPfLDtbX74b-31" value="null" style="edgeLabel;html=1;align=center;verticalAlign=middle;resizable=0;points=[];fontFamily=Helvetica;fontSize=11;fontColor=default;labelBackgroundColor=default;" vertex="1" connectable="0" parent="Mxq7xo6AbqPfLDtbX74b-30">
          <mxGeometry x="-0.0946" relative="1" as="geometry">
            <mxPoint x="-6" y="-10" as="offset" />
          </mxGeometry>
        </mxCell>
        <mxCell id="Mxq7xo6AbqPfLDtbX74b-32" value="" style="html=1;points=[];perimeter=orthogonalPerimeter;labelBackgroundColor=none;strokeColor=#000000;fontFamily=Helvetica;fontSize=11;fontColor=default;fillColor=default;" vertex="1" parent="1">
          <mxGeometry x="455" y="610" width="10" height="40" as="geometry" />
        </mxCell>
        <mxCell id="Mxq7xo6AbqPfLDtbX74b-33" value="Ответ 401&amp;nbsp;" style="html=1;verticalAlign=bottom;endArrow=open;dashed=1;endSize=8;rounded=0;labelBackgroundColor=default;strokeColor=default;fontFamily=Helvetica;fontSize=11;fontColor=default;shape=connector;curved=0;" edge="1" parent="1">
          <mxGeometry x="0.0023" relative="1" as="geometry">
            <mxPoint x="455" y="639.3100000000001" as="sourcePoint" />
            <mxPoint x="145" y="639.3100000000001" as="targetPoint" />
            <Array as="points">
              <mxPoint x="340" y="639.3100000000001" />
            </Array>
            <mxPoint as="offset" />
          </mxGeometry>
        </mxCell>
        <mxCell id="Mxq7xo6AbqPfLDtbX74b-34" value="" style="html=1;points=[];perimeter=orthogonalPerimeter;labelBackgroundColor=none;strokeColor=#000000;fontFamily=Helvetica;fontSize=11;fontColor=default;fillColor=default;" vertex="1" parent="1">
          <mxGeometry x="135" y="610" width="10" height="40" as="geometry" />
        </mxCell>
        <mxCell id="Mxq7xo6AbqPfLDtbX74b-37" value="" style="html=1;points=[];perimeter=orthogonalPerimeter;labelBackgroundColor=none;strokeColor=#000000;fontFamily=Helvetica;fontSize=11;fontColor=default;fillColor=default;" vertex="1" parent="1">
          <mxGeometry x="615" y="430" width="10" height="30" as="geometry" />
        </mxCell>
        <mxCell id="Mxq7xo6AbqPfLDtbX74b-38" value="Запись пароля" style="html=1;verticalAlign=bottom;endArrow=block;rounded=0;labelBackgroundColor=default;strokeColor=default;fontFamily=Helvetica;fontSize=11;fontColor=default;shape=connector;curved=0;" edge="1" parent="1">
          <mxGeometry x="0.0032" width="80" relative="1" as="geometry">
            <mxPoint x="465" y="430" as="sourcePoint" />
            <mxPoint x="615" y="430" as="targetPoint" />
            <Array as="points">
              <mxPoint x="540" y="430" />
            </Array>
            <mxPoint as="offset" />
          </mxGeometry>
        </mxCell>
        <mxCell id="Mxq7xo6AbqPfLDtbX74b-39" value="return" style="html=1;verticalAlign=bottom;endArrow=open;dashed=1;endSize=8;rounded=0;labelBackgroundColor=default;strokeColor=default;fontFamily=Helvetica;fontSize=11;fontColor=default;shape=connector;curved=0;" edge="1" parent="1" source="Mxq7xo6AbqPfLDtbX74b-37">
          <mxGeometry x="0.0023" relative="1" as="geometry">
            <mxPoint x="620" y="450" as="sourcePoint" />
            <mxPoint x="465" y="450" as="targetPoint" />
            <Array as="points">
              <mxPoint x="500" y="450" />
            </Array>
            <mxPoint as="offset" />
          </mxGeometry>
        </mxCell>
      </root>
    </mxGraphModel>
  </diagram>
  <diagram id="99dRH7lWNLpivnifv4ij" name="Просмотр своего профиля">
    <mxGraphModel dx="680" dy="400" grid="0" gridSize="10" guides="1" tooltips="1" connect="1" arrows="1" fold="1" page="1" pageScale="1" pageWidth="827" pageHeight="1169" math="0" shadow="0">
      <root>
        <mxCell id="0" />
        <mxCell id="1" parent="0" />
        <mxCell id="7Se2a0-GpMVter7imCET-1" value="Пользователь" style="shape=umlLifeline;perimeter=lifelinePerimeter;whiteSpace=wrap;html=1;container=1;collapsible=0;recursiveResize=0;outlineConnect=0;labelBackgroundColor=none;strokeColor=#d6b656;fontFamily=Helvetica;fontSize=11;fillColor=#fff2cc;" vertex="1" parent="1">
          <mxGeometry x="40" y="40" width="120" height="250" as="geometry" />
        </mxCell>
        <mxCell id="7Se2a0-GpMVter7imCET-2" value="" style="html=1;points=[];perimeter=orthogonalPerimeter;labelBackgroundColor=none;strokeColor=#000000;fontFamily=Helvetica;fontSize=11;fontColor=default;fillColor=default;" vertex="1" parent="7Se2a0-GpMVter7imCET-1">
          <mxGeometry x="55" y="80" width="10" height="140" as="geometry" />
        </mxCell>
        <mxCell id="7Se2a0-GpMVter7imCET-3" value="" style="ellipse;html=1;shape=endState;fillColor=#000000;strokeColor=#ff0000;fontFamily=Helvetica;fontSize=11;fontColor=default;labelBackgroundColor=default;" vertex="1" parent="7Se2a0-GpMVter7imCET-1">
          <mxGeometry x="45" y="230" width="30" height="30" as="geometry" />
        </mxCell>
        <mxCell id="7Se2a0-GpMVter7imCET-4" value="Система" style="shape=umlLifeline;perimeter=lifelinePerimeter;whiteSpace=wrap;html=1;container=1;collapsible=0;recursiveResize=0;outlineConnect=0;labelBackgroundColor=none;strokeColor=#9673a6;fontFamily=Helvetica;fontSize=11;fillColor=#e1d5e7;" vertex="1" parent="1">
          <mxGeometry x="200" y="40" width="120" height="250" as="geometry" />
        </mxCell>
        <mxCell id="7Se2a0-GpMVter7imCET-5" value="Проверка токена&lt;br&gt;(Общее: sanctum)" style="html=1;verticalAlign=bottom;endArrow=block;rounded=0;labelBackgroundColor=default;strokeColor=default;fontFamily=Helvetica;fontSize=11;fontColor=default;shape=connector;curved=0;" edge="1" parent="7Se2a0-GpMVter7imCET-4" source="7Se2a0-GpMVter7imCET-6" target="7Se2a0-GpMVter7imCET-7">
          <mxGeometry x="0.0968" width="80" relative="1" as="geometry">
            <mxPoint x="64" y="110" as="sourcePoint" />
            <mxPoint x="130" y="150" as="targetPoint" />
            <Array as="points">
              <mxPoint x="130" y="100" />
              <mxPoint x="130" y="130" />
              <mxPoint x="100" y="130" />
            </Array>
            <mxPoint as="offset" />
          </mxGeometry>
        </mxCell>
        <mxCell id="7Se2a0-GpMVter7imCET-6" value="" style="html=1;points=[];perimeter=orthogonalPerimeter;labelBackgroundColor=none;strokeColor=#000000;fontFamily=Helvetica;fontSize=11;fontColor=default;fillColor=default;" vertex="1" parent="7Se2a0-GpMVter7imCET-4">
          <mxGeometry x="55" y="90" width="10" height="90" as="geometry" />
        </mxCell>
        <mxCell id="7Se2a0-GpMVter7imCET-7" value="" style="html=1;points=[];perimeter=orthogonalPerimeter;labelBackgroundColor=none;strokeColor=#BD7000;fontFamily=Helvetica;fontSize=11;fontColor=#000000;fillColor=#f0a30a;" vertex="1" parent="7Se2a0-GpMVter7imCET-4">
          <mxGeometry x="60" y="130" width="10" height="20" as="geometry" />
        </mxCell>
        <mxCell id="7Se2a0-GpMVter7imCET-8" value="Запрос просмотра&lt;div&gt;&amp;nbsp;своего профиля&lt;/div&gt;" style="html=1;verticalAlign=bottom;endArrow=block;rounded=0;labelBackgroundColor=default;strokeColor=default;fontFamily=Helvetica;fontSize=11;fontColor=default;shape=connector;curved=0;" edge="1" parent="1" source="7Se2a0-GpMVter7imCET-2" target="7Se2a0-GpMVter7imCET-6">
          <mxGeometry x="0.0032" width="80" relative="1" as="geometry">
            <mxPoint x="100" y="140" as="sourcePoint" />
            <mxPoint x="180" y="140" as="targetPoint" />
            <Array as="points">
              <mxPoint x="180" y="130" />
            </Array>
            <mxPoint as="offset" />
          </mxGeometry>
        </mxCell>
        <mxCell id="7Se2a0-GpMVter7imCET-9" value="Компонент пользователя" style="shape=umlLifeline;perimeter=lifelinePerimeter;whiteSpace=wrap;html=1;container=1;collapsible=0;recursiveResize=0;outlineConnect=0;labelBackgroundColor=none;strokeColor=#b85450;fontFamily=Helvetica;fontSize=11;fillColor=#f8cecc;" vertex="1" parent="1">
          <mxGeometry x="360" y="40" width="120" height="250" as="geometry" />
        </mxCell>
        <mxCell id="7Se2a0-GpMVter7imCET-10" value="" style="html=1;points=[];perimeter=orthogonalPerimeter;labelBackgroundColor=none;strokeColor=#000000;fontFamily=Helvetica;fontSize=11;fontColor=default;fillColor=default;" vertex="1" parent="7Se2a0-GpMVter7imCET-9">
          <mxGeometry x="55" y="170" width="10" height="50" as="geometry" />
        </mxCell>
        <mxCell id="7Se2a0-GpMVter7imCET-11" value="База данных" style="shape=umlLifeline;perimeter=lifelinePerimeter;whiteSpace=wrap;html=1;container=1;collapsible=0;recursiveResize=0;outlineConnect=0;labelBackgroundColor=none;strokeColor=#82b366;fontFamily=Helvetica;fontSize=11;fillColor=#d5e8d4;" vertex="1" parent="1">
          <mxGeometry x="520" y="40" width="120" height="250" as="geometry" />
        </mxCell>
        <mxCell id="7Se2a0-GpMVter7imCET-12" value="" style="html=1;points=[];perimeter=orthogonalPerimeter;labelBackgroundColor=none;strokeColor=#000000;fontFamily=Helvetica;fontSize=11;fontColor=default;fillColor=default;" vertex="1" parent="7Se2a0-GpMVter7imCET-11">
          <mxGeometry x="55" y="180" width="10" height="30" as="geometry" />
        </mxCell>
        <mxCell id="7Se2a0-GpMVter7imCET-13" value="Отправка данных" style="html=1;verticalAlign=bottom;endArrow=block;rounded=0;labelBackgroundColor=default;strokeColor=default;fontFamily=Helvetica;fontSize=11;fontColor=default;shape=connector;curved=0;" edge="1" parent="1" source="7Se2a0-GpMVter7imCET-6" target="7Se2a0-GpMVter7imCET-10">
          <mxGeometry x="0.0023" width="80" relative="1" as="geometry">
            <mxPoint x="266" y="210" as="sourcePoint" />
            <mxPoint x="416" y="210" as="targetPoint" />
            <Array as="points">
              <mxPoint x="341" y="210" />
            </Array>
            <mxPoint as="offset" />
          </mxGeometry>
        </mxCell>
        <mxCell id="7Se2a0-GpMVter7imCET-14" value="Запрос профиля" style="html=1;verticalAlign=bottom;endArrow=block;rounded=0;labelBackgroundColor=default;strokeColor=default;fontFamily=Helvetica;fontSize=11;fontColor=default;shape=connector;curved=0;" edge="1" parent="1" source="7Se2a0-GpMVter7imCET-10" target="7Se2a0-GpMVter7imCET-12">
          <mxGeometry x="0.0032" width="80" relative="1" as="geometry">
            <mxPoint x="425" y="229.8" as="sourcePoint" />
            <mxPoint x="575" y="229.8" as="targetPoint" />
            <Array as="points">
              <mxPoint x="500" y="220" />
            </Array>
            <mxPoint as="offset" />
          </mxGeometry>
        </mxCell>
        <mxCell id="7Se2a0-GpMVter7imCET-15" value="" style="html=1;verticalAlign=bottom;endArrow=open;dashed=1;endSize=8;rounded=0;labelBackgroundColor=default;strokeColor=default;fontFamily=Helvetica;fontSize=11;fontColor=default;shape=connector;curved=0;" edge="1" parent="1" source="7Se2a0-GpMVter7imCET-12" target="7Se2a0-GpMVter7imCET-10">
          <mxGeometry x="0.0023" relative="1" as="geometry">
            <mxPoint x="573" y="239.8" as="sourcePoint" />
            <mxPoint x="425" y="239.8" as="targetPoint" />
            <Array as="points">
              <mxPoint x="478" y="239.8" />
              <mxPoint x="458" y="239.8" />
            </Array>
            <mxPoint as="offset" />
          </mxGeometry>
        </mxCell>
        <mxCell id="7Se2a0-GpMVter7imCET-16" value="return" style="edgeLabel;html=1;align=center;verticalAlign=middle;resizable=0;points=[];fontFamily=Helvetica;fontSize=11;fontColor=default;labelBackgroundColor=default;" vertex="1" connectable="0" parent="7Se2a0-GpMVter7imCET-15">
          <mxGeometry x="-0.0946" relative="1" as="geometry">
            <mxPoint x="-6" y="-10" as="offset" />
          </mxGeometry>
        </mxCell>
        <mxCell id="7Se2a0-GpMVter7imCET-17" value="" style="html=1;verticalAlign=bottom;endArrow=open;dashed=1;endSize=8;rounded=0;labelBackgroundColor=default;strokeColor=default;fontFamily=Helvetica;fontSize=11;fontColor=default;shape=connector;curved=0;" edge="1" parent="1" source="7Se2a0-GpMVter7imCET-10" target="7Se2a0-GpMVter7imCET-2">
          <mxGeometry x="0.0023" relative="1" as="geometry">
            <mxPoint x="380" y="250" as="sourcePoint" />
            <mxPoint x="230" y="250" as="targetPoint" />
            <Array as="points">
              <mxPoint x="260" y="250" />
            </Array>
            <mxPoint as="offset" />
          </mxGeometry>
        </mxCell>
        <mxCell id="7Se2a0-GpMVter7imCET-18" value="Ответ 200 с данными пользователя" style="edgeLabel;html=1;align=center;verticalAlign=middle;resizable=0;points=[];fontFamily=Helvetica;fontSize=11;fontColor=default;labelBackgroundColor=default;" vertex="1" connectable="0" parent="7Se2a0-GpMVter7imCET-17">
          <mxGeometry x="-0.0946" relative="1" as="geometry">
            <mxPoint x="-6" y="-10" as="offset" />
          </mxGeometry>
        </mxCell>
      </root>
    </mxGraphModel>
  </diagram>
  <diagram id="4nRRctgauN0Btws7Wj4r" name="Просмотр чужого профиля">
    <mxGraphModel dx="793" dy="467" grid="0" gridSize="10" guides="1" tooltips="1" connect="1" arrows="1" fold="1" page="1" pageScale="1" pageWidth="827" pageHeight="1169" math="0" shadow="0">
      <root>
        <mxCell id="0" />
        <mxCell id="1" parent="0" />
        <mxCell id="PLiD146zPAHRHFRI5BhG-11" value="База данных" style="shape=umlLifeline;perimeter=lifelinePerimeter;whiteSpace=wrap;html=1;container=1;collapsible=0;recursiveResize=0;outlineConnect=0;labelBackgroundColor=none;strokeColor=#82b366;fontFamily=Helvetica;fontSize=11;fillColor=#d5e8d4;" vertex="1" parent="1">
          <mxGeometry x="521" y="40" width="120" height="365" as="geometry" />
        </mxCell>
        <mxCell id="PLiD146zPAHRHFRI5BhG-1" value="Пользователь" style="shape=umlLifeline;perimeter=lifelinePerimeter;whiteSpace=wrap;html=1;container=1;collapsible=0;recursiveResize=0;outlineConnect=0;labelBackgroundColor=none;strokeColor=#d6b656;fontFamily=Helvetica;fontSize=11;fillColor=#fff2cc;" vertex="1" parent="1">
          <mxGeometry x="40" y="40" width="120" height="355" as="geometry" />
        </mxCell>
        <mxCell id="PLiD146zPAHRHFRI5BhG-2" value="" style="html=1;points=[];perimeter=orthogonalPerimeter;labelBackgroundColor=none;strokeColor=#000000;fontFamily=Helvetica;fontSize=11;fontColor=default;fillColor=default;" vertex="1" parent="PLiD146zPAHRHFRI5BhG-1">
          <mxGeometry x="55" y="80" width="10" height="247" as="geometry" />
        </mxCell>
        <mxCell id="PLiD146zPAHRHFRI5BhG-3" value="" style="ellipse;html=1;shape=endState;fillColor=#000000;strokeColor=#ff0000;fontFamily=Helvetica;fontSize=11;fontColor=default;labelBackgroundColor=default;" vertex="1" parent="PLiD146zPAHRHFRI5BhG-1">
          <mxGeometry x="45" y="343" width="30" height="30" as="geometry" />
        </mxCell>
        <mxCell id="PLiD146zPAHRHFRI5BhG-4" value="Система" style="shape=umlLifeline;perimeter=lifelinePerimeter;whiteSpace=wrap;html=1;container=1;collapsible=0;recursiveResize=0;outlineConnect=0;labelBackgroundColor=none;strokeColor=#9673a6;fontFamily=Helvetica;fontSize=11;fillColor=#e1d5e7;" vertex="1" parent="1">
          <mxGeometry x="200" y="40" width="120" height="366" as="geometry" />
        </mxCell>
        <mxCell id="PLiD146zPAHRHFRI5BhG-5" value="Проверка токена&lt;br&gt;(Общее: sanctum)" style="html=1;verticalAlign=bottom;endArrow=block;rounded=0;labelBackgroundColor=default;strokeColor=default;fontFamily=Helvetica;fontSize=11;fontColor=default;shape=connector;curved=0;" edge="1" parent="PLiD146zPAHRHFRI5BhG-4" source="PLiD146zPAHRHFRI5BhG-6" target="PLiD146zPAHRHFRI5BhG-7">
          <mxGeometry x="0.0968" width="80" relative="1" as="geometry">
            <mxPoint x="64" y="110" as="sourcePoint" />
            <mxPoint x="130" y="150" as="targetPoint" />
            <Array as="points">
              <mxPoint x="130" y="100" />
              <mxPoint x="130" y="130" />
              <mxPoint x="100" y="130" />
            </Array>
            <mxPoint as="offset" />
          </mxGeometry>
        </mxCell>
        <mxCell id="PLiD146zPAHRHFRI5BhG-6" value="" style="html=1;points=[];perimeter=orthogonalPerimeter;labelBackgroundColor=none;strokeColor=#000000;fontFamily=Helvetica;fontSize=11;fontColor=default;fillColor=default;" vertex="1" parent="PLiD146zPAHRHFRI5BhG-4">
          <mxGeometry x="55" y="90" width="10" height="203" as="geometry" />
        </mxCell>
        <mxCell id="PLiD146zPAHRHFRI5BhG-7" value="" style="html=1;points=[];perimeter=orthogonalPerimeter;labelBackgroundColor=none;strokeColor=#BD7000;fontFamily=Helvetica;fontSize=11;fontColor=#000000;fillColor=#f0a30a;" vertex="1" parent="PLiD146zPAHRHFRI5BhG-4">
          <mxGeometry x="60" y="130" width="10" height="20" as="geometry" />
        </mxCell>
        <mxCell id="PLiD146zPAHRHFRI5BhG-22" value="" style="html=1;points=[];perimeter=orthogonalPerimeter;labelBackgroundColor=none;fontFamily=Helvetica;fontSize=11;fillColor=#76608a;fontColor=#ffffff;strokeColor=#432D57;" vertex="1" parent="PLiD146zPAHRHFRI5BhG-4">
          <mxGeometry x="60" y="184" width="10" height="20" as="geometry" />
        </mxCell>
        <mxCell id="PLiD146zPAHRHFRI5BhG-24" value="" style="html=1;points=[];perimeter=orthogonalPerimeter;labelBackgroundColor=none;fontFamily=Helvetica;fontSize=11;" vertex="1" parent="PLiD146zPAHRHFRI5BhG-4">
          <mxGeometry x="60" y="242" width="10" height="20" as="geometry" />
        </mxCell>
        <mxCell id="PLiD146zPAHRHFRI5BhG-8" value="Запрос просмотра&lt;div&gt;&amp;nbsp;чужого профиля&lt;/div&gt;" style="html=1;verticalAlign=bottom;endArrow=block;rounded=0;labelBackgroundColor=default;strokeColor=default;fontFamily=Helvetica;fontSize=11;fontColor=default;shape=connector;curved=0;" edge="1" parent="1" source="PLiD146zPAHRHFRI5BhG-2" target="PLiD146zPAHRHFRI5BhG-6">
          <mxGeometry x="0.0032" width="80" relative="1" as="geometry">
            <mxPoint x="100" y="140" as="sourcePoint" />
            <mxPoint x="180" y="140" as="targetPoint" />
            <Array as="points">
              <mxPoint x="180" y="130" />
            </Array>
            <mxPoint as="offset" />
          </mxGeometry>
        </mxCell>
        <mxCell id="PLiD146zPAHRHFRI5BhG-9" value="Компонент пользователя" style="shape=umlLifeline;perimeter=lifelinePerimeter;whiteSpace=wrap;html=1;container=1;collapsible=0;recursiveResize=0;outlineConnect=0;labelBackgroundColor=none;strokeColor=#b85450;fontFamily=Helvetica;fontSize=11;fillColor=#f8cecc;" vertex="1" parent="1">
          <mxGeometry x="361" y="40" width="120" height="367" as="geometry" />
        </mxCell>
        <mxCell id="PLiD146zPAHRHFRI5BhG-10" value="" style="html=1;points=[];perimeter=orthogonalPerimeter;labelBackgroundColor=none;strokeColor=#000000;fontFamily=Helvetica;fontSize=11;fontColor=default;fillColor=default;" vertex="1" parent="PLiD146zPAHRHFRI5BhG-9">
          <mxGeometry x="55" y="279" width="10" height="50" as="geometry" />
        </mxCell>
        <mxCell id="PLiD146zPAHRHFRI5BhG-13" value="Отправка данных" style="html=1;verticalAlign=bottom;endArrow=block;rounded=0;labelBackgroundColor=default;strokeColor=default;fontFamily=Helvetica;fontSize=11;fontColor=default;shape=connector;curved=0;" edge="1" parent="PLiD146zPAHRHFRI5BhG-9" target="PLiD146zPAHRHFRI5BhG-10">
          <mxGeometry x="0.0023" width="80" relative="1" as="geometry">
            <mxPoint x="-95" y="279" as="sourcePoint" />
            <mxPoint x="56" y="279" as="targetPoint" />
            <Array as="points">
              <mxPoint x="-19" y="279" />
            </Array>
            <mxPoint as="offset" />
          </mxGeometry>
        </mxCell>
        <mxCell id="PLiD146zPAHRHFRI5BhG-14" value="Запрос профиля" style="html=1;verticalAlign=bottom;endArrow=block;rounded=0;labelBackgroundColor=default;strokeColor=default;fontFamily=Helvetica;fontSize=11;fontColor=default;shape=connector;curved=0;" edge="1" parent="PLiD146zPAHRHFRI5BhG-9" source="PLiD146zPAHRHFRI5BhG-10" target="PLiD146zPAHRHFRI5BhG-12">
          <mxGeometry x="0.0032" width="80" relative="1" as="geometry">
            <mxPoint x="65" y="298.8" as="sourcePoint" />
            <mxPoint x="215" y="298.8" as="targetPoint" />
            <Array as="points">
              <mxPoint x="140" y="289" />
            </Array>
            <mxPoint as="offset" />
          </mxGeometry>
        </mxCell>
        <mxCell id="PLiD146zPAHRHFRI5BhG-15" value="" style="html=1;verticalAlign=bottom;endArrow=open;dashed=1;endSize=8;rounded=0;labelBackgroundColor=default;strokeColor=default;fontFamily=Helvetica;fontSize=11;fontColor=default;shape=connector;curved=0;" edge="1" parent="PLiD146zPAHRHFRI5BhG-9" source="PLiD146zPAHRHFRI5BhG-12" target="PLiD146zPAHRHFRI5BhG-10">
          <mxGeometry x="0.0023" relative="1" as="geometry">
            <mxPoint x="213" y="308.8" as="sourcePoint" />
            <mxPoint x="65" y="308.8" as="targetPoint" />
            <Array as="points">
              <mxPoint x="118" y="308.8" />
              <mxPoint x="98" y="308.8" />
            </Array>
            <mxPoint as="offset" />
          </mxGeometry>
        </mxCell>
        <mxCell id="PLiD146zPAHRHFRI5BhG-16" value="return" style="edgeLabel;html=1;align=center;verticalAlign=middle;resizable=0;points=[];fontFamily=Helvetica;fontSize=11;fontColor=default;labelBackgroundColor=default;" vertex="1" connectable="0" parent="PLiD146zPAHRHFRI5BhG-15">
          <mxGeometry x="-0.0946" relative="1" as="geometry">
            <mxPoint x="-6" y="-10" as="offset" />
          </mxGeometry>
        </mxCell>
        <mxCell id="PLiD146zPAHRHFRI5BhG-17" value="" style="html=1;verticalAlign=bottom;endArrow=open;dashed=1;endSize=8;rounded=0;labelBackgroundColor=default;strokeColor=default;fontFamily=Helvetica;fontSize=11;fontColor=default;shape=connector;curved=0;" edge="1" parent="PLiD146zPAHRHFRI5BhG-9" source="PLiD146zPAHRHFRI5BhG-10">
          <mxGeometry x="0.0023" relative="1" as="geometry">
            <mxPoint x="20" y="319" as="sourcePoint" />
            <mxPoint x="-255" y="319" as="targetPoint" />
            <Array as="points">
              <mxPoint x="-100" y="319" />
            </Array>
            <mxPoint as="offset" />
          </mxGeometry>
        </mxCell>
        <mxCell id="PLiD146zPAHRHFRI5BhG-18" value="Ответ 200 с данными пользователя" style="edgeLabel;html=1;align=center;verticalAlign=middle;resizable=0;points=[];fontFamily=Helvetica;fontSize=11;fontColor=default;labelBackgroundColor=default;" vertex="1" connectable="0" parent="PLiD146zPAHRHFRI5BhG-17">
          <mxGeometry x="-0.0946" relative="1" as="geometry">
            <mxPoint x="-6" y="-10" as="offset" />
          </mxGeometry>
        </mxCell>
        <mxCell id="PLiD146zPAHRHFRI5BhG-12" value="" style="html=1;points=[];perimeter=orthogonalPerimeter;labelBackgroundColor=none;strokeColor=#000000;fontFamily=Helvetica;fontSize=11;fontColor=default;fillColor=default;" vertex="1" parent="PLiD146zPAHRHFRI5BhG-9">
          <mxGeometry x="215" y="289" width="10" height="30" as="geometry" />
        </mxCell>
        <mxCell id="PLiD146zPAHRHFRI5BhG-21" value="Проверка существования&lt;br style=&quot;border-color: var(--border-color);&quot;&gt;(Общее: сущ)" style="html=1;verticalAlign=bottom;endArrow=block;rounded=0;labelBackgroundColor=default;strokeColor=default;fontFamily=Helvetica;fontSize=11;fontColor=default;shape=connector;curved=0;" edge="1" parent="1">
          <mxGeometry x="0.0968" y="10" width="80" relative="1" as="geometry">
            <mxPoint x="265" y="194" as="sourcePoint" />
            <mxPoint x="270" y="224" as="targetPoint" />
            <Array as="points">
              <mxPoint x="330" y="194" />
              <mxPoint x="330" y="224" />
              <mxPoint x="300" y="224" />
            </Array>
            <mxPoint as="offset" />
          </mxGeometry>
        </mxCell>
        <mxCell id="PLiD146zPAHRHFRI5BhG-23" value="Проверка видимости&lt;div&gt;&amp;nbsp;профиля&lt;/div&gt;" style="html=1;verticalAlign=bottom;endArrow=block;rounded=0;labelBackgroundColor=default;strokeColor=default;fontFamily=Helvetica;fontSize=11;fontColor=default;shape=connector;curved=0;" edge="1" parent="1">
          <mxGeometry x="0.0998" y="10" width="80" relative="1" as="geometry">
            <mxPoint x="265" y="253" as="sourcePoint" />
            <mxPoint x="270" y="283" as="targetPoint" />
            <Array as="points">
              <mxPoint x="330" y="253" />
              <mxPoint x="330" y="283" />
              <mxPoint x="300" y="283" />
            </Array>
            <mxPoint as="offset" />
          </mxGeometry>
        </mxCell>
      </root>
    </mxGraphModel>
  </diagram>
  <diagram id="H0iee_dSPmBOtk0KWX8y" name="Редактирование своего профиля">
    <mxGraphModel dx="816" dy="481" grid="0" gridSize="10" guides="1" tooltips="1" connect="1" arrows="1" fold="1" page="1" pageScale="1" pageWidth="827" pageHeight="1169" math="0" shadow="0">
      <root>
        <mxCell id="0" />
        <mxCell id="1" parent="0" />
        <mxCell id="-9v7A5yOoM1ApbnqFRL7-1" value="Пользователь" style="shape=umlLifeline;perimeter=lifelinePerimeter;whiteSpace=wrap;html=1;container=1;collapsible=0;recursiveResize=0;outlineConnect=0;labelBackgroundColor=none;strokeColor=#d6b656;fontFamily=Helvetica;fontSize=11;fillColor=#fff2cc;" vertex="1" parent="1">
          <mxGeometry x="40" y="40" width="120" height="297" as="geometry" />
        </mxCell>
        <mxCell id="-9v7A5yOoM1ApbnqFRL7-2" value="" style="html=1;points=[];perimeter=orthogonalPerimeter;labelBackgroundColor=none;strokeColor=#000000;fontFamily=Helvetica;fontSize=11;fontColor=default;fillColor=default;" vertex="1" parent="-9v7A5yOoM1ApbnqFRL7-1">
          <mxGeometry x="55" y="80" width="10" height="195" as="geometry" />
        </mxCell>
        <mxCell id="-9v7A5yOoM1ApbnqFRL7-3" value="" style="ellipse;html=1;shape=endState;fillColor=#000000;strokeColor=#ff0000;fontFamily=Helvetica;fontSize=11;fontColor=default;labelBackgroundColor=default;" vertex="1" parent="-9v7A5yOoM1ApbnqFRL7-1">
          <mxGeometry x="45" y="287" width="30" height="30" as="geometry" />
        </mxCell>
        <mxCell id="-9v7A5yOoM1ApbnqFRL7-4" value="Система" style="shape=umlLifeline;perimeter=lifelinePerimeter;whiteSpace=wrap;html=1;container=1;collapsible=0;recursiveResize=0;outlineConnect=0;labelBackgroundColor=none;strokeColor=#9673a6;fontFamily=Helvetica;fontSize=11;fillColor=#e1d5e7;" vertex="1" parent="1">
          <mxGeometry x="200" y="40" width="120" height="304" as="geometry" />
        </mxCell>
        <mxCell id="-9v7A5yOoM1ApbnqFRL7-5" value="Проверка токена&lt;br&gt;(Общее: sanctum)" style="html=1;verticalAlign=bottom;endArrow=block;rounded=0;labelBackgroundColor=default;strokeColor=default;fontFamily=Helvetica;fontSize=11;fontColor=default;shape=connector;curved=0;" edge="1" parent="-9v7A5yOoM1ApbnqFRL7-4" source="-9v7A5yOoM1ApbnqFRL7-6" target="-9v7A5yOoM1ApbnqFRL7-7">
          <mxGeometry x="0.0968" width="80" relative="1" as="geometry">
            <mxPoint x="64" y="110" as="sourcePoint" />
            <mxPoint x="130" y="150" as="targetPoint" />
            <Array as="points">
              <mxPoint x="130" y="100" />
              <mxPoint x="130" y="130" />
              <mxPoint x="100" y="130" />
            </Array>
            <mxPoint as="offset" />
          </mxGeometry>
        </mxCell>
        <mxCell id="-9v7A5yOoM1ApbnqFRL7-6" value="" style="html=1;points=[];perimeter=orthogonalPerimeter;labelBackgroundColor=none;strokeColor=#000000;fontFamily=Helvetica;fontSize=11;fontColor=default;fillColor=default;" vertex="1" parent="-9v7A5yOoM1ApbnqFRL7-4">
          <mxGeometry x="55" y="90" width="10" height="145" as="geometry" />
        </mxCell>
        <mxCell id="-9v7A5yOoM1ApbnqFRL7-7" value="" style="html=1;points=[];perimeter=orthogonalPerimeter;labelBackgroundColor=none;strokeColor=#BD7000;fontFamily=Helvetica;fontSize=11;fontColor=#000000;fillColor=#f0a30a;" vertex="1" parent="-9v7A5yOoM1ApbnqFRL7-4">
          <mxGeometry x="60" y="130" width="10" height="20" as="geometry" />
        </mxCell>
        <mxCell id="-9v7A5yOoM1ApbnqFRL7-8" value="Запрос редактирования&lt;div&gt;&amp;nbsp;своего профиля&lt;/div&gt;" style="html=1;verticalAlign=bottom;endArrow=block;rounded=0;labelBackgroundColor=default;strokeColor=default;fontFamily=Helvetica;fontSize=11;fontColor=default;shape=connector;curved=0;" edge="1" parent="1" source="-9v7A5yOoM1ApbnqFRL7-2" target="-9v7A5yOoM1ApbnqFRL7-6">
          <mxGeometry x="0.0032" width="80" relative="1" as="geometry">
            <mxPoint x="100" y="140" as="sourcePoint" />
            <mxPoint x="180" y="140" as="targetPoint" />
            <Array as="points">
              <mxPoint x="180" y="130" />
            </Array>
            <mxPoint as="offset" />
          </mxGeometry>
        </mxCell>
        <mxCell id="-9v7A5yOoM1ApbnqFRL7-9" value="Компонент пользователя" style="shape=umlLifeline;perimeter=lifelinePerimeter;whiteSpace=wrap;html=1;container=1;collapsible=0;recursiveResize=0;outlineConnect=0;labelBackgroundColor=none;strokeColor=#b85450;fontFamily=Helvetica;fontSize=11;fillColor=#f8cecc;" vertex="1" parent="1">
          <mxGeometry x="360" y="40" width="120" height="303" as="geometry" />
        </mxCell>
        <mxCell id="-9v7A5yOoM1ApbnqFRL7-10" value="" style="html=1;points=[];perimeter=orthogonalPerimeter;labelBackgroundColor=none;strokeColor=#000000;fontFamily=Helvetica;fontSize=11;fontColor=default;fillColor=default;" vertex="1" parent="-9v7A5yOoM1ApbnqFRL7-9">
          <mxGeometry x="55" y="227" width="10" height="50" as="geometry" />
        </mxCell>
        <mxCell id="-9v7A5yOoM1ApbnqFRL7-11" value="База данных" style="shape=umlLifeline;perimeter=lifelinePerimeter;whiteSpace=wrap;html=1;container=1;collapsible=0;recursiveResize=0;outlineConnect=0;labelBackgroundColor=none;strokeColor=#82b366;fontFamily=Helvetica;fontSize=11;fillColor=#d5e8d4;" vertex="1" parent="1">
          <mxGeometry x="520" y="40" width="120" height="298" as="geometry" />
        </mxCell>
        <mxCell id="-9v7A5yOoM1ApbnqFRL7-12" value="" style="html=1;points=[];perimeter=orthogonalPerimeter;labelBackgroundColor=none;strokeColor=#000000;fontFamily=Helvetica;fontSize=11;fontColor=default;fillColor=default;" vertex="1" parent="-9v7A5yOoM1ApbnqFRL7-11">
          <mxGeometry x="55" y="237" width="10" height="30" as="geometry" />
        </mxCell>
        <mxCell id="-9v7A5yOoM1ApbnqFRL7-13" value="Отправка данных" style="html=1;verticalAlign=bottom;endArrow=block;rounded=0;labelBackgroundColor=default;strokeColor=default;fontFamily=Helvetica;fontSize=11;fontColor=default;shape=connector;curved=0;" edge="1" parent="1" target="-9v7A5yOoM1ApbnqFRL7-10">
          <mxGeometry x="0.0023" width="80" relative="1" as="geometry">
            <mxPoint x="265" y="267" as="sourcePoint" />
            <mxPoint x="416" y="267" as="targetPoint" />
            <Array as="points">
              <mxPoint x="341" y="267" />
            </Array>
            <mxPoint as="offset" />
          </mxGeometry>
        </mxCell>
        <mxCell id="-9v7A5yOoM1ApbnqFRL7-14" value="Запись профиля" style="html=1;verticalAlign=bottom;endArrow=block;rounded=0;labelBackgroundColor=default;strokeColor=default;fontFamily=Helvetica;fontSize=11;fontColor=default;shape=connector;curved=0;" edge="1" parent="1" source="-9v7A5yOoM1ApbnqFRL7-10" target="-9v7A5yOoM1ApbnqFRL7-12">
          <mxGeometry x="0.0057" width="80" relative="1" as="geometry">
            <mxPoint x="425" y="286.8" as="sourcePoint" />
            <mxPoint x="575" y="286.8" as="targetPoint" />
            <Array as="points">
              <mxPoint x="500" y="277" />
            </Array>
            <mxPoint as="offset" />
          </mxGeometry>
        </mxCell>
        <mxCell id="-9v7A5yOoM1ApbnqFRL7-15" value="" style="html=1;verticalAlign=bottom;endArrow=open;dashed=1;endSize=8;rounded=0;labelBackgroundColor=default;strokeColor=default;fontFamily=Helvetica;fontSize=11;fontColor=default;shape=connector;curved=0;" edge="1" parent="1" source="-9v7A5yOoM1ApbnqFRL7-12" target="-9v7A5yOoM1ApbnqFRL7-10">
          <mxGeometry x="0.0023" relative="1" as="geometry">
            <mxPoint x="573" y="296.8" as="sourcePoint" />
            <mxPoint x="425" y="296.8" as="targetPoint" />
            <Array as="points">
              <mxPoint x="478" y="296.8" />
              <mxPoint x="458" y="296.8" />
            </Array>
            <mxPoint as="offset" />
          </mxGeometry>
        </mxCell>
        <mxCell id="-9v7A5yOoM1ApbnqFRL7-16" value="return" style="edgeLabel;html=1;align=center;verticalAlign=middle;resizable=0;points=[];fontFamily=Helvetica;fontSize=11;fontColor=default;labelBackgroundColor=default;" vertex="1" connectable="0" parent="-9v7A5yOoM1ApbnqFRL7-15">
          <mxGeometry x="-0.0946" relative="1" as="geometry">
            <mxPoint x="-6" y="-10" as="offset" />
          </mxGeometry>
        </mxCell>
        <mxCell id="-9v7A5yOoM1ApbnqFRL7-17" value="" style="html=1;verticalAlign=bottom;endArrow=open;dashed=1;endSize=8;rounded=0;labelBackgroundColor=default;strokeColor=default;fontFamily=Helvetica;fontSize=11;fontColor=default;shape=connector;curved=0;" edge="1" parent="1" source="-9v7A5yOoM1ApbnqFRL7-10">
          <mxGeometry x="0.0023" relative="1" as="geometry">
            <mxPoint x="380" y="307" as="sourcePoint" />
            <mxPoint x="105" y="307" as="targetPoint" />
            <Array as="points">
              <mxPoint x="260" y="307" />
            </Array>
            <mxPoint as="offset" />
          </mxGeometry>
        </mxCell>
        <mxCell id="-9v7A5yOoM1ApbnqFRL7-18" value="Ответ 200" style="edgeLabel;html=1;align=center;verticalAlign=middle;resizable=0;points=[];fontFamily=Helvetica;fontSize=11;fontColor=default;labelBackgroundColor=default;" vertex="1" connectable="0" parent="-9v7A5yOoM1ApbnqFRL7-17">
          <mxGeometry x="-0.0946" relative="1" as="geometry">
            <mxPoint x="-6" y="-10" as="offset" />
          </mxGeometry>
        </mxCell>
        <mxCell id="-9v7A5yOoM1ApbnqFRL7-19" value="Валидация данных&lt;br&gt;(Общее: валид)" style="html=1;verticalAlign=bottom;endArrow=block;rounded=0;labelBackgroundColor=default;strokeColor=default;fontFamily=Helvetica;fontSize=11;fontColor=default;shape=connector;curved=0;" edge="1" parent="1">
          <mxGeometry x="0.0945" width="80" relative="1" as="geometry">
            <mxPoint x="265" y="200" as="sourcePoint" />
            <mxPoint x="270" y="230" as="targetPoint" />
            <Array as="points">
              <mxPoint x="330" y="200" />
              <mxPoint x="330" y="230" />
              <mxPoint x="300" y="230" />
            </Array>
            <mxPoint as="offset" />
          </mxGeometry>
        </mxCell>
        <mxCell id="-9v7A5yOoM1ApbnqFRL7-20" value="" style="html=1;points=[];perimeter=orthogonalPerimeter;labelBackgroundColor=none;fontFamily=Helvetica;fontSize=11;fillColor=#0050ef;fontColor=#ffffff;strokeColor=#001DBC;" vertex="1" parent="1">
          <mxGeometry x="260" y="230" width="10" height="20" as="geometry" />
        </mxCell>
      </root>
    </mxGraphModel>
  </diagram>
  <diagram id="CxQ1aHIgpXT1uVYUJ9IE" name="Библиотека">
    <mxGraphModel dx="1360" dy="801" grid="0" gridSize="10" guides="1" tooltips="1" connect="1" arrows="1" fold="1" page="1" pageScale="1" pageWidth="827" pageHeight="1169" math="0" shadow="0">
      <root>
        <mxCell id="0" />
        <mxCell id="1" parent="0" />
        <mxCell id="B6sa3-DJui1slbJCFMNi-1" value="Получить свою библиотеку" style="text;html=1;align=center;verticalAlign=middle;resizable=0;points=[];autosize=1;strokeColor=none;fillColor=none;" vertex="1" parent="1">
          <mxGeometry width="169" height="26" as="geometry" />
        </mxCell>
        <mxCell id="B6sa3-DJui1slbJCFMNi-2" value="Добавить игру в бибиотеку" style="text;html=1;align=center;verticalAlign=middle;resizable=0;points=[];autosize=1;strokeColor=none;fillColor=none;" vertex="1" parent="1">
          <mxGeometry x="828" width="168" height="26" as="geometry" />
        </mxCell>
        <mxCell id="yY0G7q0tWaAEVf7osq47-19" value="Пользователь" style="shape=umlLifeline;perimeter=lifelinePerimeter;whiteSpace=wrap;html=1;container=1;collapsible=0;recursiveResize=0;outlineConnect=0;labelBackgroundColor=none;strokeColor=#d6b656;fontFamily=Helvetica;fontSize=11;fillColor=#fff2cc;" vertex="1" parent="1">
          <mxGeometry x="11" y="46" width="120" height="250" as="geometry" />
        </mxCell>
        <mxCell id="yY0G7q0tWaAEVf7osq47-20" value="" style="html=1;points=[];perimeter=orthogonalPerimeter;labelBackgroundColor=none;strokeColor=#000000;fontFamily=Helvetica;fontSize=11;fontColor=default;fillColor=default;" vertex="1" parent="yY0G7q0tWaAEVf7osq47-19">
          <mxGeometry x="55" y="80" width="10" height="140" as="geometry" />
        </mxCell>
        <mxCell id="yY0G7q0tWaAEVf7osq47-21" value="" style="ellipse;html=1;shape=endState;fillColor=#000000;strokeColor=#ff0000;fontFamily=Helvetica;fontSize=11;fontColor=default;labelBackgroundColor=default;" vertex="1" parent="yY0G7q0tWaAEVf7osq47-19">
          <mxGeometry x="45" y="230" width="30" height="30" as="geometry" />
        </mxCell>
        <mxCell id="yY0G7q0tWaAEVf7osq47-22" value="Система" style="shape=umlLifeline;perimeter=lifelinePerimeter;whiteSpace=wrap;html=1;container=1;collapsible=0;recursiveResize=0;outlineConnect=0;labelBackgroundColor=none;strokeColor=#9673a6;fontFamily=Helvetica;fontSize=11;fillColor=#e1d5e7;" vertex="1" parent="1">
          <mxGeometry x="171" y="46" width="120" height="250" as="geometry" />
        </mxCell>
        <mxCell id="yY0G7q0tWaAEVf7osq47-23" value="Проверка токена&lt;br&gt;(Общее: sanctum)" style="html=1;verticalAlign=bottom;endArrow=block;rounded=0;labelBackgroundColor=default;strokeColor=default;fontFamily=Helvetica;fontSize=11;fontColor=default;shape=connector;curved=0;" edge="1" parent="yY0G7q0tWaAEVf7osq47-22" source="yY0G7q0tWaAEVf7osq47-24" target="yY0G7q0tWaAEVf7osq47-25">
          <mxGeometry x="0.0968" width="80" relative="1" as="geometry">
            <mxPoint x="64" y="110" as="sourcePoint" />
            <mxPoint x="130" y="150" as="targetPoint" />
            <Array as="points">
              <mxPoint x="130" y="100" />
              <mxPoint x="130" y="130" />
              <mxPoint x="100" y="130" />
            </Array>
            <mxPoint as="offset" />
          </mxGeometry>
        </mxCell>
        <mxCell id="yY0G7q0tWaAEVf7osq47-24" value="" style="html=1;points=[];perimeter=orthogonalPerimeter;labelBackgroundColor=none;strokeColor=#000000;fontFamily=Helvetica;fontSize=11;fontColor=default;fillColor=default;" vertex="1" parent="yY0G7q0tWaAEVf7osq47-22">
          <mxGeometry x="55" y="90" width="10" height="90" as="geometry" />
        </mxCell>
        <mxCell id="yY0G7q0tWaAEVf7osq47-25" value="" style="html=1;points=[];perimeter=orthogonalPerimeter;labelBackgroundColor=none;strokeColor=#BD7000;fontFamily=Helvetica;fontSize=11;fontColor=#000000;fillColor=#f0a30a;" vertex="1" parent="yY0G7q0tWaAEVf7osq47-22">
          <mxGeometry x="60" y="130" width="10" height="20" as="geometry" />
        </mxCell>
        <mxCell id="yY0G7q0tWaAEVf7osq47-26" value="Запрос просмотра&lt;div&gt;&amp;nbsp;библиотеки&lt;/div&gt;" style="html=1;verticalAlign=bottom;endArrow=block;rounded=0;labelBackgroundColor=default;strokeColor=default;fontFamily=Helvetica;fontSize=11;fontColor=default;shape=connector;curved=0;" edge="1" parent="1" source="yY0G7q0tWaAEVf7osq47-20" target="yY0G7q0tWaAEVf7osq47-24">
          <mxGeometry x="0.0032" width="80" relative="1" as="geometry">
            <mxPoint x="71" y="146" as="sourcePoint" />
            <mxPoint x="151" y="146" as="targetPoint" />
            <Array as="points">
              <mxPoint x="151" y="136" />
            </Array>
            <mxPoint as="offset" />
          </mxGeometry>
        </mxCell>
        <mxCell id="yY0G7q0tWaAEVf7osq47-27" value="Компонент библиотеки" style="shape=umlLifeline;perimeter=lifelinePerimeter;whiteSpace=wrap;html=1;container=1;collapsible=0;recursiveResize=0;outlineConnect=0;labelBackgroundColor=none;strokeColor=#B20000;fontFamily=Helvetica;fontSize=11;fillColor=#e51400;fontColor=#ffffff;" vertex="1" parent="1">
          <mxGeometry x="331" y="46" width="120" height="250" as="geometry" />
        </mxCell>
        <mxCell id="yY0G7q0tWaAEVf7osq47-28" value="" style="html=1;points=[];perimeter=orthogonalPerimeter;labelBackgroundColor=none;strokeColor=#000000;fontFamily=Helvetica;fontSize=11;fontColor=default;fillColor=default;" vertex="1" parent="yY0G7q0tWaAEVf7osq47-27">
          <mxGeometry x="55" y="170" width="10" height="50" as="geometry" />
        </mxCell>
        <mxCell id="yY0G7q0tWaAEVf7osq47-29" value="База данных" style="shape=umlLifeline;perimeter=lifelinePerimeter;whiteSpace=wrap;html=1;container=1;collapsible=0;recursiveResize=0;outlineConnect=0;labelBackgroundColor=none;strokeColor=#82b366;fontFamily=Helvetica;fontSize=11;fillColor=#d5e8d4;" vertex="1" parent="1">
          <mxGeometry x="491" y="46" width="120" height="250" as="geometry" />
        </mxCell>
        <mxCell id="yY0G7q0tWaAEVf7osq47-30" value="" style="html=1;points=[];perimeter=orthogonalPerimeter;labelBackgroundColor=none;strokeColor=#000000;fontFamily=Helvetica;fontSize=11;fontColor=default;fillColor=default;" vertex="1" parent="yY0G7q0tWaAEVf7osq47-29">
          <mxGeometry x="55" y="180" width="10" height="30" as="geometry" />
        </mxCell>
        <mxCell id="yY0G7q0tWaAEVf7osq47-31" value="Отправка данных" style="html=1;verticalAlign=bottom;endArrow=block;rounded=0;labelBackgroundColor=default;strokeColor=default;fontFamily=Helvetica;fontSize=11;fontColor=default;shape=connector;curved=0;" edge="1" parent="1" source="yY0G7q0tWaAEVf7osq47-24" target="yY0G7q0tWaAEVf7osq47-28">
          <mxGeometry x="0.0023" width="80" relative="1" as="geometry">
            <mxPoint x="237" y="216" as="sourcePoint" />
            <mxPoint x="387" y="216" as="targetPoint" />
            <Array as="points">
              <mxPoint x="312" y="216" />
            </Array>
            <mxPoint as="offset" />
          </mxGeometry>
        </mxCell>
        <mxCell id="yY0G7q0tWaAEVf7osq47-32" value="Запрос библиотеки" style="html=1;verticalAlign=bottom;endArrow=block;rounded=0;labelBackgroundColor=default;strokeColor=default;fontFamily=Helvetica;fontSize=11;fontColor=default;shape=connector;curved=0;" edge="1" parent="1" source="yY0G7q0tWaAEVf7osq47-28" target="yY0G7q0tWaAEVf7osq47-30">
          <mxGeometry x="0.0032" width="80" relative="1" as="geometry">
            <mxPoint x="396" y="235.8" as="sourcePoint" />
            <mxPoint x="546" y="235.8" as="targetPoint" />
            <Array as="points">
              <mxPoint x="471" y="226" />
            </Array>
            <mxPoint as="offset" />
          </mxGeometry>
        </mxCell>
        <mxCell id="yY0G7q0tWaAEVf7osq47-33" value="" style="html=1;verticalAlign=bottom;endArrow=open;dashed=1;endSize=8;rounded=0;labelBackgroundColor=default;strokeColor=default;fontFamily=Helvetica;fontSize=11;fontColor=default;shape=connector;curved=0;" edge="1" parent="1" source="yY0G7q0tWaAEVf7osq47-30" target="yY0G7q0tWaAEVf7osq47-28">
          <mxGeometry x="0.0023" relative="1" as="geometry">
            <mxPoint x="544" y="245.8" as="sourcePoint" />
            <mxPoint x="396" y="245.8" as="targetPoint" />
            <Array as="points">
              <mxPoint x="449" y="245.8" />
              <mxPoint x="429" y="245.8" />
            </Array>
            <mxPoint as="offset" />
          </mxGeometry>
        </mxCell>
        <mxCell id="yY0G7q0tWaAEVf7osq47-34" value="return" style="edgeLabel;html=1;align=center;verticalAlign=middle;resizable=0;points=[];fontFamily=Helvetica;fontSize=11;fontColor=default;labelBackgroundColor=default;" vertex="1" connectable="0" parent="yY0G7q0tWaAEVf7osq47-33">
          <mxGeometry x="-0.0946" relative="1" as="geometry">
            <mxPoint x="-6" y="-10" as="offset" />
          </mxGeometry>
        </mxCell>
        <mxCell id="yY0G7q0tWaAEVf7osq47-35" value="" style="html=1;verticalAlign=bottom;endArrow=open;dashed=1;endSize=8;rounded=0;labelBackgroundColor=default;strokeColor=default;fontFamily=Helvetica;fontSize=11;fontColor=default;shape=connector;curved=0;" edge="1" parent="1" source="yY0G7q0tWaAEVf7osq47-28" target="yY0G7q0tWaAEVf7osq47-20">
          <mxGeometry x="0.0023" relative="1" as="geometry">
            <mxPoint x="351" y="256" as="sourcePoint" />
            <mxPoint x="201" y="256" as="targetPoint" />
            <Array as="points">
              <mxPoint x="231" y="256" />
            </Array>
            <mxPoint as="offset" />
          </mxGeometry>
        </mxCell>
        <mxCell id="yY0G7q0tWaAEVf7osq47-36" value="Ответ 200" style="edgeLabel;html=1;align=center;verticalAlign=middle;resizable=0;points=[];fontFamily=Helvetica;fontSize=11;fontColor=default;labelBackgroundColor=default;" vertex="1" connectable="0" parent="yY0G7q0tWaAEVf7osq47-35">
          <mxGeometry x="-0.0946" relative="1" as="geometry">
            <mxPoint x="-6" y="-10" as="offset" />
          </mxGeometry>
        </mxCell>
        <mxCell id="u5B-CNhlfZUPaVeznBl9-1" value="Пользователь" style="shape=umlLifeline;perimeter=lifelinePerimeter;whiteSpace=wrap;html=1;container=1;collapsible=0;recursiveResize=0;outlineConnect=0;labelBackgroundColor=none;strokeColor=#d6b656;fontFamily=Helvetica;fontSize=11;fillColor=#fff2cc;" vertex="1" parent="1">
          <mxGeometry x="837" y="46" width="120" height="360" as="geometry" />
        </mxCell>
        <mxCell id="u5B-CNhlfZUPaVeznBl9-2" value="" style="html=1;points=[];perimeter=orthogonalPerimeter;labelBackgroundColor=none;strokeColor=#000000;fontFamily=Helvetica;fontSize=11;fontColor=default;fillColor=default;" vertex="1" parent="u5B-CNhlfZUPaVeznBl9-1">
          <mxGeometry x="55" y="80" width="10" height="256" as="geometry" />
        </mxCell>
        <mxCell id="u5B-CNhlfZUPaVeznBl9-3" value="" style="ellipse;html=1;shape=endState;fillColor=#000000;strokeColor=#ff0000;fontFamily=Helvetica;fontSize=11;fontColor=default;labelBackgroundColor=default;" vertex="1" parent="u5B-CNhlfZUPaVeznBl9-1">
          <mxGeometry x="45" y="347" width="30" height="30" as="geometry" />
        </mxCell>
        <mxCell id="u5B-CNhlfZUPaVeznBl9-4" value="Система" style="shape=umlLifeline;perimeter=lifelinePerimeter;whiteSpace=wrap;html=1;container=1;collapsible=0;recursiveResize=0;outlineConnect=0;labelBackgroundColor=none;strokeColor=#9673a6;fontFamily=Helvetica;fontSize=11;fillColor=#e1d5e7;" vertex="1" parent="1">
          <mxGeometry x="997" y="46" width="120" height="362" as="geometry" />
        </mxCell>
        <mxCell id="u5B-CNhlfZUPaVeznBl9-5" value="Проверка токена&lt;br&gt;(Общее: sanctum)" style="html=1;verticalAlign=bottom;endArrow=block;rounded=0;labelBackgroundColor=default;strokeColor=default;fontFamily=Helvetica;fontSize=11;fontColor=default;shape=connector;curved=0;" edge="1" parent="u5B-CNhlfZUPaVeznBl9-4" source="u5B-CNhlfZUPaVeznBl9-6" target="u5B-CNhlfZUPaVeznBl9-7">
          <mxGeometry x="0.0968" width="80" relative="1" as="geometry">
            <mxPoint x="64" y="110" as="sourcePoint" />
            <mxPoint x="130" y="150" as="targetPoint" />
            <Array as="points">
              <mxPoint x="130" y="100" />
              <mxPoint x="130" y="130" />
              <mxPoint x="100" y="130" />
            </Array>
            <mxPoint as="offset" />
          </mxGeometry>
        </mxCell>
        <mxCell id="u5B-CNhlfZUPaVeznBl9-6" value="" style="html=1;points=[];perimeter=orthogonalPerimeter;labelBackgroundColor=none;strokeColor=#000000;fontFamily=Helvetica;fontSize=11;fontColor=default;fillColor=default;" vertex="1" parent="u5B-CNhlfZUPaVeznBl9-4">
          <mxGeometry x="55" y="90" width="10" height="201" as="geometry" />
        </mxCell>
        <mxCell id="u5B-CNhlfZUPaVeznBl9-7" value="" style="html=1;points=[];perimeter=orthogonalPerimeter;labelBackgroundColor=none;strokeColor=#BD7000;fontFamily=Helvetica;fontSize=11;fontColor=#000000;fillColor=#f0a30a;" vertex="1" parent="u5B-CNhlfZUPaVeznBl9-4">
          <mxGeometry x="60" y="130" width="10" height="20" as="geometry" />
        </mxCell>
        <mxCell id="u5B-CNhlfZUPaVeznBl9-43" value="" style="html=1;points=[];perimeter=orthogonalPerimeter;labelBackgroundColor=none;fontFamily=Helvetica;fontSize=11;fillColor=#76608a;fontColor=#ffffff;strokeColor=#432D57;" vertex="1" parent="u5B-CNhlfZUPaVeznBl9-4">
          <mxGeometry x="60" y="250" width="10" height="20" as="geometry" />
        </mxCell>
        <mxCell id="u5B-CNhlfZUPaVeznBl9-42" value="Проверка существования&lt;br&gt;(Общее: сущ)" style="html=1;verticalAlign=bottom;endArrow=block;rounded=0;labelBackgroundColor=default;strokeColor=default;fontFamily=Helvetica;fontSize=11;fontColor=default;shape=connector;curved=0;" edge="1" parent="u5B-CNhlfZUPaVeznBl9-4">
          <mxGeometry x="0.0945" y="10" width="80" relative="1" as="geometry">
            <mxPoint x="65" y="219" as="sourcePoint" />
            <mxPoint x="70" y="249" as="targetPoint" />
            <Array as="points">
              <mxPoint x="130" y="219" />
              <mxPoint x="130" y="249" />
              <mxPoint x="100" y="249" />
            </Array>
            <mxPoint as="offset" />
          </mxGeometry>
        </mxCell>
        <mxCell id="u5B-CNhlfZUPaVeznBl9-8" value="Запрос добавления&amp;nbsp;&lt;div&gt;&lt;span style=&quot;background-color: light-dark(#ffffff, var(--ge-dark-color, #121212)); color: light-dark(rgb(0, 0, 0), rgb(255, 255, 255));&quot;&gt;&amp;nbsp;игры в библиотеку&lt;/span&gt;&lt;/div&gt;" style="html=1;verticalAlign=bottom;endArrow=block;rounded=0;labelBackgroundColor=default;strokeColor=default;fontFamily=Helvetica;fontSize=11;fontColor=default;shape=connector;curved=0;" edge="1" parent="1" source="u5B-CNhlfZUPaVeznBl9-2" target="u5B-CNhlfZUPaVeznBl9-6">
          <mxGeometry x="0.0032" width="80" relative="1" as="geometry">
            <mxPoint x="897" y="146" as="sourcePoint" />
            <mxPoint x="977" y="146" as="targetPoint" />
            <Array as="points">
              <mxPoint x="977" y="136" />
            </Array>
            <mxPoint as="offset" />
          </mxGeometry>
        </mxCell>
        <mxCell id="u5B-CNhlfZUPaVeznBl9-9" value="Компонент библиотеки" style="shape=umlLifeline;perimeter=lifelinePerimeter;whiteSpace=wrap;html=1;container=1;collapsible=0;recursiveResize=0;outlineConnect=0;labelBackgroundColor=none;strokeColor=#B20000;fontFamily=Helvetica;fontSize=11;fillColor=#e51400;fontColor=#ffffff;" vertex="1" parent="1">
          <mxGeometry x="1157" y="46" width="120" height="361" as="geometry" />
        </mxCell>
        <mxCell id="u5B-CNhlfZUPaVeznBl9-10" value="" style="html=1;points=[];perimeter=orthogonalPerimeter;labelBackgroundColor=none;strokeColor=#000000;fontFamily=Helvetica;fontSize=11;fontColor=default;fillColor=default;" vertex="1" parent="u5B-CNhlfZUPaVeznBl9-9">
          <mxGeometry x="55" y="287" width="10" height="50" as="geometry" />
        </mxCell>
        <mxCell id="u5B-CNhlfZUPaVeznBl9-11" value="База данных" style="shape=umlLifeline;perimeter=lifelinePerimeter;whiteSpace=wrap;html=1;container=1;collapsible=0;recursiveResize=0;outlineConnect=0;labelBackgroundColor=none;strokeColor=#82b366;fontFamily=Helvetica;fontSize=11;fillColor=#d5e8d4;" vertex="1" parent="1">
          <mxGeometry x="1317" y="46" width="120" height="371" as="geometry" />
        </mxCell>
        <mxCell id="u5B-CNhlfZUPaVeznBl9-12" value="" style="html=1;points=[];perimeter=orthogonalPerimeter;labelBackgroundColor=none;strokeColor=#000000;fontFamily=Helvetica;fontSize=11;fontColor=default;fillColor=default;" vertex="1" parent="u5B-CNhlfZUPaVeznBl9-11">
          <mxGeometry x="55" y="297" width="10" height="30" as="geometry" />
        </mxCell>
        <mxCell id="u5B-CNhlfZUPaVeznBl9-13" value="Отправка данных" style="html=1;verticalAlign=bottom;endArrow=block;rounded=0;labelBackgroundColor=default;strokeColor=default;fontFamily=Helvetica;fontSize=11;fontColor=default;shape=connector;curved=0;" edge="1" parent="1" target="u5B-CNhlfZUPaVeznBl9-10">
          <mxGeometry x="0.0023" width="80" relative="1" as="geometry">
            <mxPoint x="1062" y="333" as="sourcePoint" />
            <mxPoint x="1213" y="333" as="targetPoint" />
            <Array as="points">
              <mxPoint x="1138" y="333" />
            </Array>
            <mxPoint as="offset" />
          </mxGeometry>
        </mxCell>
        <mxCell id="u5B-CNhlfZUPaVeznBl9-14" value="Запись библиотеки" style="html=1;verticalAlign=bottom;endArrow=block;rounded=0;labelBackgroundColor=default;strokeColor=default;fontFamily=Helvetica;fontSize=11;fontColor=default;shape=connector;curved=0;" edge="1" parent="1" source="u5B-CNhlfZUPaVeznBl9-10" target="u5B-CNhlfZUPaVeznBl9-12">
          <mxGeometry x="0.0111" width="80" relative="1" as="geometry">
            <mxPoint x="1222" y="352.8" as="sourcePoint" />
            <mxPoint x="1372" y="352.8" as="targetPoint" />
            <Array as="points">
              <mxPoint x="1297" y="343" />
            </Array>
            <mxPoint as="offset" />
          </mxGeometry>
        </mxCell>
        <mxCell id="u5B-CNhlfZUPaVeznBl9-15" value="" style="html=1;verticalAlign=bottom;endArrow=open;dashed=1;endSize=8;rounded=0;labelBackgroundColor=default;strokeColor=default;fontFamily=Helvetica;fontSize=11;fontColor=default;shape=connector;curved=0;" edge="1" parent="1" source="u5B-CNhlfZUPaVeznBl9-12" target="u5B-CNhlfZUPaVeznBl9-10">
          <mxGeometry x="0.0023" relative="1" as="geometry">
            <mxPoint x="1370" y="362.8" as="sourcePoint" />
            <mxPoint x="1222" y="362.8" as="targetPoint" />
            <Array as="points">
              <mxPoint x="1275" y="362.8" />
              <mxPoint x="1255" y="362.8" />
            </Array>
            <mxPoint as="offset" />
          </mxGeometry>
        </mxCell>
        <mxCell id="u5B-CNhlfZUPaVeznBl9-16" value="return" style="edgeLabel;html=1;align=center;verticalAlign=middle;resizable=0;points=[];fontFamily=Helvetica;fontSize=11;fontColor=default;labelBackgroundColor=default;" vertex="1" connectable="0" parent="u5B-CNhlfZUPaVeznBl9-15">
          <mxGeometry x="-0.0946" relative="1" as="geometry">
            <mxPoint x="-6" y="-10" as="offset" />
          </mxGeometry>
        </mxCell>
        <mxCell id="u5B-CNhlfZUPaVeznBl9-17" value="" style="html=1;verticalAlign=bottom;endArrow=open;dashed=1;endSize=8;rounded=0;labelBackgroundColor=default;strokeColor=default;fontFamily=Helvetica;fontSize=11;fontColor=default;shape=connector;curved=0;" edge="1" parent="1" source="u5B-CNhlfZUPaVeznBl9-10">
          <mxGeometry x="0.0023" relative="1" as="geometry">
            <mxPoint x="1177" y="373" as="sourcePoint" />
            <mxPoint x="902" y="373" as="targetPoint" />
            <Array as="points">
              <mxPoint x="1057" y="373" />
            </Array>
            <mxPoint as="offset" />
          </mxGeometry>
        </mxCell>
        <mxCell id="u5B-CNhlfZUPaVeznBl9-18" value="Ответ 201 с данными игры" style="edgeLabel;html=1;align=center;verticalAlign=middle;resizable=0;points=[];fontFamily=Helvetica;fontSize=11;fontColor=default;labelBackgroundColor=default;" vertex="1" connectable="0" parent="u5B-CNhlfZUPaVeznBl9-17">
          <mxGeometry x="-0.0946" relative="1" as="geometry">
            <mxPoint x="-6" y="-10" as="offset" />
          </mxGeometry>
        </mxCell>
        <mxCell id="u5B-CNhlfZUPaVeznBl9-19" value="Валидация данных&lt;br&gt;(Общее: валид)" style="html=1;verticalAlign=bottom;endArrow=block;rounded=0;labelBackgroundColor=default;strokeColor=default;fontFamily=Helvetica;fontSize=11;fontColor=default;shape=connector;curved=0;" edge="1" parent="1">
          <mxGeometry x="0.0945" width="80" relative="1" as="geometry">
            <mxPoint x="1062" y="206" as="sourcePoint" />
            <mxPoint x="1067" y="236" as="targetPoint" />
            <Array as="points">
              <mxPoint x="1127" y="206" />
              <mxPoint x="1127" y="236" />
              <mxPoint x="1097" y="236" />
            </Array>
            <mxPoint as="offset" />
          </mxGeometry>
        </mxCell>
        <mxCell id="u5B-CNhlfZUPaVeznBl9-20" value="" style="html=1;points=[];perimeter=orthogonalPerimeter;labelBackgroundColor=none;fontFamily=Helvetica;fontSize=11;fillColor=#0050ef;fontColor=#ffffff;strokeColor=#001DBC;" vertex="1" parent="1">
          <mxGeometry x="1057" y="236" width="10" height="20" as="geometry" />
        </mxCell>
        <mxCell id="u5B-CNhlfZUPaVeznBl9-41" value="Обновление данных игры библиотеки" style="text;html=1;align=center;verticalAlign=middle;resizable=0;points=[];autosize=1;strokeColor=none;fillColor=none;" vertex="1" parent="1">
          <mxGeometry x="1654" width="229" height="26" as="geometry" />
        </mxCell>
        <mxCell id="u5B-CNhlfZUPaVeznBl9-44" value="Пользователь" style="shape=umlLifeline;perimeter=lifelinePerimeter;whiteSpace=wrap;html=1;container=1;collapsible=0;recursiveResize=0;outlineConnect=0;labelBackgroundColor=none;strokeColor=#d6b656;fontFamily=Helvetica;fontSize=11;fillColor=#fff2cc;" vertex="1" parent="1">
          <mxGeometry x="1658" y="46" width="120" height="360" as="geometry" />
        </mxCell>
        <mxCell id="u5B-CNhlfZUPaVeznBl9-45" value="" style="html=1;points=[];perimeter=orthogonalPerimeter;labelBackgroundColor=none;strokeColor=#000000;fontFamily=Helvetica;fontSize=11;fontColor=default;fillColor=default;" vertex="1" parent="u5B-CNhlfZUPaVeznBl9-44">
          <mxGeometry x="55" y="80" width="10" height="256" as="geometry" />
        </mxCell>
        <mxCell id="u5B-CNhlfZUPaVeznBl9-46" value="" style="ellipse;html=1;shape=endState;fillColor=#000000;strokeColor=#ff0000;fontFamily=Helvetica;fontSize=11;fontColor=default;labelBackgroundColor=default;" vertex="1" parent="u5B-CNhlfZUPaVeznBl9-44">
          <mxGeometry x="45" y="347" width="30" height="30" as="geometry" />
        </mxCell>
        <mxCell id="u5B-CNhlfZUPaVeznBl9-47" value="Система" style="shape=umlLifeline;perimeter=lifelinePerimeter;whiteSpace=wrap;html=1;container=1;collapsible=0;recursiveResize=0;outlineConnect=0;labelBackgroundColor=none;strokeColor=#9673a6;fontFamily=Helvetica;fontSize=11;fillColor=#e1d5e7;" vertex="1" parent="1">
          <mxGeometry x="1818" y="46" width="120" height="362" as="geometry" />
        </mxCell>
        <mxCell id="u5B-CNhlfZUPaVeznBl9-48" value="Проверка токена&lt;br&gt;(Общее: sanctum)" style="html=1;verticalAlign=bottom;endArrow=block;rounded=0;labelBackgroundColor=default;strokeColor=default;fontFamily=Helvetica;fontSize=11;fontColor=default;shape=connector;curved=0;" edge="1" parent="u5B-CNhlfZUPaVeznBl9-47" source="u5B-CNhlfZUPaVeznBl9-49" target="u5B-CNhlfZUPaVeznBl9-50">
          <mxGeometry x="0.0968" width="80" relative="1" as="geometry">
            <mxPoint x="64" y="110" as="sourcePoint" />
            <mxPoint x="130" y="150" as="targetPoint" />
            <Array as="points">
              <mxPoint x="130" y="100" />
              <mxPoint x="130" y="130" />
              <mxPoint x="100" y="130" />
            </Array>
            <mxPoint as="offset" />
          </mxGeometry>
        </mxCell>
        <mxCell id="u5B-CNhlfZUPaVeznBl9-49" value="" style="html=1;points=[];perimeter=orthogonalPerimeter;labelBackgroundColor=none;strokeColor=#000000;fontFamily=Helvetica;fontSize=11;fontColor=default;fillColor=default;" vertex="1" parent="u5B-CNhlfZUPaVeznBl9-47">
          <mxGeometry x="55" y="90" width="10" height="201" as="geometry" />
        </mxCell>
        <mxCell id="u5B-CNhlfZUPaVeznBl9-50" value="" style="html=1;points=[];perimeter=orthogonalPerimeter;labelBackgroundColor=none;strokeColor=#BD7000;fontFamily=Helvetica;fontSize=11;fontColor=#000000;fillColor=#f0a30a;" vertex="1" parent="u5B-CNhlfZUPaVeznBl9-47">
          <mxGeometry x="60" y="130" width="10" height="20" as="geometry" />
        </mxCell>
        <mxCell id="u5B-CNhlfZUPaVeznBl9-51" value="" style="html=1;points=[];perimeter=orthogonalPerimeter;labelBackgroundColor=none;fontFamily=Helvetica;fontSize=11;fillColor=#76608a;fontColor=#ffffff;strokeColor=#432D57;" vertex="1" parent="u5B-CNhlfZUPaVeznBl9-47">
          <mxGeometry x="60" y="250" width="10" height="20" as="geometry" />
        </mxCell>
        <mxCell id="u5B-CNhlfZUPaVeznBl9-52" value="Проверка существования&lt;br&gt;(Общее: сущ)" style="html=1;verticalAlign=bottom;endArrow=block;rounded=0;labelBackgroundColor=default;strokeColor=default;fontFamily=Helvetica;fontSize=11;fontColor=default;shape=connector;curved=0;" edge="1" parent="u5B-CNhlfZUPaVeznBl9-47">
          <mxGeometry x="0.0945" y="10" width="80" relative="1" as="geometry">
            <mxPoint x="65" y="219" as="sourcePoint" />
            <mxPoint x="70" y="249" as="targetPoint" />
            <Array as="points">
              <mxPoint x="130" y="219" />
              <mxPoint x="130" y="249" />
              <mxPoint x="100" y="249" />
            </Array>
            <mxPoint as="offset" />
          </mxGeometry>
        </mxCell>
        <mxCell id="u5B-CNhlfZUPaVeznBl9-53" value="Запрос обновления&amp;nbsp;&lt;div&gt;&lt;span style=&quot;background-color: light-dark(#ffffff, var(--ge-dark-color, #121212)); color: light-dark(rgb(0, 0, 0), rgb(255, 255, 255));&quot;&gt;данных для игры&lt;/span&gt;&lt;/div&gt;&lt;div&gt;&lt;span style=&quot;background-color: light-dark(#ffffff, var(--ge-dark-color, #121212)); color: light-dark(rgb(0, 0, 0), rgb(255, 255, 255));&quot;&gt;&amp;nbsp;в библиотеке&lt;/span&gt;&lt;/div&gt;" style="html=1;verticalAlign=bottom;endArrow=block;rounded=0;labelBackgroundColor=default;strokeColor=default;fontFamily=Helvetica;fontSize=11;fontColor=default;shape=connector;curved=0;" edge="1" parent="1" source="u5B-CNhlfZUPaVeznBl9-45" target="u5B-CNhlfZUPaVeznBl9-49">
          <mxGeometry x="0.0032" width="80" relative="1" as="geometry">
            <mxPoint x="1718" y="146" as="sourcePoint" />
            <mxPoint x="1798" y="146" as="targetPoint" />
            <Array as="points">
              <mxPoint x="1798" y="136" />
            </Array>
            <mxPoint as="offset" />
          </mxGeometry>
        </mxCell>
        <mxCell id="u5B-CNhlfZUPaVeznBl9-54" value="Компонент библиотеки" style="shape=umlLifeline;perimeter=lifelinePerimeter;whiteSpace=wrap;html=1;container=1;collapsible=0;recursiveResize=0;outlineConnect=0;labelBackgroundColor=none;strokeColor=#B20000;fontFamily=Helvetica;fontSize=11;fillColor=#e51400;fontColor=#ffffff;" vertex="1" parent="1">
          <mxGeometry x="1978" y="46" width="120" height="361" as="geometry" />
        </mxCell>
        <mxCell id="u5B-CNhlfZUPaVeznBl9-55" value="" style="html=1;points=[];perimeter=orthogonalPerimeter;labelBackgroundColor=none;strokeColor=#000000;fontFamily=Helvetica;fontSize=11;fontColor=default;fillColor=default;" vertex="1" parent="u5B-CNhlfZUPaVeznBl9-54">
          <mxGeometry x="55" y="287" width="10" height="50" as="geometry" />
        </mxCell>
        <mxCell id="u5B-CNhlfZUPaVeznBl9-56" value="База данных" style="shape=umlLifeline;perimeter=lifelinePerimeter;whiteSpace=wrap;html=1;container=1;collapsible=0;recursiveResize=0;outlineConnect=0;labelBackgroundColor=none;strokeColor=#82b366;fontFamily=Helvetica;fontSize=11;fillColor=#d5e8d4;" vertex="1" parent="1">
          <mxGeometry x="2138" y="46" width="120" height="371" as="geometry" />
        </mxCell>
        <mxCell id="u5B-CNhlfZUPaVeznBl9-57" value="" style="html=1;points=[];perimeter=orthogonalPerimeter;labelBackgroundColor=none;strokeColor=#000000;fontFamily=Helvetica;fontSize=11;fontColor=default;fillColor=default;" vertex="1" parent="u5B-CNhlfZUPaVeznBl9-56">
          <mxGeometry x="55" y="297" width="10" height="30" as="geometry" />
        </mxCell>
        <mxCell id="u5B-CNhlfZUPaVeznBl9-58" value="Отправка данных" style="html=1;verticalAlign=bottom;endArrow=block;rounded=0;labelBackgroundColor=default;strokeColor=default;fontFamily=Helvetica;fontSize=11;fontColor=default;shape=connector;curved=0;" edge="1" parent="1" target="u5B-CNhlfZUPaVeznBl9-55">
          <mxGeometry x="0.0023" width="80" relative="1" as="geometry">
            <mxPoint x="1883" y="333" as="sourcePoint" />
            <mxPoint x="2034" y="333" as="targetPoint" />
            <Array as="points">
              <mxPoint x="1959" y="333" />
            </Array>
            <mxPoint as="offset" />
          </mxGeometry>
        </mxCell>
        <mxCell id="u5B-CNhlfZUPaVeznBl9-59" value="Запись данных библиотеки" style="html=1;verticalAlign=bottom;endArrow=block;rounded=0;labelBackgroundColor=default;strokeColor=default;fontFamily=Helvetica;fontSize=11;fontColor=default;shape=connector;curved=0;" edge="1" parent="1" source="u5B-CNhlfZUPaVeznBl9-55" target="u5B-CNhlfZUPaVeznBl9-57">
          <mxGeometry x="0.0111" width="80" relative="1" as="geometry">
            <mxPoint x="2043" y="352.8" as="sourcePoint" />
            <mxPoint x="2193" y="352.8" as="targetPoint" />
            <Array as="points">
              <mxPoint x="2118" y="343" />
            </Array>
            <mxPoint as="offset" />
          </mxGeometry>
        </mxCell>
        <mxCell id="u5B-CNhlfZUPaVeznBl9-60" value="" style="html=1;verticalAlign=bottom;endArrow=open;dashed=1;endSize=8;rounded=0;labelBackgroundColor=default;strokeColor=default;fontFamily=Helvetica;fontSize=11;fontColor=default;shape=connector;curved=0;" edge="1" parent="1" source="u5B-CNhlfZUPaVeznBl9-57" target="u5B-CNhlfZUPaVeznBl9-55">
          <mxGeometry x="0.0023" relative="1" as="geometry">
            <mxPoint x="2191" y="362.8" as="sourcePoint" />
            <mxPoint x="2043" y="362.8" as="targetPoint" />
            <Array as="points">
              <mxPoint x="2096" y="362.8" />
              <mxPoint x="2076" y="362.8" />
            </Array>
            <mxPoint as="offset" />
          </mxGeometry>
        </mxCell>
        <mxCell id="u5B-CNhlfZUPaVeznBl9-61" value="return" style="edgeLabel;html=1;align=center;verticalAlign=middle;resizable=0;points=[];fontFamily=Helvetica;fontSize=11;fontColor=default;labelBackgroundColor=default;" vertex="1" connectable="0" parent="u5B-CNhlfZUPaVeznBl9-60">
          <mxGeometry x="-0.0946" relative="1" as="geometry">
            <mxPoint x="-6" y="-10" as="offset" />
          </mxGeometry>
        </mxCell>
        <mxCell id="u5B-CNhlfZUPaVeznBl9-62" value="" style="html=1;verticalAlign=bottom;endArrow=open;dashed=1;endSize=8;rounded=0;labelBackgroundColor=default;strokeColor=default;fontFamily=Helvetica;fontSize=11;fontColor=default;shape=connector;curved=0;" edge="1" parent="1" source="u5B-CNhlfZUPaVeznBl9-55">
          <mxGeometry x="0.0023" relative="1" as="geometry">
            <mxPoint x="1998" y="373" as="sourcePoint" />
            <mxPoint x="1723" y="373" as="targetPoint" />
            <Array as="points">
              <mxPoint x="1878" y="373" />
            </Array>
            <mxPoint as="offset" />
          </mxGeometry>
        </mxCell>
        <mxCell id="u5B-CNhlfZUPaVeznBl9-63" value="Ответ 204" style="edgeLabel;html=1;align=center;verticalAlign=middle;resizable=0;points=[];fontFamily=Helvetica;fontSize=11;fontColor=default;labelBackgroundColor=default;" vertex="1" connectable="0" parent="u5B-CNhlfZUPaVeznBl9-62">
          <mxGeometry x="-0.0946" relative="1" as="geometry">
            <mxPoint x="-6" y="-10" as="offset" />
          </mxGeometry>
        </mxCell>
        <mxCell id="u5B-CNhlfZUPaVeznBl9-64" value="Валидация данных&lt;br&gt;(Общее: валид)" style="html=1;verticalAlign=bottom;endArrow=block;rounded=0;labelBackgroundColor=default;strokeColor=default;fontFamily=Helvetica;fontSize=11;fontColor=default;shape=connector;curved=0;" edge="1" parent="1">
          <mxGeometry x="0.0945" width="80" relative="1" as="geometry">
            <mxPoint x="1883" y="206" as="sourcePoint" />
            <mxPoint x="1888" y="236" as="targetPoint" />
            <Array as="points">
              <mxPoint x="1948" y="206" />
              <mxPoint x="1948" y="236" />
              <mxPoint x="1918" y="236" />
            </Array>
            <mxPoint as="offset" />
          </mxGeometry>
        </mxCell>
        <mxCell id="u5B-CNhlfZUPaVeznBl9-65" value="" style="html=1;points=[];perimeter=orthogonalPerimeter;labelBackgroundColor=none;fontFamily=Helvetica;fontSize=11;fillColor=#0050ef;fontColor=#ffffff;strokeColor=#001DBC;" vertex="1" parent="1">
          <mxGeometry x="1878" y="236" width="10" height="20" as="geometry" />
        </mxCell>
        <mxCell id="u5B-CNhlfZUPaVeznBl9-66" value="Пользователь" style="shape=umlLifeline;perimeter=lifelinePerimeter;whiteSpace=wrap;html=1;container=1;collapsible=0;recursiveResize=0;outlineConnect=0;labelBackgroundColor=none;strokeColor=#d6b656;fontFamily=Helvetica;fontSize=11;fillColor=#fff2cc;" vertex="1" parent="1">
          <mxGeometry x="835" y="512" width="120" height="314" as="geometry" />
        </mxCell>
        <mxCell id="u5B-CNhlfZUPaVeznBl9-67" value="" style="html=1;points=[];perimeter=orthogonalPerimeter;labelBackgroundColor=none;strokeColor=#000000;fontFamily=Helvetica;fontSize=11;fontColor=default;fillColor=default;" vertex="1" parent="u5B-CNhlfZUPaVeznBl9-66">
          <mxGeometry x="55" y="80" width="10" height="205" as="geometry" />
        </mxCell>
        <mxCell id="u5B-CNhlfZUPaVeznBl9-68" value="" style="ellipse;html=1;shape=endState;fillColor=#000000;strokeColor=#ff0000;fontFamily=Helvetica;fontSize=11;fontColor=default;labelBackgroundColor=default;" vertex="1" parent="u5B-CNhlfZUPaVeznBl9-66">
          <mxGeometry x="45" y="297" width="30" height="30" as="geometry" />
        </mxCell>
        <mxCell id="u5B-CNhlfZUPaVeznBl9-69" value="Система" style="shape=umlLifeline;perimeter=lifelinePerimeter;whiteSpace=wrap;html=1;container=1;collapsible=0;recursiveResize=0;outlineConnect=0;labelBackgroundColor=none;strokeColor=#9673a6;fontFamily=Helvetica;fontSize=11;fillColor=#e1d5e7;" vertex="1" parent="1">
          <mxGeometry x="995" y="512" width="120" height="313" as="geometry" />
        </mxCell>
        <mxCell id="u5B-CNhlfZUPaVeznBl9-70" value="Проверка токена&lt;br&gt;(Общее: sanctum)" style="html=1;verticalAlign=bottom;endArrow=block;rounded=0;labelBackgroundColor=default;strokeColor=default;fontFamily=Helvetica;fontSize=11;fontColor=default;shape=connector;curved=0;" edge="1" parent="u5B-CNhlfZUPaVeznBl9-69" source="u5B-CNhlfZUPaVeznBl9-71" target="u5B-CNhlfZUPaVeznBl9-72">
          <mxGeometry x="0.0968" width="80" relative="1" as="geometry">
            <mxPoint x="64" y="110" as="sourcePoint" />
            <mxPoint x="130" y="150" as="targetPoint" />
            <Array as="points">
              <mxPoint x="130" y="100" />
              <mxPoint x="130" y="130" />
              <mxPoint x="100" y="130" />
            </Array>
            <mxPoint as="offset" />
          </mxGeometry>
        </mxCell>
        <mxCell id="u5B-CNhlfZUPaVeznBl9-71" value="" style="html=1;points=[];perimeter=orthogonalPerimeter;labelBackgroundColor=none;strokeColor=#000000;fontFamily=Helvetica;fontSize=11;fontColor=default;fillColor=default;" vertex="1" parent="u5B-CNhlfZUPaVeznBl9-69">
          <mxGeometry x="55" y="90" width="10" height="153" as="geometry" />
        </mxCell>
        <mxCell id="u5B-CNhlfZUPaVeznBl9-72" value="" style="html=1;points=[];perimeter=orthogonalPerimeter;labelBackgroundColor=none;strokeColor=#BD7000;fontFamily=Helvetica;fontSize=11;fontColor=#000000;fillColor=#f0a30a;" vertex="1" parent="u5B-CNhlfZUPaVeznBl9-69">
          <mxGeometry x="60" y="130" width="10" height="20" as="geometry" />
        </mxCell>
        <mxCell id="u5B-CNhlfZUPaVeznBl9-73" value="" style="html=1;points=[];perimeter=orthogonalPerimeter;labelBackgroundColor=none;fontFamily=Helvetica;fontSize=11;fillColor=#76608a;fontColor=#ffffff;strokeColor=#432D57;" vertex="1" parent="u5B-CNhlfZUPaVeznBl9-69">
          <mxGeometry x="60" y="200" width="10" height="20" as="geometry" />
        </mxCell>
        <mxCell id="u5B-CNhlfZUPaVeznBl9-74" value="Проверка существования&lt;br&gt;(Общее: сущ)" style="html=1;verticalAlign=bottom;endArrow=block;rounded=0;labelBackgroundColor=default;strokeColor=default;fontFamily=Helvetica;fontSize=11;fontColor=default;shape=connector;curved=0;" edge="1" parent="u5B-CNhlfZUPaVeznBl9-69">
          <mxGeometry x="0.0945" y="10" width="80" relative="1" as="geometry">
            <mxPoint x="65" y="169" as="sourcePoint" />
            <mxPoint x="70" y="199" as="targetPoint" />
            <Array as="points">
              <mxPoint x="130" y="169" />
              <mxPoint x="130" y="199" />
              <mxPoint x="100" y="199" />
            </Array>
            <mxPoint as="offset" />
          </mxGeometry>
        </mxCell>
        <mxCell id="u5B-CNhlfZUPaVeznBl9-75" value="Запрос удаления&lt;div&gt;&lt;span style=&quot;background-color: light-dark(#ffffff, var(--ge-dark-color, #121212)); color: light-dark(rgb(0, 0, 0), rgb(255, 255, 255));&quot;&gt;&amp;nbsp;игры из библиотеки&lt;/span&gt;&lt;/div&gt;" style="html=1;verticalAlign=bottom;endArrow=block;rounded=0;labelBackgroundColor=default;strokeColor=default;fontFamily=Helvetica;fontSize=11;fontColor=default;shape=connector;curved=0;" edge="1" parent="1" source="u5B-CNhlfZUPaVeznBl9-67" target="u5B-CNhlfZUPaVeznBl9-71">
          <mxGeometry x="0.0032" width="80" relative="1" as="geometry">
            <mxPoint x="895" y="612" as="sourcePoint" />
            <mxPoint x="975" y="612" as="targetPoint" />
            <Array as="points">
              <mxPoint x="975" y="602" />
            </Array>
            <mxPoint as="offset" />
          </mxGeometry>
        </mxCell>
        <mxCell id="u5B-CNhlfZUPaVeznBl9-76" value="Компонент библиотеки" style="shape=umlLifeline;perimeter=lifelinePerimeter;whiteSpace=wrap;html=1;container=1;collapsible=0;recursiveResize=0;outlineConnect=0;labelBackgroundColor=none;strokeColor=#B20000;fontFamily=Helvetica;fontSize=11;fillColor=#e51400;fontColor=#ffffff;" vertex="1" parent="1">
          <mxGeometry x="1155" y="512" width="120" height="317" as="geometry" />
        </mxCell>
        <mxCell id="u5B-CNhlfZUPaVeznBl9-77" value="" style="html=1;points=[];perimeter=orthogonalPerimeter;labelBackgroundColor=none;strokeColor=#000000;fontFamily=Helvetica;fontSize=11;fontColor=default;fillColor=default;" vertex="1" parent="u5B-CNhlfZUPaVeznBl9-76">
          <mxGeometry x="55" y="237" width="10" height="50" as="geometry" />
        </mxCell>
        <mxCell id="u5B-CNhlfZUPaVeznBl9-78" value="База данных" style="shape=umlLifeline;perimeter=lifelinePerimeter;whiteSpace=wrap;html=1;container=1;collapsible=0;recursiveResize=0;outlineConnect=0;labelBackgroundColor=none;strokeColor=#82b366;fontFamily=Helvetica;fontSize=11;fillColor=#d5e8d4;" vertex="1" parent="1">
          <mxGeometry x="1315" y="512" width="120" height="315" as="geometry" />
        </mxCell>
        <mxCell id="u5B-CNhlfZUPaVeznBl9-79" value="" style="html=1;points=[];perimeter=orthogonalPerimeter;labelBackgroundColor=none;strokeColor=#000000;fontFamily=Helvetica;fontSize=11;fontColor=default;fillColor=default;" vertex="1" parent="u5B-CNhlfZUPaVeznBl9-78">
          <mxGeometry x="55" y="247" width="10" height="30" as="geometry" />
        </mxCell>
        <mxCell id="u5B-CNhlfZUPaVeznBl9-80" value="Отправка данных" style="html=1;verticalAlign=bottom;endArrow=block;rounded=0;labelBackgroundColor=default;strokeColor=default;fontFamily=Helvetica;fontSize=11;fontColor=default;shape=connector;curved=0;" edge="1" parent="1" target="u5B-CNhlfZUPaVeznBl9-77">
          <mxGeometry x="0.0023" width="80" relative="1" as="geometry">
            <mxPoint x="1060" y="749" as="sourcePoint" />
            <mxPoint x="1211" y="749" as="targetPoint" />
            <Array as="points">
              <mxPoint x="1136" y="749" />
            </Array>
            <mxPoint as="offset" />
          </mxGeometry>
        </mxCell>
        <mxCell id="u5B-CNhlfZUPaVeznBl9-81" value="Удаление" style="html=1;verticalAlign=bottom;endArrow=block;rounded=0;labelBackgroundColor=default;strokeColor=default;fontFamily=Helvetica;fontSize=11;fontColor=default;shape=connector;curved=0;" edge="1" parent="1" source="u5B-CNhlfZUPaVeznBl9-77" target="u5B-CNhlfZUPaVeznBl9-79">
          <mxGeometry x="0.0133" width="80" relative="1" as="geometry">
            <mxPoint x="1220" y="768.8" as="sourcePoint" />
            <mxPoint x="1370" y="768.8" as="targetPoint" />
            <Array as="points">
              <mxPoint x="1295" y="759" />
            </Array>
            <mxPoint as="offset" />
          </mxGeometry>
        </mxCell>
        <mxCell id="u5B-CNhlfZUPaVeznBl9-82" value="" style="html=1;verticalAlign=bottom;endArrow=open;dashed=1;endSize=8;rounded=0;labelBackgroundColor=default;strokeColor=default;fontFamily=Helvetica;fontSize=11;fontColor=default;shape=connector;curved=0;" edge="1" parent="1" source="u5B-CNhlfZUPaVeznBl9-79" target="u5B-CNhlfZUPaVeznBl9-77">
          <mxGeometry x="0.0023" relative="1" as="geometry">
            <mxPoint x="1368" y="778.8" as="sourcePoint" />
            <mxPoint x="1220" y="778.8" as="targetPoint" />
            <Array as="points">
              <mxPoint x="1273" y="778.8" />
              <mxPoint x="1253" y="778.8" />
            </Array>
            <mxPoint as="offset" />
          </mxGeometry>
        </mxCell>
        <mxCell id="u5B-CNhlfZUPaVeznBl9-83" value="return" style="edgeLabel;html=1;align=center;verticalAlign=middle;resizable=0;points=[];fontFamily=Helvetica;fontSize=11;fontColor=default;labelBackgroundColor=default;" vertex="1" connectable="0" parent="u5B-CNhlfZUPaVeznBl9-82">
          <mxGeometry x="-0.0946" relative="1" as="geometry">
            <mxPoint x="-6" y="-10" as="offset" />
          </mxGeometry>
        </mxCell>
        <mxCell id="u5B-CNhlfZUPaVeznBl9-84" value="" style="html=1;verticalAlign=bottom;endArrow=open;dashed=1;endSize=8;rounded=0;labelBackgroundColor=default;strokeColor=default;fontFamily=Helvetica;fontSize=11;fontColor=default;shape=connector;curved=0;" edge="1" parent="1" source="u5B-CNhlfZUPaVeznBl9-77">
          <mxGeometry x="0.0023" relative="1" as="geometry">
            <mxPoint x="1175" y="789" as="sourcePoint" />
            <mxPoint x="900" y="789" as="targetPoint" />
            <Array as="points">
              <mxPoint x="1055" y="789" />
            </Array>
            <mxPoint as="offset" />
          </mxGeometry>
        </mxCell>
        <mxCell id="u5B-CNhlfZUPaVeznBl9-85" value="Ответ 204" style="edgeLabel;html=1;align=center;verticalAlign=middle;resizable=0;points=[];fontFamily=Helvetica;fontSize=11;fontColor=default;labelBackgroundColor=default;" vertex="1" connectable="0" parent="u5B-CNhlfZUPaVeznBl9-84">
          <mxGeometry x="-0.0946" relative="1" as="geometry">
            <mxPoint x="-6" y="-10" as="offset" />
          </mxGeometry>
        </mxCell>
        <mxCell id="u5B-CNhlfZUPaVeznBl9-88" value="Удаление игры из библиотеки" style="text;html=1;align=center;verticalAlign=middle;resizable=0;points=[];autosize=1;strokeColor=none;fillColor=none;" vertex="1" parent="1">
          <mxGeometry x="828" y="473" width="185" height="26" as="geometry" />
        </mxCell>
        <mxCell id="u5B-CNhlfZUPaVeznBl9-89" value="Переключение избранного статуса игры" style="text;html=1;align=center;verticalAlign=middle;resizable=0;points=[];autosize=1;strokeColor=none;fillColor=none;" vertex="1" parent="1">
          <mxGeometry x="1654" y="459" width="242" height="26" as="geometry" />
        </mxCell>
        <mxCell id="u5B-CNhlfZUPaVeznBl9-90" value="Пользователь" style="shape=umlLifeline;perimeter=lifelinePerimeter;whiteSpace=wrap;html=1;container=1;collapsible=0;recursiveResize=0;outlineConnect=0;labelBackgroundColor=none;strokeColor=#d6b656;fontFamily=Helvetica;fontSize=11;fillColor=#fff2cc;" vertex="1" parent="1">
          <mxGeometry x="1658" y="504" width="120" height="311" as="geometry" />
        </mxCell>
        <mxCell id="u5B-CNhlfZUPaVeznBl9-91" value="" style="html=1;points=[];perimeter=orthogonalPerimeter;labelBackgroundColor=none;strokeColor=#000000;fontFamily=Helvetica;fontSize=11;fontColor=default;fillColor=default;" vertex="1" parent="u5B-CNhlfZUPaVeznBl9-90">
          <mxGeometry x="55" y="80" width="10" height="204" as="geometry" />
        </mxCell>
        <mxCell id="u5B-CNhlfZUPaVeznBl9-92" value="" style="ellipse;html=1;shape=endState;fillColor=#000000;strokeColor=#ff0000;fontFamily=Helvetica;fontSize=11;fontColor=default;labelBackgroundColor=default;" vertex="1" parent="u5B-CNhlfZUPaVeznBl9-90">
          <mxGeometry x="45" y="294" width="30" height="30" as="geometry" />
        </mxCell>
        <mxCell id="u5B-CNhlfZUPaVeznBl9-93" value="Система" style="shape=umlLifeline;perimeter=lifelinePerimeter;whiteSpace=wrap;html=1;container=1;collapsible=0;recursiveResize=0;outlineConnect=0;labelBackgroundColor=none;strokeColor=#9673a6;fontFamily=Helvetica;fontSize=11;fillColor=#e1d5e7;" vertex="1" parent="1">
          <mxGeometry x="1818" y="504" width="120" height="316" as="geometry" />
        </mxCell>
        <mxCell id="u5B-CNhlfZUPaVeznBl9-94" value="Проверка токена&lt;br&gt;(Общее: sanctum)" style="html=1;verticalAlign=bottom;endArrow=block;rounded=0;labelBackgroundColor=default;strokeColor=default;fontFamily=Helvetica;fontSize=11;fontColor=default;shape=connector;curved=0;" edge="1" parent="u5B-CNhlfZUPaVeznBl9-93" source="u5B-CNhlfZUPaVeznBl9-95" target="u5B-CNhlfZUPaVeznBl9-96">
          <mxGeometry x="0.0968" width="80" relative="1" as="geometry">
            <mxPoint x="64" y="110" as="sourcePoint" />
            <mxPoint x="130" y="150" as="targetPoint" />
            <Array as="points">
              <mxPoint x="130" y="100" />
              <mxPoint x="130" y="130" />
              <mxPoint x="100" y="130" />
            </Array>
            <mxPoint as="offset" />
          </mxGeometry>
        </mxCell>
        <mxCell id="u5B-CNhlfZUPaVeznBl9-95" value="" style="html=1;points=[];perimeter=orthogonalPerimeter;labelBackgroundColor=none;strokeColor=#000000;fontFamily=Helvetica;fontSize=11;fontColor=default;fillColor=default;" vertex="1" parent="u5B-CNhlfZUPaVeznBl9-93">
          <mxGeometry x="55" y="90" width="10" height="154" as="geometry" />
        </mxCell>
        <mxCell id="u5B-CNhlfZUPaVeznBl9-96" value="" style="html=1;points=[];perimeter=orthogonalPerimeter;labelBackgroundColor=none;strokeColor=#BD7000;fontFamily=Helvetica;fontSize=11;fontColor=#000000;fillColor=#f0a30a;" vertex="1" parent="u5B-CNhlfZUPaVeznBl9-93">
          <mxGeometry x="60" y="130" width="10" height="20" as="geometry" />
        </mxCell>
        <mxCell id="u5B-CNhlfZUPaVeznBl9-97" value="" style="html=1;points=[];perimeter=orthogonalPerimeter;labelBackgroundColor=none;fontFamily=Helvetica;fontSize=11;fillColor=#76608a;fontColor=#ffffff;strokeColor=#432D57;" vertex="1" parent="u5B-CNhlfZUPaVeznBl9-93">
          <mxGeometry x="60" y="197" width="10" height="20" as="geometry" />
        </mxCell>
        <mxCell id="u5B-CNhlfZUPaVeznBl9-98" value="Проверка существования&lt;br&gt;(Общее: сущ)" style="html=1;verticalAlign=bottom;endArrow=block;rounded=0;labelBackgroundColor=default;strokeColor=default;fontFamily=Helvetica;fontSize=11;fontColor=default;shape=connector;curved=0;" edge="1" parent="u5B-CNhlfZUPaVeznBl9-93">
          <mxGeometry x="0.0945" y="10" width="80" relative="1" as="geometry">
            <mxPoint x="65" y="166" as="sourcePoint" />
            <mxPoint x="70" y="196" as="targetPoint" />
            <Array as="points">
              <mxPoint x="130" y="166" />
              <mxPoint x="130" y="196" />
              <mxPoint x="100" y="196" />
            </Array>
            <mxPoint as="offset" />
          </mxGeometry>
        </mxCell>
        <mxCell id="u5B-CNhlfZUPaVeznBl9-99" value="Запрос переключения&amp;nbsp;&lt;div&gt;избранного статуса игры&lt;/div&gt;" style="html=1;verticalAlign=bottom;endArrow=block;rounded=0;labelBackgroundColor=default;strokeColor=default;fontFamily=Helvetica;fontSize=11;fontColor=default;shape=connector;curved=0;" edge="1" parent="1" source="u5B-CNhlfZUPaVeznBl9-91" target="u5B-CNhlfZUPaVeznBl9-95">
          <mxGeometry x="0.0032" width="80" relative="1" as="geometry">
            <mxPoint x="1718" y="604" as="sourcePoint" />
            <mxPoint x="1798" y="604" as="targetPoint" />
            <Array as="points">
              <mxPoint x="1798" y="594" />
            </Array>
            <mxPoint as="offset" />
          </mxGeometry>
        </mxCell>
        <mxCell id="u5B-CNhlfZUPaVeznBl9-100" value="Компонент библиотеки" style="shape=umlLifeline;perimeter=lifelinePerimeter;whiteSpace=wrap;html=1;container=1;collapsible=0;recursiveResize=0;outlineConnect=0;labelBackgroundColor=none;strokeColor=#B20000;fontFamily=Helvetica;fontSize=11;fillColor=#e51400;fontColor=#ffffff;" vertex="1" parent="1">
          <mxGeometry x="1978" y="504" width="120" height="313" as="geometry" />
        </mxCell>
        <mxCell id="u5B-CNhlfZUPaVeznBl9-101" value="" style="html=1;points=[];perimeter=orthogonalPerimeter;labelBackgroundColor=none;strokeColor=#000000;fontFamily=Helvetica;fontSize=11;fontColor=default;fillColor=default;" vertex="1" parent="u5B-CNhlfZUPaVeznBl9-100">
          <mxGeometry x="55" y="234" width="10" height="50" as="geometry" />
        </mxCell>
        <mxCell id="u5B-CNhlfZUPaVeznBl9-102" value="База данных" style="shape=umlLifeline;perimeter=lifelinePerimeter;whiteSpace=wrap;html=1;container=1;collapsible=0;recursiveResize=0;outlineConnect=0;labelBackgroundColor=none;strokeColor=#82b366;fontFamily=Helvetica;fontSize=11;fillColor=#d5e8d4;" vertex="1" parent="1">
          <mxGeometry x="2138" y="504" width="120" height="321" as="geometry" />
        </mxCell>
        <mxCell id="u5B-CNhlfZUPaVeznBl9-103" value="" style="html=1;points=[];perimeter=orthogonalPerimeter;labelBackgroundColor=none;strokeColor=#000000;fontFamily=Helvetica;fontSize=11;fontColor=default;fillColor=default;" vertex="1" parent="u5B-CNhlfZUPaVeznBl9-102">
          <mxGeometry x="55" y="244" width="10" height="30" as="geometry" />
        </mxCell>
        <mxCell id="u5B-CNhlfZUPaVeznBl9-104" value="Отправка данных" style="html=1;verticalAlign=bottom;endArrow=block;rounded=0;labelBackgroundColor=default;strokeColor=default;fontFamily=Helvetica;fontSize=11;fontColor=default;shape=connector;curved=0;" edge="1" parent="1" target="u5B-CNhlfZUPaVeznBl9-101">
          <mxGeometry x="0.0023" width="80" relative="1" as="geometry">
            <mxPoint x="1883" y="738" as="sourcePoint" />
            <mxPoint x="2034" y="738" as="targetPoint" />
            <Array as="points">
              <mxPoint x="1959" y="738" />
            </Array>
            <mxPoint as="offset" />
          </mxGeometry>
        </mxCell>
        <mxCell id="u5B-CNhlfZUPaVeznBl9-105" value="Запись данных библиотеки" style="html=1;verticalAlign=bottom;endArrow=block;rounded=0;labelBackgroundColor=default;strokeColor=default;fontFamily=Helvetica;fontSize=11;fontColor=default;shape=connector;curved=0;" edge="1" parent="1" source="u5B-CNhlfZUPaVeznBl9-101" target="u5B-CNhlfZUPaVeznBl9-103">
          <mxGeometry x="0.0074" width="80" relative="1" as="geometry">
            <mxPoint x="2043" y="757.8" as="sourcePoint" />
            <mxPoint x="2193" y="757.8" as="targetPoint" />
            <Array as="points">
              <mxPoint x="2118" y="748" />
            </Array>
            <mxPoint as="offset" />
          </mxGeometry>
        </mxCell>
        <mxCell id="u5B-CNhlfZUPaVeznBl9-106" value="" style="html=1;verticalAlign=bottom;endArrow=open;dashed=1;endSize=8;rounded=0;labelBackgroundColor=default;strokeColor=default;fontFamily=Helvetica;fontSize=11;fontColor=default;shape=connector;curved=0;" edge="1" parent="1" source="u5B-CNhlfZUPaVeznBl9-103" target="u5B-CNhlfZUPaVeznBl9-101">
          <mxGeometry x="0.0023" relative="1" as="geometry">
            <mxPoint x="2191" y="767.8" as="sourcePoint" />
            <mxPoint x="2043" y="767.8" as="targetPoint" />
            <Array as="points">
              <mxPoint x="2096" y="767.8" />
              <mxPoint x="2076" y="767.8" />
            </Array>
            <mxPoint as="offset" />
          </mxGeometry>
        </mxCell>
        <mxCell id="u5B-CNhlfZUPaVeznBl9-107" value="return" style="edgeLabel;html=1;align=center;verticalAlign=middle;resizable=0;points=[];fontFamily=Helvetica;fontSize=11;fontColor=default;labelBackgroundColor=default;" vertex="1" connectable="0" parent="u5B-CNhlfZUPaVeznBl9-106">
          <mxGeometry x="-0.0946" relative="1" as="geometry">
            <mxPoint x="-6" y="-10" as="offset" />
          </mxGeometry>
        </mxCell>
        <mxCell id="u5B-CNhlfZUPaVeznBl9-108" value="" style="html=1;verticalAlign=bottom;endArrow=open;dashed=1;endSize=8;rounded=0;labelBackgroundColor=default;strokeColor=default;fontFamily=Helvetica;fontSize=11;fontColor=default;shape=connector;curved=0;" edge="1" parent="1" source="u5B-CNhlfZUPaVeznBl9-101">
          <mxGeometry x="0.0023" relative="1" as="geometry">
            <mxPoint x="1998" y="778" as="sourcePoint" />
            <mxPoint x="1723" y="778" as="targetPoint" />
            <Array as="points">
              <mxPoint x="1878" y="778" />
            </Array>
            <mxPoint as="offset" />
          </mxGeometry>
        </mxCell>
        <mxCell id="u5B-CNhlfZUPaVeznBl9-109" value="Ответ 204" style="edgeLabel;html=1;align=center;verticalAlign=middle;resizable=0;points=[];fontFamily=Helvetica;fontSize=11;fontColor=default;labelBackgroundColor=default;" vertex="1" connectable="0" parent="u5B-CNhlfZUPaVeznBl9-108">
          <mxGeometry x="-0.0946" relative="1" as="geometry">
            <mxPoint x="-6" y="-10" as="offset" />
          </mxGeometry>
        </mxCell>
      </root>
    </mxGraphModel>
  </diagram>
</mxfile>
